0
SECTION
2
HEADER
9
$ANGDIR
70
1
9
$AUNITS
70
0
9
$PROJECTNAME
1
plant montr
9
$TDCREATE
40
2460732.92114472
9
$INSUNITS
70
4
0
ENDSEC
0
SECTION
2
ENTITIES
0
POLYLINE
66
1
8
outline
10
0.0
20
0.0
30
0.0
70
1
0
VERTEX
8
0
10
-1.27
20
0
30
0
0
VERTEX
8
0
10
65.71000000000001
20
0
30
0
0
VERTEX
8
0
10
65.71000000000001
20
57.14
30
0
0
VERTEX
8
0
10
-1.27
20
57.14
30
0
0
VERTEX
8
0
10
-1.27
20
0
30
0
0
SEQEND
0
POLYLINE
66
1
8
holes
10
0.0
20
0.0
30
0.0
70
1
0
VERTEX
8
0
10
12.020000000000001
20
6.12
30
0
0
VERTEX
8
0
10
12.82
20
6.12
30
0
0
VERTEX
8
0
10
12.82
20
9.120000000000001
30
0
0
VERTEX
8
0
10
12.020000000000001
20
9.120000000000001
30
0
0
VERTEX
8
0
10
12.020000000000001
20
6.12
30
0
0
SEQEND
0
POLYLINE
66
1
8
holes
10
0.0
20
0.0
30
0.0
70
1
0
VERTEX
8
0
10
5.87
20
10.120000000000001
30
0
0
VERTEX
8
0
10
9.370000000000001
20
10.120000000000001
30
0
0
VERTEX
8
0
10
9.370000000000001
20
11.120000000000001
30
0
0
VERTEX
8
0
10
5.87
20
11.120000000000001
30
0
0
VERTEX
8
0
10
5.87
20
10.120000000000001
30
0
0
SEQEND
0
POLYLINE
66
1
8
holes
10
0.0
20
0.0
30
0.0
70
1
0
VERTEX
8
0
10
6.12
20
4.220000000000001
30
0
0
VERTEX
8
0
10
9.120000000000001
20
4.220000000000001
30
0
0
VERTEX
8
0
10
9.120000000000001
20
5.0200000000000005
30
0
0
VERTEX
8
0
10
6.12
20
5.0200000000000005
30
0
0
VERTEX
8
0
10
6.12
20
4.220000000000001
30
0
0
SEQEND
0
POLYLINE
66
1
8
1_copper
10
0.0
20
0.0
30
0.0
70
1
0
VERTEX
8
0
10
45.66593125
20
9.2204625
30
0
42
0.22156891824146976
0
VERTEX
8
0
10
45.723621875
20
9.248796875
30
0
0
VERTEX
8
0
10
50.455621875000006
20
15.1638
30
0
0
VERTEX
8
0
10
51.4034375
20
15.1638
30
0
0
VERTEX
8
0
10
52.071000000000005
20
14.496237500000001
30
0
0
VERTEX
8
0
10
52.071000000000005
20
13.336
30
0
0
VERTEX
8
0
10
53.339000000000006
20
13.336
30
0
0
VERTEX
8
0
10
53.339000000000006
20
14.604000000000001
30
0
0
VERTEX
8
0
10
52.178762500000005
20
14.604000000000001
30
0
0
VERTEX
8
0
10
51.488881250000006
20
15.29388125
30
0
42
0.198912367379658
0
VERTEX
8
0
10
51.435
20
15.3162
30
0
0
VERTEX
8
0
10
50.418996875000005
20
15.3162
30
0
42
0.22783610730912093
0
VERTEX
8
0
10
50.359493750000006
20
15.287603125
30
0
0
VERTEX
8
0
10
45.62749375
20
9.3726
30
0
0
VERTEX
8
0
10
39.4208
20
9.3726
30
0
0
VERTEX
8
0
10
39.30575
20
9.526
30
0
0
VERTEX
8
0
10
39.369
20
9.526
30
0
0
VERTEX
8
0
10
39.369
20
10.794
30
0
0
VERTEX
8
0
10
38.101
20
10.794
30
0
0
VERTEX
8
0
10
38.101
20
9.526
30
0
0
VERTEX
8
0
10
39.115253125
20
9.526
30
0
0
VERTEX
8
0
10
39.321740625000004
20
9.250681250000001
30
0
42
0.2360701423331224
0
VERTEX
8
0
10
39.3827
20
9.2202
30
0
0
VERTEX
8
0
10
45.66411875
20
9.2202
30
0
0
SEQEND
0
POLYLINE
66
1
8
1_copper
10
0.0
20
0.0
30
0.0
70
1
0
VERTEX
8
0
10
8.840671875
20
9.534534375
30
0
42
0.9243911672085697
0
VERTEX
8
0
10
8.755112500000001
20
11.712200000000001
30
0
0
VERTEX
8
0
10
6.4848875
20
11.712200000000001
30
0
42
0.9614815878281354
0
VERTEX
8
0
10
6.4848875
20
9.527800000000001
30
0
0
VERTEX
8
0
10
8.755112500000001
20
9.527800000000001
30
0
0
SEQEND
0
POLYLINE
66
1
8
16_copper
10
0.0
20
0.0
30
0.0
70
1
0
VERTEX
8
0
10
39.369
20
10.794
30
0
0
VERTEX
8
0
10
38.8112
20
10.794
30
0
0
VERTEX
8
0
10
38.8112
20
11.43
30
0
42
0.198912367379658
0
VERTEX
8
0
10
38.78888125
20
11.483881250000001
30
0
0
VERTEX
8
0
10
36.19808125
20
14.074681250000001
30
0
42
0.198912367379658
0
VERTEX
8
0
10
36.144200000000005
20
14.097000000000001
30
0
0
VERTEX
8
0
10
11.2268
20
14.097000000000001
30
0
42
0.198912367379658
0
VERTEX
8
0
10
11.172918750000001
20
14.074681250000001
30
0
0
VERTEX
8
0
10
8.8064
20
11.7081625
30
0
0
VERTEX
8
0
10
8.755112500000001
20
11.712200000000001
30
0
0
VERTEX
8
0
10
6.5278
20
11.712200000000001
30
0
0
VERTEX
8
0
10
6.5278
20
19.6788375
30
0
0
VERTEX
8
0
10
12.70308125
20
25.85411875
30
0
42
0.198912367379658
0
VERTEX
8
0
10
12.7254
20
25.908
30
0
0
VERTEX
8
0
10
12.7254
20
48.183800000000005
30
0
0
VERTEX
8
0
10
15.24
20
48.183800000000005
30
0
42
0.198912367379658
0
VERTEX
8
0
10
15.29388125
20
48.20611875
30
0
0
VERTEX
8
0
10
16.56388125
20
49.476118750000005
30
0
42
0.9999999999999999
0
VERTEX
8
0
10
16.45611875
20
49.583881250000005
30
0
0
VERTEX
8
0
10
15.2084375
20
48.336200000000005
30
0
0
VERTEX
8
0
10
12.6492
20
48.336200000000005
30
0
42
0.41421356237309503
0
VERTEX
8
0
10
12.573
20
48.260000000000005
30
0
0
VERTEX
8
0
10
12.573
20
25.9395625
30
0
0
VERTEX
8
0
10
6.39771875
20
19.76428125
30
0
42
0.198912367379658
0
VERTEX
8
0
10
6.3754
20
19.7104
30
0
0
VERTEX
8
0
10
6.3754
20
11.701675
30
0
42
0.9141681703974115
0
VERTEX
8
0
10
6.4848875
20
9.527800000000001
30
0
0
VERTEX
8
0
10
8.755112500000001
20
9.527800000000001
30
0
42
0.8616955042748488
0
VERTEX
8
0
10
8.990243750000001
20
11.67648125
30
0
0
VERTEX
8
0
10
11.2583625
20
13.944600000000001
30
0
0
VERTEX
8
0
10
36.112637500000005
20
13.944600000000001
30
0
0
VERTEX
8
0
10
38.6588
20
11.3984375
30
0
0
VERTEX
8
0
10
38.6588
20
10.794
30
0
0
VERTEX
8
0
10
38.101
20
10.794
30
0
0
VERTEX
8
0
10
38.101
20
9.526
30
0
0
VERTEX
8
0
10
39.369
20
9.526
30
0
0
SEQEND
0
POLYLINE
66
1
8
16_copper
10
0.0
20
0.0
30
0.0
70
1
0
VERTEX
8
0
10
53.339000000000006
20
14.604000000000001
30
0
0
VERTEX
8
0
10
52.071000000000005
20
14.604000000000001
30
0
0
VERTEX
8
0
10
52.071000000000005
20
13.336
30
0
0
VERTEX
8
0
10
53.339000000000006
20
13.336
30
0
0
SEQEND
0
POLYLINE
66
1
8
1_copper
10
0.0
20
0.0
30
0.0
70
1
0
VERTEX
8
0
10
8.840671875
20
3.5345343750000002
30
0
42
0.9243911672085697
0
VERTEX
8
0
10
8.755112500000001
20
5.7122
30
0
0
VERTEX
8
0
10
7.9535625
20
5.7122
30
0
0
VERTEX
8
0
10
9.7851625
20
7.5438
30
0
0
VERTEX
8
0
10
11.3278
20
7.5438
30
0
0
VERTEX
8
0
10
11.3278
20
6.4848875
30
0
42
0.9614815878281354
0
VERTEX
8
0
10
13.5122
20
6.4848875
30
0
0
VERTEX
8
0
10
13.5122
20
7.5438
30
0
0
VERTEX
8
0
10
48.006
20
7.5438
30
0
42
0.198912367379658
0
VERTEX
8
0
10
48.059881250000004
20
7.56611875
30
0
0
VERTEX
8
0
10
54.028881250000005
20
13.53511875
30
0
42
0.198912367379658
0
VERTEX
8
0
10
54.0512
20
13.589
30
0
0
VERTEX
8
0
10
54.0512
20
13.97
30
0
42
0.9999999999999999
0
VERTEX
8
0
10
53.8988
20
13.97
30
0
0
VERTEX
8
0
10
53.8988
20
13.6205625
30
0
0
VERTEX
8
0
10
47.9744375
20
7.6962
30
0
0
VERTEX
8
0
10
13.5122
20
7.6962
30
0
0
VERTEX
8
0
10
13.5122
20
8.755112500000001
30
0
42
0.7298695508598779
0
VERTEX
8
0
10
11.5062
20
9.311353125
30
0
0
VERTEX
8
0
10
11.5062
20
23.3872375
30
0
0
VERTEX
8
0
10
17.83388125
20
29.714918750000002
30
0
42
0.198912367379658
0
VERTEX
8
0
10
17.8562
20
29.768800000000002
30
0
0
VERTEX
8
0
10
17.8562
20
48.228437500000005
30
0
0
VERTEX
8
0
10
19.10388125
20
49.476118750000005
30
0
42
0.9999999999999999
0
VERTEX
8
0
10
18.99611875
20
49.583881250000005
30
0
0
VERTEX
8
0
10
17.72611875
20
48.31388125
30
0
42
0.198912367379658
0
VERTEX
8
0
10
17.7038
20
48.260000000000005
30
0
0
VERTEX
8
0
10
17.7038
20
29.800362500000002
30
0
0
VERTEX
8
0
10
11.37611875
20
23.47268125
30
0
42
0.198912367379658
0
VERTEX
8
0
10
11.3538
20
23.4188
30
0
0
VERTEX
8
0
10
11.3538
20
8.949765625000001
30
0
42
0.04502143992714507
0
VERTEX
8
0
10
11.3278
20
8.755112500000001
30
0
0
VERTEX
8
0
10
11.3278
20
7.6962
30
0
0
VERTEX
8
0
10
9.7536
20
7.6962
30
0
42
0.198912367379658
0
VERTEX
8
0
10
9.69971875
20
7.67388125
30
0
0
VERTEX
8
0
10
7.738037500000001
20
5.7122
30
0
0
VERTEX
8
0
10
6.4848875
20
5.7122
30
0
42
0.9614815878281354
0
VERTEX
8
0
10
6.4848875
20
3.5278
30
0
0
VERTEX
8
0
10
8.755112500000001
20
3.5278
30
0
0
SEQEND
0
POLYLINE
66
1
8
16_copper
10
0.0
20
0.0
30
0.0
70
1
0
VERTEX
8
0
10
12.548471875
20
5.442334375000001
30
0
42
0.3689198909650968
0
VERTEX
8
0
10
13.5122
20
6.4848875
30
0
0
VERTEX
8
0
10
13.5122
20
8.755112500000001
30
0
42
0.9614815878281354
0
VERTEX
8
0
10
11.3278
20
8.755112500000001
30
0
0
VERTEX
8
0
10
11.3278
20
6.4848875
30
0
0
VERTEX
8
0
10
11.334534375
20
6.399328125
30
0
0
VERTEX
8
0
10
11.347959375
20
6.314559375
30
0
0
VERTEX
8
0
10
11.367996875000001
20
6.231103125000001
30
0
0
VERTEX
8
0
10
11.394515625
20
6.149478125
30
0
0
VERTEX
8
0
10
11.427359375
20
6.0701875
30
0
0
VERTEX
8
0
10
11.466325000000001
20
5.993715625
30
0
0
VERTEX
8
0
10
11.511168750000001
20
5.9205375
30
0
0
VERTEX
8
0
10
11.561615625
20
5.851103125
30
0
0
VERTEX
8
0
10
11.617353125000001
20
5.7858406250000005
30
0
0
VERTEX
8
0
10
11.678040625000001
20
5.725153125
30
0
0
VERTEX
8
0
10
11.743303125
20
5.669415625
30
0
0
VERTEX
8
0
10
11.8127375
20
5.6189687500000005
30
0
0
VERTEX
8
0
10
11.885915625
20
5.574125
30
0
0
VERTEX
8
0
10
11.9623875
20
5.535159375
30
0
0
VERTEX
8
0
10
12.041678125
20
5.5023156250000005
30
0
0
VERTEX
8
0
10
12.123303125000001
20
5.475796875
30
0
0
VERTEX
8
0
10
12.206759375
20
5.455759375
30
0
0
VERTEX
8
0
10
12.291528125000001
20
5.442334375000001
30
0
0
VERTEX
8
0
10
12.3770875
20
5.4356
30
0
0
VERTEX
8
0
10
12.4629125
20
5.4356
30
0
0
SEQEND
0
POLYLINE
66
1
8
16_copper
10
0.0
20
0.0
30
0.0
70
1
0
VERTEX
8
0
10
8.840671875
20
3.5345343750000002
30
0
42
0.9243911672085697
0
VERTEX
8
0
10
8.755112500000001
20
5.7122
30
0
0
VERTEX
8
0
10
6.4848875
20
5.7122
30
0
42
0.9614815878281354
0
VERTEX
8
0
10
6.4848875
20
3.5278
30
0
0
VERTEX
8
0
10
8.755112500000001
20
3.5278
30
0
0
SEQEND
0
POLYLINE
66
1
8
1_copper
10
0.0
20
0.0
30
0.0
70
1
0
VERTEX
8
0
10
21.3325
20
13.7125
30
0
0
VERTEX
8
0
10
19.3075
20
13.7125
30
0
0
VERTEX
8
0
10
19.3075
20
12.776200000000001
30
0
0
VERTEX
8
0
10
19.1831625
20
12.776200000000001
30
0
0
VERTEX
8
0
10
15.417800000000002
20
16.5415625
30
0
0
VERTEX
8
0
10
15.417800000000002
20
22.9300375
30
0
0
VERTEX
8
0
10
16.56388125
20
24.076118750000003
30
0
42
0.9999999999999999
0
VERTEX
8
0
10
16.45611875
20
24.183881250000002
30
0
0
VERTEX
8
0
10
15.287718750000002
20
23.01548125
30
0
42
0.198912367379658
0
VERTEX
8
0
10
15.265400000000001
20
22.9616
30
0
0
VERTEX
8
0
10
15.265400000000001
20
16.51
30
0
42
0.198912367379658
0
VERTEX
8
0
10
15.287718750000002
20
16.45611875
30
0
0
VERTEX
8
0
10
19.097718750000002
20
12.646118750000001
30
0
42
0.198912367379658
0
VERTEX
8
0
10
19.151600000000002
20
12.623800000000001
30
0
0
VERTEX
8
0
10
19.3075
20
12.623800000000001
30
0
0
VERTEX
8
0
10
19.3075
20
11.6875
30
0
0
VERTEX
8
0
10
21.3325
20
11.6875
30
0
0
SEQEND
0
POLYLINE
66
1
8
16_copper
10
0.0
20
0.0
30
0.0
70
1
0
VERTEX
8
0
10
21.3325
20
13.7125
30
0
0
VERTEX
8
0
10
19.3075
20
13.7125
30
0
0
VERTEX
8
0
10
19.3075
20
11.6875
30
0
0
VERTEX
8
0
10
21.3325
20
11.6875
30
0
0
SEQEND
0
POLYLINE
66
1
8
1_copper
10
0.0
20
0.0
30
0.0
70
1
0
VERTEX
8
0
10
23.848584375
20
12.629365625
30
0
42
0.2916566899013216
0
VERTEX
8
0
10
23.8961
20
12.696106250000001
30
0
0
VERTEX
8
0
10
23.968309375
20
14.106946875
30
0
0
VERTEX
8
0
10
25.453881250000002
20
15.59251875
30
0
42
0.198912367379658
0
VERTEX
8
0
10
25.476200000000002
20
15.6464
30
0
0
VERTEX
8
0
10
25.476200000000002
20
22.8284375
30
0
0
VERTEX
8
0
10
26.72388125
20
24.076118750000003
30
0
42
0.9999999999999999
0
VERTEX
8
0
10
26.616118750000002
20
24.183881250000002
30
0
0
VERTEX
8
0
10
25.346118750000002
20
22.913881250000003
30
0
42
0.198912367379658
0
VERTEX
8
0
10
25.323800000000002
20
22.86
30
0
0
VERTEX
8
0
10
25.323800000000002
20
15.677962500000001
30
0
0
VERTEX
8
0
10
23.839825
20
14.1939875
30
0
42
0.1856592542040336
0
VERTEX
8
0
10
23.81760625
20
14.144
30
0
0
VERTEX
8
0
10
23.7439
20
12.70389375
30
0
0
VERTEX
8
0
10
23.745903125
20
12.68221875
30
0
0
VERTEX
8
0
10
23.753953125000002
20
12.661996875
30
0
0
VERTEX
8
0
10
23.76739375
20
12.644875
30
0
0
VERTEX
8
0
10
23.785125
20
12.63225
30
0
0
VERTEX
8
0
10
23.805703125
20
12.625153125
30
0
0
VERTEX
8
0
10
23.827446875
20
12.624165625
30
0
0
SEQEND
0
POLYLINE
66
1
8
16_copper
10
0.0
20
0.0
30
0.0
70
1
0
VERTEX
8
0
10
41.286315625
20
10.08464375
30
0
42
0.3712023256762844
0
VERTEX
8
0
10
41.3512
20
10.16
30
0
0
VERTEX
8
0
10
41.3512
20
10.668000000000001
30
0
42
0.3066784415588851
0
VERTEX
8
0
10
41.3033
20
10.738750000000001
30
0
0
VERTEX
8
0
10
40.208200000000005
20
11.176790625
30
0
0
VERTEX
8
0
10
40.208200000000005
20
13.379637500000001
30
0
0
VERTEX
8
0
10
49.583881250000005
20
22.75531875
30
0
42
0.198912367379658
0
VERTEX
8
0
10
49.6062
20
22.8092
30
0
0
VERTEX
8
0
10
49.6062
20
24.130000000000003
30
0
42
0.9999999999999999
0
VERTEX
8
0
10
49.4538
20
24.130000000000003
30
0
0
VERTEX
8
0
10
49.4538
20
22.8407625
30
0
0
VERTEX
8
0
10
40.07811875
20
13.46508125
30
0
42
0.198912367379658
0
VERTEX
8
0
10
40.055800000000005
20
13.411200000000001
30
0
0
VERTEX
8
0
10
40.055800000000005
20
11.125200000000001
30
0
42
0.3066784415588851
0
VERTEX
8
0
10
40.1037
20
11.054450000000001
30
0
0
VERTEX
8
0
10
41.1988
20
10.616409375
30
0
0
VERTEX
8
0
10
41.1988
20
10.16
30
0
0
VERTEX
8
0
10
41.201909375
20
10.13845625
30
0
0
VERTEX
8
0
10
41.21098125
20
10.118668750000001
30
0
0
VERTEX
8
0
10
41.225278125
20
10.10225625
30
0
0
VERTEX
8
0
10
41.243634375
20
10.09055625
30
0
0
VERTEX
8
0
10
41.264546875
20
10.08451875
30
0
0
SEQEND
0
POLYLINE
66
1
8
1_copper
10
0.0
20
0.0
30
0.0
70
1
0
VERTEX
8
0
10
42.56189375
20
10.085696875
30
0
42
0.14139007296259895
0
VERTEX
8
0
10
42.598881250000005
20
10.10611875
30
0
0
VERTEX
8
0
10
43.79268125
20
11.29991875
30
0
42
0.198912367379658
0
VERTEX
8
0
10
43.815000000000005
20
11.3538
30
0
0
VERTEX
8
0
10
43.815000000000005
20
18.4404
30
0
42
0.198912367379658
0
VERTEX
8
0
10
43.79268125
20
18.49428125
30
0
0
VERTEX
8
0
10
41.986200000000004
20
20.3007625
30
0
0
VERTEX
8
0
10
41.986200000000004
20
24.130000000000003
30
0
42
0.9999999999999999
0
VERTEX
8
0
10
41.833800000000004
20
24.130000000000003
30
0
0
VERTEX
8
0
10
41.833800000000004
20
20.2692
30
0
42
0.198912367379658
0
VERTEX
8
0
10
41.85611875
20
20.21531875
30
0
0
VERTEX
8
0
10
43.662600000000005
20
18.4088375
30
0
0
VERTEX
8
0
10
43.662600000000005
20
11.385362500000001
30
0
0
VERTEX
8
0
10
42.491118750000005
20
10.21388125
30
0
0
VERTEX
8
0
10
42.478084375
20
10.19645
30
0
0
VERTEX
8
0
10
42.470509375
20
10.17604375
30
0
0
VERTEX
8
0
10
42.469012500000005
20
10.154328125000001
30
0
0
VERTEX
8
0
10
42.473715625000004
20
10.133075
30
0
0
VERTEX
8
0
10
42.4842375
20
10.11401875
30
0
0
VERTEX
8
0
10
42.499715625
20
10.098715625
30
0
0
VERTEX
8
0
10
42.518890625000004
20
10.0884125
30
0
0
VERTEX
8
0
10
42.540196875
20
10.083953125
30
0
0
SEQEND
0
POLYLINE
66
1
8
1_copper
10
0.0
20
0.0
30
0.0
70
1
0
VERTEX
8
0
10
56.526315625
20
13.89464375
30
0
42
0.3712023256762844
0
VERTEX
8
0
10
56.5912
20
13.97
30
0
0
VERTEX
8
0
10
56.5912
20
15.367021875
30
0
42
0.198912367379658
0
VERTEX
8
0
10
56.568881250000004
20
15.420903125
30
0
0
VERTEX
8
0
10
48.336200000000005
20
23.653584375
30
0
0
VERTEX
8
0
10
48.336200000000005
20
40.64
30
0
42
0.198912367379658
0
VERTEX
8
0
10
48.31388125
20
40.693881250000004
30
0
0
VERTEX
8
0
10
44.5262
20
44.4815625
30
0
0
VERTEX
8
0
10
44.5262
20
49.53
30
0
42
0.9999999999999999
0
VERTEX
8
0
10
44.3738
20
49.53
30
0
0
VERTEX
8
0
10
44.3738
20
44.45
30
0
42
0.198912367379658
0
VERTEX
8
0
10
44.39611875
20
44.39611875
30
0
0
VERTEX
8
0
10
48.183800000000005
20
40.6084375
30
0
0
VERTEX
8
0
10
48.183800000000005
20
23.622021875
30
0
42
0.198912367379658
0
VERTEX
8
0
10
48.20611875
20
23.568140625
30
0
0
VERTEX
8
0
10
56.4388
20
15.335459375000001
30
0
0
VERTEX
8
0
10
56.4388
20
13.97
30
0
0
VERTEX
8
0
10
56.441909375
20
13.948456250000001
30
0
0
VERTEX
8
0
10
56.450981250000005
20
13.92866875
30
0
0
VERTEX
8
0
10
56.465278125000005
20
13.91225625
30
0
0
VERTEX
8
0
10
56.483634375
20
13.900556250000001
30
0
0
VERTEX
8
0
10
56.504546875
20
13.894518750000001
30
0
0
SEQEND
0
POLYLINE
66
1
8
1_copper
10
0.0
20
0.0
30
0.0
70
1
0
VERTEX
8
0
10
40.031925
20
10.088715625
30
0
42
0.544696051737082
0
VERTEX
8
0
10
40.05888125
20
10.21388125
30
0
0
VERTEX
8
0
10
38.839681250000005
20
11.43308125
30
0
42
0.198912367379658
0
VERTEX
8
0
10
38.7858
20
11.455400000000001
30
0
0
VERTEX
8
0
10
27.65258125
20
11.455400000000001
30
0
0
VERTEX
8
0
10
27.394653125
20
12.715284375000001
30
0
42
0.9999999999999999
0
VERTEX
8
0
10
27.245346875000003
20
12.684715625
30
0
0
VERTEX
8
0
10
27.515746875
20
11.363915625
30
0
42
0.35622779197269894
0
VERTEX
8
0
10
27.590400000000002
20
11.303
30
0
0
VERTEX
8
0
10
38.7542375
20
11.303
30
0
0
VERTEX
8
0
10
39.95111875
20
10.10611875
30
0
0
VERTEX
8
0
10
39.96855
20
10.093084375
30
0
0
VERTEX
8
0
10
39.98895625
20
10.085509375
30
0
0
VERTEX
8
0
10
40.010671875
20
10.0840125
30
0
0
SEQEND
0
POLYLINE
66
1
8
16_copper
10
0.0
20
0.0
30
0.0
70
1
0
VERTEX
8
0
10
27.346925000000002
20
12.628715625
30
0
42
0.544696051737082
0
VERTEX
8
0
10
27.37388125
20
12.753881250000001
30
0
0
VERTEX
8
0
10
25.45001875
20
14.677743750000001
30
0
42
0.04111007822237287
0
VERTEX
8
0
10
25.440478125000002
20
14.685834375
30
0
0
VERTEX
8
0
10
19.1262
20
19.20365625
30
0
0
VERTEX
8
0
10
19.1262
20
24.130000000000003
30
0
42
0.9999999999999999
0
VERTEX
8
0
10
18.9738
20
24.130000000000003
30
0
0
VERTEX
8
0
10
18.9738
20
19.164478125000002
30
0
42
0.24200136407824677
0
VERTEX
8
0
10
19.005659375
20
19.10250625
30
0
0
VERTEX
8
0
10
25.346700000000002
20
14.565537500000001
30
0
0
VERTEX
8
0
10
27.26611875
20
12.646118750000001
30
0
0
VERTEX
8
0
10
27.28355
20
12.633084375000001
30
0
0
VERTEX
8
0
10
27.303956250000002
20
12.625509375
30
0
0
VERTEX
8
0
10
27.325671875
20
12.624012500000001
30
0
0
SEQEND
0
CIRCLE
8
drills_PTH
10
20.32
20
12.700000000000001
30
0
40
0.675
0
CIRCLE
8
drills_PTH
10
23.82
20
12.700000000000001
30
0
40
0.675
0
CIRCLE
8
drills_PTH
10
27.32
20
12.700000000000001
30
0
40
0.675
0
CIRCLE
8
drills_PTH
10
24.130000000000003
20
24.130000000000003
30
0
40
0.5
0
CIRCLE
8
drills_PTH
10
26.67
20
24.130000000000003
30
0
40
0.5
0
CIRCLE
8
drills_PTH
10
29.21
20
24.130000000000003
30
0
40
0.5
0
CIRCLE
8
drills_PTH
10
31.75
20
24.130000000000003
30
0
40
0.5
0
CIRCLE
8
drills_PTH
10
34.29
20
24.130000000000003
30
0
40
0.5
0
CIRCLE
8
drills_PTH
10
36.83
20
24.130000000000003
30
0
40
0.5
0
CIRCLE
8
drills_PTH
10
39.370000000000005
20
24.130000000000003
30
0
40
0.5
0
CIRCLE
8
drills_PTH
10
41.910000000000004
20
24.130000000000003
30
0
40
0.5
0
CIRCLE
8
drills_PTH
10
44.45
20
24.130000000000003
30
0
40
0.5
0
CIRCLE
8
drills_PTH
10
46.99
20
24.130000000000003
30
0
40
0.5
0
CIRCLE
8
drills_PTH
10
49.53
20
24.130000000000003
30
0
40
0.5
0
CIRCLE
8
drills_PTH
10
52.07
20
24.130000000000003
30
0
40
0.5
0
CIRCLE
8
drills_PTH
10
16.51
20
49.53
30
0
40
0.5
0
CIRCLE
8
drills_PTH
10
19.05
20
49.53
30
0
40
0.5
0
CIRCLE
8
drills_PTH
10
21.59
20
49.53
30
0
40
0.5
0
CIRCLE
8
drills_PTH
10
24.130000000000003
20
49.53
30
0
40
0.5
0
CIRCLE
8
drills_PTH
10
26.67
20
49.53
30
0
40
0.5
0
CIRCLE
8
drills_PTH
10
29.21
20
49.53
30
0
40
0.5
0
CIRCLE
8
drills_PTH
10
31.75
20
49.53
30
0
40
0.5
0
CIRCLE
8
drills_PTH
10
34.29
20
49.53
30
0
40
0.5
0
CIRCLE
8
drills_PTH
10
36.83
20
49.53
30
0
40
0.5
0
CIRCLE
8
drills_PTH
10
39.370000000000005
20
49.53
30
0
40
0.5
0
CIRCLE
8
drills_PTH
10
41.910000000000004
20
49.53
30
0
40
0.5
0
CIRCLE
8
drills_PTH
10
44.45
20
49.53
30
0
40
0.5
0
CIRCLE
8
drills_PTH
10
46.99
20
49.53
30
0
40
0.5
0
CIRCLE
8
drills_PTH
10
49.53
20
49.53
30
0
40
0.5
0
CIRCLE
8
drills_PTH
10
52.07
20
49.53
30
0
40
0.5
0
CIRCLE
8
drills_PTH
10
7.62
20
10.620000000000001
30
0
40
0.5
0
CIRCLE
8
drills_PTH
10
16.51
20
24.130000000000003
30
0
40
0.5
0
CIRCLE
8
drills_PTH
10
19.05
20
24.130000000000003
30
0
40
0.5
0
CIRCLE
8
drills_PTH
10
21.59
20
24.130000000000003
30
0
40
0.5
0
CIRCLE
8
drills_PTH
10
12.42
20
7.62
30
0
40
0.4
0
CIRCLE
8
drills_PTH
10
7.62
20
4.62
30
0
40
0.4
0
CIRCLE
8
drills_PTH
10
38.735
20
10.16
30
0
40
0.38
0
CIRCLE
8
drills_PTH
10
40.005
20
10.16
30
0
40
0.38
0
CIRCLE
8
drills_PTH
10
41.275
20
10.16
30
0
40
0.38
0
CIRCLE
8
drills_PTH
10
42.545
20
10.16
30
0
40
0.38
0
CIRCLE
8
drills_PTH
10
52.705000000000005
20
13.97
30
0
40
0.38
0
CIRCLE
8
drills_PTH
10
53.975
20
13.97
30
0
40
0.38
0
CIRCLE
8
drills_PTH
10
55.245000000000005
20
13.97
30
0
40
0.38
0
CIRCLE
8
drills_PTH
10
56.515
20
13.97
30
0
40
0.38
0
ENDSEC
0
EOF