0
SECTION
2
HEADER
9
$ANGDIR
70
1
9
$AUNITS
70
0
9
$PROJECTNAME
1
Water flow
9
$TDCREATE
40
2459954.88599411
9
$INSUNITS
70
4
0
ENDSEC
0
SECTION
2
ENTITIES
0
POLYLINE
66
1
8
outline
10
0.0
20
0.0
30
0.0
70
1
0
VERTEX
8
0
10
0
20
0
30
0
0
VERTEX
8
0
10
64.44
20
0
30
0
0
VERTEX
8
0
10
64.44
20
102.86
30
0
0
VERTEX
8
0
10
0
20
102.86
30
0
0
VERTEX
8
0
10
0
20
0
30
0
0
SEQEND
0
POLYLINE
66
1
8
holes
10
0.0
20
0.0
30
0.0
70
1
0
VERTEX
8
0
10
7.930000000000001
20
21.46
30
0
0
VERTEX
8
0
10
8.93
20
21.46
30
0
0
VERTEX
8
0
10
8.93
20
24.26
30
0
0
VERTEX
8
0
10
7.930000000000001
20
24.26
30
0
0
VERTEX
8
0
10
7.930000000000001
20
21.46
30
0
0
SEQEND
0
POLYLINE
66
1
8
holes
10
0.0
20
0.0
30
0.0
70
1
0
VERTEX
8
0
10
14.030000000000001
20
21.21
30
0
0
VERTEX
8
0
10
15.030000000000001
20
21.21
30
0
0
VERTEX
8
0
10
15.030000000000001
20
24.51
30
0
0
VERTEX
8
0
10
14.030000000000001
20
24.51
30
0
0
VERTEX
8
0
10
14.030000000000001
20
21.21
30
0
0
SEQEND
0
POLYLINE
66
1
8
holes
10
0.0
20
0.0
30
0.0
70
1
0
VERTEX
8
0
10
10.030000000000001
20
17.560000000000002
30
0
0
VERTEX
8
0
10
12.83
20
17.560000000000002
30
0
0
VERTEX
8
0
10
12.83
20
18.560000000000002
30
0
0
VERTEX
8
0
10
10.030000000000001
20
18.560000000000002
30
0
0
VERTEX
8
0
10
10.030000000000001
20
17.560000000000002
30
0
0
SEQEND
0
POLYLINE
66
1
8
holes
10
0.0
20
0.0
30
0.0
70
1
0
VERTEX
8
0
10
63.67100000000001
20
1.24214375
30
0
0
VERTEX
8
0
10
63.663728125000006
20
1.1869093750000002
30
0
0
VERTEX
8
0
10
63.649309375
20
1.13309375
30
0
0
VERTEX
8
0
10
63.6279875
20
1.081625
30
0
0
VERTEX
8
0
10
63.600131250000004
20
1.0333750000000002
30
0
0
VERTEX
8
0
10
63.566218750000004
20
0.989178125
30
0
0
VERTEX
8
0
10
63.526821875
20
0.94978125
30
0
0
VERTEX
8
0
10
63.482625000000006
20
0.91586875
30
0
0
VERTEX
8
0
10
63.434375
20
0.8880125000000001
30
0
0
VERTEX
8
0
10
63.382906250000005
20
0.866690625
30
0
0
VERTEX
8
0
10
63.329090625000006
20
0.852271875
30
0
0
VERTEX
8
0
10
63.27385625
20
0.8450000000000001
30
0
0
VERTEX
8
0
10
63.21814375
20
0.8450000000000001
30
0
0
VERTEX
8
0
10
63.162909375000005
20
0.852271875
30
0
0
VERTEX
8
0
10
63.10909375
20
0.866690625
30
0
0
VERTEX
8
0
10
63.057625
20
0.8880125000000001
30
0
0
VERTEX
8
0
10
63.009375000000006
20
0.91586875
30
0
0
VERTEX
8
0
10
62.965178125
20
0.94978125
30
0
0
VERTEX
8
0
10
62.92578125
20
0.989178125
30
0
0
VERTEX
8
0
10
62.89186875
20
1.0333750000000002
30
0
0
VERTEX
8
0
10
62.8640125
20
1.081625
30
0
0
VERTEX
8
0
10
62.842690625
20
1.13309375
30
0
0
VERTEX
8
0
10
62.828271875000006
20
1.1869093750000002
30
0
0
VERTEX
8
0
10
62.821000000000005
20
1.24214375
30
0
0
VERTEX
8
0
10
62.821000000000005
20
1.2978562500000002
30
0
0
VERTEX
8
0
10
62.828271875000006
20
1.353090625
30
0
0
VERTEX
8
0
10
62.842690625
20
1.40690625
30
0
0
VERTEX
8
0
10
62.8640125
20
1.458375
30
0
0
VERTEX
8
0
10
62.89186875
20
1.506625
30
0
0
VERTEX
8
0
10
62.92578125
20
1.550821875
30
0
0
VERTEX
8
0
10
62.965178125
20
1.59021875
30
0
0
VERTEX
8
0
10
63.009375000000006
20
1.62413125
30
0
0
VERTEX
8
0
10
63.057625
20
1.6519875000000002
30
0
0
VERTEX
8
0
10
63.10909375
20
1.673309375
30
0
0
VERTEX
8
0
10
63.162909375000005
20
1.687728125
30
0
0
VERTEX
8
0
10
63.21814375
20
1.695
30
0
0
VERTEX
8
0
10
63.27385625
20
1.695
30
0
0
VERTEX
8
0
10
63.329090625000006
20
1.687728125
30
0
0
VERTEX
8
0
10
63.382906250000005
20
1.673309375
30
0
0
VERTEX
8
0
10
63.434375
20
1.6519875000000002
30
0
0
VERTEX
8
0
10
63.482625000000006
20
1.62413125
30
0
0
VERTEX
8
0
10
63.526821875
20
1.59021875
30
0
0
VERTEX
8
0
10
63.566218750000004
20
1.550821875
30
0
0
VERTEX
8
0
10
63.600131250000004
20
1.506625
30
0
0
VERTEX
8
0
10
63.6279875
20
1.458375
30
0
0
VERTEX
8
0
10
63.649309375
20
1.40690625
30
0
0
VERTEX
8
0
10
63.663728125000006
20
1.353090625
30
0
0
VERTEX
8
0
10
63.67100000000001
20
1.2978562500000002
30
0
0
VERTEX
8
0
10
63.67100000000001
20
1.24214375
30
0
0
SEQEND
0
POLYLINE
66
1
8
holes
10
0.0
20
0.0
30
0.0
70
1
0
VERTEX
8
0
10
1.441
20
1.24214375
30
0
0
VERTEX
8
0
10
1.433728125
20
1.1869093750000002
30
0
0
VERTEX
8
0
10
1.419309375
20
1.13309375
30
0
0
VERTEX
8
0
10
1.3979875000000002
20
1.081625
30
0
0
VERTEX
8
0
10
1.37013125
20
1.0333750000000002
30
0
0
VERTEX
8
0
10
1.33621875
20
0.989178125
30
0
0
VERTEX
8
0
10
1.296821875
20
0.94978125
30
0
0
VERTEX
8
0
10
1.252625
20
0.91586875
30
0
0
VERTEX
8
0
10
1.204375
20
0.8880125000000001
30
0
0
VERTEX
8
0
10
1.15290625
20
0.866690625
30
0
0
VERTEX
8
0
10
1.099090625
20
0.852271875
30
0
0
VERTEX
8
0
10
1.0438562500000002
20
0.8450000000000001
30
0
0
VERTEX
8
0
10
0.9881437500000001
20
0.8450000000000001
30
0
0
VERTEX
8
0
10
0.932909375
20
0.852271875
30
0
0
VERTEX
8
0
10
0.87909375
20
0.866690625
30
0
0
VERTEX
8
0
10
0.827625
20
0.8880125000000001
30
0
0
VERTEX
8
0
10
0.779375
20
0.91586875
30
0
0
VERTEX
8
0
10
0.735178125
20
0.94978125
30
0
0
VERTEX
8
0
10
0.69578125
20
0.989178125
30
0
0
VERTEX
8
0
10
0.66186875
20
1.0333750000000002
30
0
0
VERTEX
8
0
10
0.6340125
20
1.081625
30
0
0
VERTEX
8
0
10
0.612690625
20
1.13309375
30
0
0
VERTEX
8
0
10
0.598271875
20
1.1869093750000002
30
0
0
VERTEX
8
0
10
0.5910000000000001
20
1.24214375
30
0
0
VERTEX
8
0
10
0.5910000000000001
20
1.2978562500000002
30
0
0
VERTEX
8
0
10
0.598271875
20
1.353090625
30
0
0
VERTEX
8
0
10
0.612690625
20
1.40690625
30
0
0
VERTEX
8
0
10
0.6340125
20
1.458375
30
0
0
VERTEX
8
0
10
0.66186875
20
1.506625
30
0
0
VERTEX
8
0
10
0.69578125
20
1.550821875
30
0
0
VERTEX
8
0
10
0.735178125
20
1.59021875
30
0
0
VERTEX
8
0
10
0.779375
20
1.62413125
30
0
0
VERTEX
8
0
10
0.827625
20
1.6519875000000002
30
0
0
VERTEX
8
0
10
0.87909375
20
1.673309375
30
0
0
VERTEX
8
0
10
0.932909375
20
1.687728125
30
0
0
VERTEX
8
0
10
0.9881437500000001
20
1.695
30
0
0
VERTEX
8
0
10
1.0438562500000002
20
1.695
30
0
0
VERTEX
8
0
10
1.099090625
20
1.687728125
30
0
0
VERTEX
8
0
10
1.15290625
20
1.673309375
30
0
0
VERTEX
8
0
10
1.204375
20
1.6519875000000002
30
0
0
VERTEX
8
0
10
1.252625
20
1.62413125
30
0
0
VERTEX
8
0
10
1.296821875
20
1.59021875
30
0
0
VERTEX
8
0
10
1.33621875
20
1.550821875
30
0
0
VERTEX
8
0
10
1.37013125
20
1.506625
30
0
0
VERTEX
8
0
10
1.3979875000000002
20
1.458375
30
0
0
VERTEX
8
0
10
1.419309375
20
1.40690625
30
0
0
VERTEX
8
0
10
1.433728125
20
1.353090625
30
0
0
VERTEX
8
0
10
1.441
20
1.2978562500000002
30
0
0
VERTEX
8
0
10
1.441
20
1.24214375
30
0
0
SEQEND
0
POLYLINE
66
1
8
holes
10
0.0
20
0.0
30
0.0
70
1
0
VERTEX
8
0
10
63.67100000000001
20
101.57214375000001
30
0
0
VERTEX
8
0
10
63.663728125000006
20
101.51690937500001
30
0
0
VERTEX
8
0
10
63.649309375
20
101.46309375
30
0
0
VERTEX
8
0
10
63.6279875
20
101.411625
30
0
0
VERTEX
8
0
10
63.600131250000004
20
101.363375
30
0
0
VERTEX
8
0
10
63.566218750000004
20
101.31917812500001
30
0
0
VERTEX
8
0
10
63.526821875
20
101.27978125
30
0
0
VERTEX
8
0
10
63.482625000000006
20
101.24586875
30
0
0
VERTEX
8
0
10
63.434375
20
101.2180125
30
0
0
VERTEX
8
0
10
63.382906250000005
20
101.196690625
30
0
0
VERTEX
8
0
10
63.329090625000006
20
101.182271875
30
0
0
VERTEX
8
0
10
63.27385625
20
101.17500000000001
30
0
0
VERTEX
8
0
10
63.21814375
20
101.17500000000001
30
0
0
VERTEX
8
0
10
63.162909375000005
20
101.182271875
30
0
0
VERTEX
8
0
10
63.10909375
20
101.196690625
30
0
0
VERTEX
8
0
10
63.057625
20
101.2180125
30
0
0
VERTEX
8
0
10
63.009375000000006
20
101.24586875
30
0
0
VERTEX
8
0
10
62.965178125
20
101.27978125
30
0
0
VERTEX
8
0
10
62.92578125
20
101.31917812500001
30
0
0
VERTEX
8
0
10
62.89186875
20
101.363375
30
0
0
VERTEX
8
0
10
62.8640125
20
101.411625
30
0
0
VERTEX
8
0
10
62.842690625
20
101.46309375
30
0
0
VERTEX
8
0
10
62.828271875000006
20
101.51690937500001
30
0
0
VERTEX
8
0
10
62.821000000000005
20
101.57214375000001
30
0
0
VERTEX
8
0
10
62.821000000000005
20
101.62785625000001
30
0
0
VERTEX
8
0
10
62.828271875000006
20
101.683090625
30
0
0
VERTEX
8
0
10
62.842690625
20
101.73690625
30
0
0
VERTEX
8
0
10
62.8640125
20
101.788375
30
0
0
VERTEX
8
0
10
62.89186875
20
101.836625
30
0
0
VERTEX
8
0
10
62.92578125
20
101.88082187500001
30
0
0
VERTEX
8
0
10
62.965178125
20
101.92021875
30
0
0
VERTEX
8
0
10
63.009375000000006
20
101.95413125
30
0
0
VERTEX
8
0
10
63.057625
20
101.9819875
30
0
0
VERTEX
8
0
10
63.10909375
20
102.003309375
30
0
0
VERTEX
8
0
10
63.162909375000005
20
102.017728125
30
0
0
VERTEX
8
0
10
63.21814375
20
102.025
30
0
0
VERTEX
8
0
10
63.27385625
20
102.025
30
0
0
VERTEX
8
0
10
63.329090625000006
20
102.017728125
30
0
0
VERTEX
8
0
10
63.382906250000005
20
102.003309375
30
0
0
VERTEX
8
0
10
63.434375
20
101.9819875
30
0
0
VERTEX
8
0
10
63.482625000000006
20
101.95413125
30
0
0
VERTEX
8
0
10
63.526821875
20
101.92021875
30
0
0
VERTEX
8
0
10
63.566218750000004
20
101.88082187500001
30
0
0
VERTEX
8
0
10
63.600131250000004
20
101.836625
30
0
0
VERTEX
8
0
10
63.6279875
20
101.788375
30
0
0
VERTEX
8
0
10
63.649309375
20
101.73690625
30
0
0
VERTEX
8
0
10
63.663728125000006
20
101.683090625
30
0
0
VERTEX
8
0
10
63.67100000000001
20
101.62785625000001
30
0
0
VERTEX
8
0
10
63.67100000000001
20
101.57214375000001
30
0
0
SEQEND
0
POLYLINE
66
1
8
holes
10
0.0
20
0.0
30
0.0
70
1
0
VERTEX
8
0
10
1.441
20
101.57214375000001
30
0
0
VERTEX
8
0
10
1.433728125
20
101.51690937500001
30
0
0
VERTEX
8
0
10
1.419309375
20
101.46309375
30
0
0
VERTEX
8
0
10
1.3979875000000002
20
101.411625
30
0
0
VERTEX
8
0
10
1.37013125
20
101.363375
30
0
0
VERTEX
8
0
10
1.33621875
20
101.31917812500001
30
0
0
VERTEX
8
0
10
1.296821875
20
101.27978125
30
0
0
VERTEX
8
0
10
1.252625
20
101.24586875
30
0
0
VERTEX
8
0
10
1.204375
20
101.2180125
30
0
0
VERTEX
8
0
10
1.15290625
20
101.196690625
30
0
0
VERTEX
8
0
10
1.099090625
20
101.182271875
30
0
0
VERTEX
8
0
10
1.0438562500000002
20
101.17500000000001
30
0
0
VERTEX
8
0
10
0.9881437500000001
20
101.17500000000001
30
0
0
VERTEX
8
0
10
0.932909375
20
101.182271875
30
0
0
VERTEX
8
0
10
0.87909375
20
101.196690625
30
0
0
VERTEX
8
0
10
0.827625
20
101.2180125
30
0
0
VERTEX
8
0
10
0.779375
20
101.24586875
30
0
0
VERTEX
8
0
10
0.735178125
20
101.27978125
30
0
0
VERTEX
8
0
10
0.69578125
20
101.31917812500001
30
0
0
VERTEX
8
0
10
0.66186875
20
101.363375
30
0
0
VERTEX
8
0
10
0.6340125
20
101.411625
30
0
0
VERTEX
8
0
10
0.612690625
20
101.46309375
30
0
0
VERTEX
8
0
10
0.598271875
20
101.51690937500001
30
0
0
VERTEX
8
0
10
0.5910000000000001
20
101.57214375000001
30
0
0
VERTEX
8
0
10
0.5910000000000001
20
101.62785625000001
30
0
0
VERTEX
8
0
10
0.598271875
20
101.683090625
30
0
0
VERTEX
8
0
10
0.612690625
20
101.73690625
30
0
0
VERTEX
8
0
10
0.6340125
20
101.788375
30
0
0
VERTEX
8
0
10
0.66186875
20
101.836625
30
0
0
VERTEX
8
0
10
0.69578125
20
101.88082187500001
30
0
0
VERTEX
8
0
10
0.735178125
20
101.92021875
30
0
0
VERTEX
8
0
10
0.779375
20
101.95413125
30
0
0
VERTEX
8
0
10
0.827625
20
101.9819875
30
0
0
VERTEX
8
0
10
0.87909375
20
102.003309375
30
0
0
VERTEX
8
0
10
0.932909375
20
102.017728125
30
0
0
VERTEX
8
0
10
0.9881437500000001
20
102.025
30
0
0
VERTEX
8
0
10
1.0438562500000002
20
102.025
30
0
0
VERTEX
8
0
10
1.099090625
20
102.017728125
30
0
0
VERTEX
8
0
10
1.15290625
20
102.003309375
30
0
0
VERTEX
8
0
10
1.204375
20
101.9819875
30
0
0
VERTEX
8
0
10
1.252625
20
101.95413125
30
0
0
VERTEX
8
0
10
1.296821875
20
101.92021875
30
0
0
VERTEX
8
0
10
1.33621875
20
101.88082187500001
30
0
0
VERTEX
8
0
10
1.37013125
20
101.836625
30
0
0
VERTEX
8
0
10
1.3979875000000002
20
101.788375
30
0
0
VERTEX
8
0
10
1.419309375
20
101.73690625
30
0
0
VERTEX
8
0
10
1.433728125
20
101.683090625
30
0
0
VERTEX
8
0
10
1.441
20
101.62785625000001
30
0
0
VERTEX
8
0
10
1.441
20
101.57214375000001
30
0
0
SEQEND
0
POLYLINE
66
1
8
1_copper
10
0.0
20
0.0
30
0.0
70
1
0
VERTEX
8
0
10
36.94194375
20
69.60333750000001
30
0
42
0.3578057741447831
0
VERTEX
8
0
10
37.592
20
70.320565625
30
0
0
VERTEX
8
0
10
37.592
20
71.91943437500001
30
0
0
VERTEX
8
0
10
37.5846625
20
71.99394375
30
0
42
0.9063472543261978
0
VERTEX
8
0
10
36.068000000000005
20
71.91943437500001
30
0
0
VERTEX
8
0
10
36.068000000000005
20
70.320565625
30
0
0
VERTEX
8
0
10
36.0753375
20
70.24605625000001
30
0
42
0.38574240611503685
0
VERTEX
8
0
10
36.867434375
20
69.596
30
0
0
SEQEND
0
POLYLINE
66
1
8
1_copper
10
0.0
20
0.0
30
0.0
70
1
0
VERTEX
8
0
10
36.94194375
20
31.5033375
30
0
42
0.3578057741447831
0
VERTEX
8
0
10
37.592
20
32.220565625
30
0
0
VERTEX
8
0
10
37.592
20
33.819434375
30
0
0
VERTEX
8
0
10
37.5846625
20
33.89394375
30
0
42
0.9063472543261978
0
VERTEX
8
0
10
36.068000000000005
20
33.819434375
30
0
0
VERTEX
8
0
10
36.068000000000005
20
32.220565625
30
0
0
VERTEX
8
0
10
36.0753375
20
32.14605625
30
0
42
0.38574240611503685
0
VERTEX
8
0
10
36.867434375
20
31.496000000000002
30
0
0
SEQEND
0
POLYLINE
66
1
8
1_copper
10
0.0
20
0.0
30
0.0
70
1
0
VERTEX
8
0
10
15.35194375
20
31.5033375
30
0
42
0.3578057741447831
0
VERTEX
8
0
10
16.002000000000002
20
32.220565625
30
0
0
VERTEX
8
0
10
16.002000000000002
20
33.819434375
30
0
0
VERTEX
8
0
10
15.9946625
20
33.89394375
30
0
42
0.9063472543261978
0
VERTEX
8
0
10
14.478000000000002
20
33.819434375
30
0
0
VERTEX
8
0
10
14.478000000000002
20
32.220565625
30
0
0
VERTEX
8
0
10
14.4853375
20
32.14605625
30
0
42
0.38574240611503685
0
VERTEX
8
0
10
15.277434375
20
31.496000000000002
30
0
0
SEQEND
0
POLYLINE
66
1
8
1_copper
10
0.0
20
0.0
30
0.0
70
1
0
VERTEX
8
0
10
22.95701875
20
24.085559375000003
30
0
42
0.3578051432831595
0
VERTEX
8
0
10
23.520400000000002
20
24.70715625
30
0
0
VERTEX
8
0
10
23.520400000000002
20
26.09284375
30
0
0
VERTEX
8
0
10
23.514040625
20
26.15741875
30
0
42
0.9063462356499619
0
VERTEX
8
0
10
22.1996
20
26.09284375
30
0
0
VERTEX
8
0
10
22.1996
20
24.70715625
30
0
0
VERTEX
8
0
10
22.205959375000003
20
24.642581250000003
30
0
42
0.38574230593595876
0
VERTEX
8
0
10
22.89244375
20
24.0792
30
0
0
SEQEND
0
POLYLINE
66
1
8
1_copper
10
0.0
20
0.0
30
0.0
70
1
0
VERTEX
8
0
10
14.66065
20
20.867609375
30
0
42
0.3639699917874411
0
VERTEX
8
0
10
15.530000000000001
20
21.8163375
30
0
0
VERTEX
8
0
10
15.530000000000001
20
23.903662500000003
30
0
0
VERTEX
8
0
10
15.522390625
20
23.990650000000002
30
0
42
0.9163307801196574
0
VERTEX
8
0
10
13.530000000000001
20
23.903662500000003
30
0
0
VERTEX
8
0
10
13.530000000000001
20
21.8163375
30
0
0
VERTEX
8
0
10
13.537609375
20
21.72935
30
0
42
0.3888793799364599
0
VERTEX
8
0
10
14.573662500000001
20
20.86
30
0
0
SEQEND
0
POLYLINE
66
1
8
16_copper
10
0.0
20
0.0
30
0.0
70
1
0
VERTEX
8
0
10
17.83388125
20
67.25611875
30
0
42
0.14430415280903483
0
VERTEX
8
0
10
17.854490625
20
67.29395625000001
30
0
0
VERTEX
8
0
10
17.855
20
67.30133125
30
0
0
VERTEX
8
0
10
17.8562
20
67.31
30
0
0
VERTEX
8
0
10
17.8562
20
71.0884375
30
0
0
VERTEX
8
0
10
21.6215625
20
74.8538
30
0
0
VERTEX
8
0
10
32.9884375
20
74.8538
30
0
0
VERTEX
8
0
10
36.068000000000005
20
71.7742375
30
0
0
VERTEX
8
0
10
36.068000000000005
20
70.320565625
30
0
0
VERTEX
8
0
10
36.0753375
20
70.24605625000001
30
0
42
0.9063472543261978
0
VERTEX
8
0
10
37.592
20
70.320565625
30
0
0
VERTEX
8
0
10
37.592
20
71.91943437500001
30
0
0
VERTEX
8
0
10
37.5846625
20
71.99394375
30
0
42
0.8626057707930658
0
VERTEX
8
0
10
36.0753375
20
71.99394375
30
0
0
VERTEX
8
0
10
36.07430625
20
71.98345625
30
0
0
VERTEX
8
0
10
33.07388125
20
74.98388125000001
30
0
0
VERTEX
8
0
10
33.067096875000004
20
74.98895312500001
30
0
0
VERTEX
8
0
10
33.060596875
20
74.9944875
30
0
42
0.08765145259213399
0
VERTEX
8
0
10
33.036043750000005
20
75.004490625
30
0
0
VERTEX
8
0
10
33.02866875
20
75.00500000000001
30
0
0
VERTEX
8
0
10
33.02
20
75.0062
30
0
0
VERTEX
8
0
10
21.59
20
75.0062
30
0
0
VERTEX
8
0
10
21.581571875
20
75.004984375
30
0
0
VERTEX
8
0
10
21.573106250000002
20
75.004303125
30
0
42
0.08765396656356698
0
VERTEX
8
0
10
21.54866875
20
74.99401875000001
30
0
0
VERTEX
8
0
10
21.543075
20
74.989146875
30
0
0
VERTEX
8
0
10
21.53611875
20
74.98388125000001
30
0
0
VERTEX
8
0
10
17.72611875
20
71.17388125000001
30
0
0
VERTEX
8
0
10
17.721046875000003
20
71.167096875
30
0
0
VERTEX
8
0
10
17.7155125
20
71.16059687500001
30
0
42
0.08765145259213399
0
VERTEX
8
0
10
17.705509375000002
20
71.13604375
30
0
0
VERTEX
8
0
10
17.705000000000002
20
71.12866875
30
0
0
VERTEX
8
0
10
17.7038
20
71.12
30
0
0
VERTEX
8
0
10
17.7038
20
67.34156250000001
30
0
0
VERTEX
8
0
10
16.45611875
20
66.09388125000001
30
0
0
VERTEX
8
0
10
16.451046875
20
66.087096875
30
0
0
VERTEX
8
0
10
16.4455125
20
66.080596875
30
0
42
0.08765145259213399
0
VERTEX
8
0
10
16.435509375000002
20
66.05604375
30
0
0
VERTEX
8
0
10
16.435000000000002
20
66.04866875
30
0
0
VERTEX
8
0
10
16.4338
20
66.04
30
0
0
VERTEX
8
0
10
16.4338
20
60.9915625
30
0
0
VERTEX
8
0
10
12.646118750000001
20
57.20388125
30
0
0
VERTEX
8
0
10
12.641046875
20
57.197096875
30
0
0
VERTEX
8
0
10
12.6355125
20
57.190596875000004
30
0
42
0.08765145259213399
0
VERTEX
8
0
10
12.625509375
20
57.16604375
30
0
0
VERTEX
8
0
10
12.625
20
57.158668750000004
30
0
0
VERTEX
8
0
10
12.623800000000001
20
57.150000000000006
30
0
0
VERTEX
8
0
10
12.623800000000001
20
36.83
30
0
0
VERTEX
8
0
10
12.625015625000001
20
36.821571875000004
30
0
0
VERTEX
8
0
10
12.625696875000001
20
36.813106250000004
30
0
42
0.08765396656356698
0
VERTEX
8
0
10
12.63598125
20
36.78866875
30
0
0
VERTEX
8
0
10
12.640853125000001
20
36.783075000000004
30
0
0
VERTEX
8
0
10
12.646118750000001
20
36.77611875
30
0
0
VERTEX
8
0
10
14.9398
20
34.4824375
30
0
0
VERTEX
8
0
10
14.913809375000001
20
34.471671875
30
0
42
0.2767373317423673
0
VERTEX
8
0
10
14.478000000000002
20
33.819434375
30
0
0
VERTEX
8
0
10
14.478000000000002
20
33.0962
30
0
0
VERTEX
8
0
10
12.700000000000001
20
33.0962
30
0
0
VERTEX
8
0
10
12.691571875000001
20
33.094984375
30
0
0
VERTEX
8
0
10
12.68310625
20
33.094303125
30
0
42
0.08765396656356698
0
VERTEX
8
0
10
12.65866875
20
33.08401875
30
0
0
VERTEX
8
0
10
12.653075000000001
20
33.079146875
30
0
0
VERTEX
8
0
10
12.646118750000001
20
33.07388125
30
0
0
VERTEX
8
0
10
11.37611875
20
31.80388125
30
0
0
VERTEX
8
0
10
11.371046875000001
20
31.797096875
30
0
0
VERTEX
8
0
10
11.365512500000001
20
31.790596875000002
30
0
42
0.08765145259213399
0
VERTEX
8
0
10
11.355509375
20
31.76604375
30
0
0
VERTEX
8
0
10
11.355
20
31.758668750000002
30
0
0
VERTEX
8
0
10
11.3538
20
31.75
30
0
0
VERTEX
8
0
10
11.3538
20
27.94
30
0
0
VERTEX
8
0
10
11.355015625
20
27.931571875000003
30
0
0
VERTEX
8
0
10
11.355696875000001
20
27.92310625
30
0
42
0.08765396656356698
0
VERTEX
8
0
10
11.36598125
20
27.898668750000002
30
0
0
VERTEX
8
0
10
11.370853125
20
27.893075
30
0
0
VERTEX
8
0
10
11.37611875
20
27.88611875
30
0
0
VERTEX
8
0
10
14.409003125
20
24.853234375
30
0
0
VERTEX
8
0
10
14.39935
20
24.852390625
30
0
42
0.3639699917874411
0
VERTEX
8
0
10
13.530000000000001
20
23.903662500000003
30
0
0
VERTEX
8
0
10
13.530000000000001
20
21.8163375
30
0
0
VERTEX
8
0
10
13.537609375
20
21.72935
30
0
42
0.9163307801196574
0
VERTEX
8
0
10
15.530000000000001
20
21.8163375
30
0
0
VERTEX
8
0
10
15.530000000000001
20
23.7522375
30
0
0
VERTEX
8
0
10
15.8315625
20
24.053800000000003
30
0
0
VERTEX
8
0
10
21.59
20
24.053800000000003
30
0
0
VERTEX
8
0
10
21.598428125
20
24.055015625000003
30
0
0
VERTEX
8
0
10
21.60689375
20
24.055696875000002
30
0
42
0.08765396656356698
0
VERTEX
8
0
10
21.631331250000002
20
24.06598125
30
0
0
VERTEX
8
0
10
21.636925
20
24.070853125000003
30
0
0
VERTEX
8
0
10
21.64388125
20
24.076118750000003
30
0
0
VERTEX
8
0
10
22.2066875
20
24.638925
30
0
0
VERTEX
8
0
10
22.21861875
20
24.57894375
30
0
42
0.862606571940854
0
VERTEX
8
0
10
23.520400000000002
20
24.70715625
30
0
0
VERTEX
8
0
10
23.520400000000002
20
25.9526375
30
0
0
VERTEX
8
0
10
24.183881250000002
20
26.616118750000002
30
0
0
VERTEX
8
0
10
24.188953125
20
26.622903125
30
0
0
VERTEX
8
0
10
24.1944875
20
26.629403125
30
0
42
0.08765145259213399
0
VERTEX
8
0
10
24.204490625000002
20
26.65395625
30
0
0
VERTEX
8
0
10
24.205000000000002
20
26.66133125
30
0
0
VERTEX
8
0
10
24.206200000000003
20
26.67
30
0
0
VERTEX
8
0
10
24.206200000000003
20
32.9884375
30
0
0
VERTEX
8
0
10
25.431562500000002
20
34.2138
30
0
0
VERTEX
8
0
10
35.5284375
20
34.2138
30
0
0
VERTEX
8
0
10
36.068000000000005
20
33.674237500000004
30
0
0
VERTEX
8
0
10
36.068000000000005
20
32.220565625
30
0
0
VERTEX
8
0
10
36.0753375
20
32.14605625
30
0
42
0.9063472543261978
0
VERTEX
8
0
10
37.592
20
32.220565625
30
0
0
VERTEX
8
0
10
37.592
20
33.819434375
30
0
0
VERTEX
8
0
10
37.5846625
20
33.89394375
30
0
42
0.8626057707930658
0
VERTEX
8
0
10
36.0753375
20
33.89394375
30
0
0
VERTEX
8
0
10
36.07430625
20
33.88345625
30
0
0
VERTEX
8
0
10
35.61388125
20
34.34388125
30
0
0
VERTEX
8
0
10
35.607096875
20
34.348953125
30
0
0
VERTEX
8
0
10
35.600596875
20
34.354487500000005
30
0
42
0.08765145259213399
0
VERTEX
8
0
10
35.576043750000004
20
34.364490625
30
0
0
VERTEX
8
0
10
35.56866875
20
34.365
30
0
0
VERTEX
8
0
10
35.56
20
34.3662
30
0
0
VERTEX
8
0
10
25.400000000000002
20
34.3662
30
0
0
VERTEX
8
0
10
25.391571875
20
34.364984375
30
0
0
VERTEX
8
0
10
25.38310625
20
34.364303125
30
0
42
0.08765396656356698
0
VERTEX
8
0
10
25.35866875
20
34.35401875
30
0
0
VERTEX
8
0
10
25.353075
20
34.349146875
30
0
0
VERTEX
8
0
10
25.346118750000002
20
34.34388125
30
0
0
VERTEX
8
0
10
24.076118750000003
20
33.07388125
30
0
0
VERTEX
8
0
10
24.071046875
20
33.067096875000004
30
0
0
VERTEX
8
0
10
24.0655125
20
33.060596875
30
0
42
0.08765145259213399
0
VERTEX
8
0
10
24.055509375
20
33.036043750000005
30
0
0
VERTEX
8
0
10
24.055
20
33.02866875
30
0
0
VERTEX
8
0
10
24.053800000000003
20
33.02
30
0
0
VERTEX
8
0
10
24.053800000000003
20
26.7015625
30
0
0
VERTEX
8
0
10
23.5133125
20
26.161075
30
0
0
VERTEX
8
0
10
23.50138125
20
26.22105625
30
0
42
0.862606571940854
0
VERTEX
8
0
10
22.1996
20
26.09284375
30
0
0
VERTEX
8
0
10
22.1996
20
24.847362500000003
30
0
0
VERTEX
8
0
10
21.5584375
20
24.206200000000003
30
0
0
VERTEX
8
0
10
15.8
20
24.206200000000003
30
0
0
VERTEX
8
0
10
15.791571875
20
24.204984375000002
30
0
0
VERTEX
8
0
10
15.783106250000001
20
24.204303125000003
30
0
42
0.08765396656356698
0
VERTEX
8
0
10
15.75866875
20
24.19401875
30
0
0
VERTEX
8
0
10
15.753075
20
24.189146875000002
30
0
0
VERTEX
8
0
10
15.74611875
20
24.183881250000002
30
0
0
VERTEX
8
0
10
15.52484375
20
23.96260625
30
0
0
VERTEX
8
0
10
15.522390625
20
23.990650000000002
30
0
42
0.33945464789561125
0
VERTEX
8
0
10
14.66065
20
24.852390625
30
0
0
VERTEX
8
0
10
14.604134375000001
20
24.857334375
30
0
0
VERTEX
8
0
10
14.6034375
20
24.85915
30
0
0
VERTEX
8
0
10
14.603090625
20
24.861543750000003
30
0
42
0.07178469576303455
0
VERTEX
8
0
10
14.59401875
20
24.881331250000002
30
0
0
VERTEX
8
0
10
14.589146875
20
24.886925
30
0
0
VERTEX
8
0
10
14.583881250000001
20
24.89388125
30
0
0
VERTEX
8
0
10
11.5062
20
27.9715625
30
0
0
VERTEX
8
0
10
11.5062
20
31.7184375
30
0
0
VERTEX
8
0
10
12.7315625
20
32.9438
30
0
0
VERTEX
8
0
10
14.478000000000002
20
32.9438
30
0
0
VERTEX
8
0
10
14.478000000000002
20
32.220565625
30
0
0
VERTEX
8
0
10
14.4853375
20
32.14605625
30
0
42
0.9063472543261978
0
VERTEX
8
0
10
16.002000000000002
20
32.220565625
30
0
0
VERTEX
8
0
10
16.002000000000002
20
33.819434375
30
0
0
VERTEX
8
0
10
15.9946625
20
33.89394375
30
0
42
0.41421356237309503
0
VERTEX
8
0
10
15.12805625
20
34.5366625
30
0
0
VERTEX
8
0
10
15.105571875
20
34.532190625
30
0
0
VERTEX
8
0
10
12.776200000000001
20
36.861562500000005
30
0
0
VERTEX
8
0
10
12.776200000000001
20
57.118437500000006
30
0
0
VERTEX
8
0
10
16.56388125
20
60.906118750000005
30
0
0
VERTEX
8
0
10
16.568953125
20
60.912903125
30
0
0
VERTEX
8
0
10
16.5744875
20
60.919403125
30
0
42
0.08765145259213399
0
VERTEX
8
0
10
16.584490625
20
60.94395625
30
0
0
VERTEX
8
0
10
16.585
20
60.95133125
30
0
0
VERTEX
8
0
10
16.5862
20
60.96
30
0
0
VERTEX
8
0
10
16.5862
20
66.0084375
30
0
0
SEQEND
0
POLYLINE
66
1
8
1_copper
10
0.0
20
0.0
30
0.0
70
1
0
VERTEX
8
0
10
34.40194375
20
69.60333750000001
30
0
42
0.3578057741447831
0
VERTEX
8
0
10
35.052
20
70.320565625
30
0
0
VERTEX
8
0
10
35.052
20
71.91943437500001
30
0
0
VERTEX
8
0
10
35.0446625
20
71.99394375
30
0
42
0.9063472543261978
0
VERTEX
8
0
10
33.528
20
71.91943437500001
30
0
0
VERTEX
8
0
10
33.528
20
70.320565625
30
0
0
VERTEX
8
0
10
33.535337500000004
20
70.24605625000001
30
0
42
0.38574240611503685
0
VERTEX
8
0
10
34.327434375
20
69.596
30
0
0
SEQEND
0
POLYLINE
66
1
8
1_copper
10
0.0
20
0.0
30
0.0
70
1
0
VERTEX
8
0
10
44.561943750000005
20
31.5033375
30
0
42
0.3578057741447831
0
VERTEX
8
0
10
45.212
20
32.220565625
30
0
0
VERTEX
8
0
10
45.212
20
33.819434375
30
0
0
VERTEX
8
0
10
45.204662500000005
20
33.89394375
30
0
42
0.9063472543261978
0
VERTEX
8
0
10
43.688
20
33.819434375
30
0
0
VERTEX
8
0
10
43.688
20
32.220565625
30
0
0
VERTEX
8
0
10
43.6953375
20
32.14605625
30
0
42
0.38574240611503685
0
VERTEX
8
0
10
44.487434375
20
31.496000000000002
30
0
0
SEQEND
0
POLYLINE
66
1
8
16_copper
10
0.0
20
0.0
30
0.0
70
1
0
VERTEX
8
0
10
20.37388125
20
67.25611875
30
0
42
0.14430415280903483
0
VERTEX
8
0
10
20.394490625
20
67.29395625000001
30
0
0
VERTEX
8
0
10
20.395
20
67.30133125
30
0
0
VERTEX
8
0
10
20.3962
20
67.31
30
0
0
VERTEX
8
0
10
20.3962
20
72.35843750000001
30
0
0
VERTEX
8
0
10
21.6215625
20
73.5838
30
0
0
VERTEX
8
0
10
32.9884375
20
73.5838
30
0
0
VERTEX
8
0
10
33.9898
20
72.5824375
30
0
0
VERTEX
8
0
10
33.963809375000004
20
72.571671875
30
0
42
0.2767373317423673
0
VERTEX
8
0
10
33.528
20
71.91943437500001
30
0
0
VERTEX
8
0
10
33.528
20
70.320565625
30
0
0
VERTEX
8
0
10
33.535337500000004
20
70.24605625000001
30
0
42
0.9063472543261978
0
VERTEX
8
0
10
35.052
20
70.320565625
30
0
0
VERTEX
8
0
10
35.052
20
71.91943437500001
30
0
0
VERTEX
8
0
10
35.0446625
20
71.99394375
30
0
42
0.41421356237309503
0
VERTEX
8
0
10
34.178056250000004
20
72.6366625
30
0
0
VERTEX
8
0
10
34.155571875
20
72.632190625
30
0
0
VERTEX
8
0
10
33.07388125
20
73.71388125
30
0
0
VERTEX
8
0
10
33.067096875000004
20
73.718953125
30
0
0
VERTEX
8
0
10
33.060596875
20
73.72448750000001
30
0
42
0.08765145259213399
0
VERTEX
8
0
10
33.036043750000005
20
73.734490625
30
0
0
VERTEX
8
0
10
33.02866875
20
73.735
30
0
0
VERTEX
8
0
10
33.02
20
73.7362
30
0
0
VERTEX
8
0
10
21.59
20
73.7362
30
0
0
VERTEX
8
0
10
21.581571875
20
73.73498437500001
30
0
0
VERTEX
8
0
10
21.573106250000002
20
73.734303125
30
0
42
0.08765396656356698
0
VERTEX
8
0
10
21.54866875
20
73.72401875
30
0
0
VERTEX
8
0
10
21.543075
20
73.719146875
30
0
0
VERTEX
8
0
10
21.53611875
20
73.71388125
30
0
0
VERTEX
8
0
10
20.26611875
20
72.44388125
30
0
0
VERTEX
8
0
10
20.261046875
20
72.43709687500001
30
0
0
VERTEX
8
0
10
20.255512500000002
20
72.430596875
30
0
42
0.08765145259213399
0
VERTEX
8
0
10
20.245509375
20
72.40604375000001
30
0
0
VERTEX
8
0
10
20.245
20
72.39866875
30
0
0
VERTEX
8
0
10
20.2438
20
72.39
30
0
0
VERTEX
8
0
10
20.2438
20
67.34156250000001
30
0
0
VERTEX
8
0
10
18.99611875
20
66.09388125000001
30
0
0
VERTEX
8
0
10
18.991046875000002
20
66.087096875
30
0
0
VERTEX
8
0
10
18.985512500000002
20
66.080596875
30
0
42
0.08765145259213399
0
VERTEX
8
0
10
18.975509375
20
66.05604375
30
0
0
VERTEX
8
0
10
18.975
20
66.04866875
30
0
0
VERTEX
8
0
10
18.9738
20
66.04
30
0
0
VERTEX
8
0
10
18.9738
20
60.96
30
0
0
VERTEX
8
0
10
18.975015625
20
60.951571875000006
30
0
0
VERTEX
8
0
10
18.975696875
20
60.94310625
30
0
42
0.08765396656356698
0
VERTEX
8
0
10
18.985981250000002
20
60.91866875
30
0
0
VERTEX
8
0
10
18.990853125
20
60.913075000000006
30
0
0
VERTEX
8
0
10
18.99611875
20
60.906118750000005
30
0
0
VERTEX
8
0
10
20.26611875
20
59.63611875
30
0
0
VERTEX
8
0
10
20.272903125000003
20
59.631046875
30
0
0
VERTEX
8
0
10
20.279403125
20
59.625512500000006
30
0
42
0.08765145259213399
0
VERTEX
8
0
10
20.303956250000002
20
59.615509375
30
0
0
VERTEX
8
0
10
20.311331250000002
20
59.615
30
0
0
VERTEX
8
0
10
20.32
20
59.613800000000005
30
0
0
VERTEX
8
0
10
29.1784375
20
59.613800000000005
30
0
0
VERTEX
8
0
10
31.6738
20
57.118437500000006
30
0
0
VERTEX
8
0
10
31.6738
20
46.99
30
0
0
VERTEX
8
0
10
31.675015625
20
46.981571875
30
0
0
VERTEX
8
0
10
31.675696875
20
46.97310625
30
0
42
0.08765396656356698
0
VERTEX
8
0
10
31.68598125
20
46.94866875
30
0
0
VERTEX
8
0
10
31.690853125
20
46.943075
30
0
0
VERTEX
8
0
10
31.69611875
20
46.936118750000006
30
0
0
VERTEX
8
0
10
34.23611875
20
44.39611875
30
0
0
VERTEX
8
0
10
34.242903125000005
20
44.391046875
30
0
0
VERTEX
8
0
10
34.249403125
20
44.385512500000004
30
0
42
0.08765145259213399
0
VERTEX
8
0
10
34.273956250000005
20
44.375509375
30
0
0
VERTEX
8
0
10
34.28133125
20
44.375
30
0
0
VERTEX
8
0
10
34.29
20
44.3738
30
0
0
VERTEX
8
0
10
39.338437500000005
20
44.3738
30
0
0
VERTEX
8
0
10
40.5638
20
43.1484375
30
0
0
VERTEX
8
0
10
40.5638
20
36.83
30
0
0
VERTEX
8
0
10
40.565015625
20
36.821571875000004
30
0
0
VERTEX
8
0
10
40.565696875
20
36.813106250000004
30
0
42
0.08765396656356698
0
VERTEX
8
0
10
40.575981250000005
20
36.78866875
30
0
0
VERTEX
8
0
10
40.580853125000004
20
36.783075000000004
30
0
0
VERTEX
8
0
10
40.586118750000004
20
36.77611875
30
0
0
VERTEX
8
0
10
41.85611875
20
35.50611875
30
0
0
VERTEX
8
0
10
41.862903125
20
35.501046875
30
0
0
VERTEX
8
0
10
41.869403125000005
20
35.495512500000004
30
0
42
0.08765145259213399
0
VERTEX
8
0
10
41.89395625
20
35.485509375
30
0
0
VERTEX
8
0
10
41.901331250000005
20
35.485
30
0
0
VERTEX
8
0
10
41.910000000000004
20
35.4838
30
0
0
VERTEX
8
0
10
43.1484375
20
35.4838
30
0
0
VERTEX
8
0
10
44.1498
20
34.4824375
30
0
0
VERTEX
8
0
10
44.123809375
20
34.471671875
30
0
42
0.2767373317423673
0
VERTEX
8
0
10
43.688
20
33.819434375
30
0
0
VERTEX
8
0
10
43.688
20
32.220565625
30
0
0
VERTEX
8
0
10
43.6953375
20
32.14605625
30
0
42
0.9063472543261978
0
VERTEX
8
0
10
45.212
20
32.220565625
30
0
0
VERTEX
8
0
10
45.212
20
33.819434375
30
0
0
VERTEX
8
0
10
45.204662500000005
20
33.89394375
30
0
42
0.41421356237309503
0
VERTEX
8
0
10
44.33805625
20
34.5366625
30
0
0
VERTEX
8
0
10
44.315571875
20
34.532190625
30
0
0
VERTEX
8
0
10
43.23388125
20
35.61388125
30
0
0
VERTEX
8
0
10
43.227096875
20
35.618953125000004
30
0
0
VERTEX
8
0
10
43.220596875000005
20
35.6244875
30
0
42
0.08765145259213399
0
VERTEX
8
0
10
43.19604375
20
35.634490625000005
30
0
0
VERTEX
8
0
10
43.188668750000005
20
35.635000000000005
30
0
0
VERTEX
8
0
10
43.18
20
35.6362
30
0
0
VERTEX
8
0
10
41.9415625
20
35.6362
30
0
0
VERTEX
8
0
10
40.7162
20
36.861562500000005
30
0
0
VERTEX
8
0
10
40.7162
20
43.18
30
0
0
VERTEX
8
0
10
40.714984375
20
43.188428125
30
0
0
VERTEX
8
0
10
40.714303125
20
43.19689375
30
0
42
0.08765396656356698
0
VERTEX
8
0
10
40.70401875
20
43.22133125
30
0
0
VERTEX
8
0
10
40.699146875000004
20
43.226925
30
0
0
VERTEX
8
0
10
40.693881250000004
20
43.23388125
30
0
0
VERTEX
8
0
10
39.42388125
20
44.50388125
30
0
0
VERTEX
8
0
10
39.417096875
20
44.508953125000005
30
0
0
VERTEX
8
0
10
39.410596875
20
44.5144875
30
0
42
0.08765145259213399
0
VERTEX
8
0
10
39.38604375
20
44.524490625000006
30
0
0
VERTEX
8
0
10
39.37866875
20
44.525000000000006
30
0
0
VERTEX
8
0
10
39.370000000000005
20
44.5262
30
0
0
VERTEX
8
0
10
34.3215625
20
44.5262
30
0
0
VERTEX
8
0
10
31.8262
20
47.0215625
30
0
0
VERTEX
8
0
10
31.8262
20
57.150000000000006
30
0
0
VERTEX
8
0
10
31.824984375000003
20
57.158428125
30
0
0
VERTEX
8
0
10
31.824303125
20
57.16689375
30
0
42
0.08765396656356698
0
VERTEX
8
0
10
31.814018750000002
20
57.191331250000005
30
0
0
VERTEX
8
0
10
31.809146875000003
20
57.196925
30
0
0
VERTEX
8
0
10
31.80388125
20
57.20388125
30
0
0
VERTEX
8
0
10
29.26388125
20
59.74388125
30
0
0
VERTEX
8
0
10
29.257096875000002
20
59.748953125
30
0
0
VERTEX
8
0
10
29.250596875000003
20
59.7544875
30
0
42
0.08765145259213399
0
VERTEX
8
0
10
29.226043750000002
20
59.764490625
30
0
0
VERTEX
8
0
10
29.218668750000003
20
59.765
30
0
0
VERTEX
8
0
10
29.21
20
59.766200000000005
30
0
0
VERTEX
8
0
10
20.3515625
20
59.766200000000005
30
0
0
VERTEX
8
0
10
19.1262
20
60.9915625
30
0
0
VERTEX
8
0
10
19.1262
20
66.0084375
30
0
0
SEQEND
0
POLYLINE
66
1
8
1_copper
10
0.0
20
0.0
30
0.0
70
1
0
VERTEX
8
0
10
20.431943750000002
20
31.5033375
30
0
42
0.3578057741447831
0
VERTEX
8
0
10
21.082
20
32.220565625
30
0
0
VERTEX
8
0
10
21.082
20
33.819434375
30
0
0
VERTEX
8
0
10
21.074662500000002
20
33.89394375
30
0
42
0.9063472543261978
0
VERTEX
8
0
10
19.558
20
33.819434375
30
0
0
VERTEX
8
0
10
19.558
20
32.220565625
30
0
0
VERTEX
8
0
10
19.565337500000002
20
32.14605625
30
0
42
0.38574240611503685
0
VERTEX
8
0
10
20.357434375
20
31.496000000000002
30
0
0
SEQEND
0
POLYLINE
66
1
8
16_copper
10
0.0
20
0.0
30
0.0
70
1
0
VERTEX
8
0
10
20.431943750000002
20
31.5033375
30
0
42
0.3578057741447831
0
VERTEX
8
0
10
21.082
20
32.220565625
30
0
0
VERTEX
8
0
10
21.082
20
33.819434375
30
0
0
VERTEX
8
0
10
21.074662500000002
20
33.89394375
30
0
42
0.33035527466323844
0
VERTEX
8
0
10
20.431943750000002
20
34.5366625
30
0
0
VERTEX
8
0
10
20.3962
20
34.54018125
30
0
0
VERTEX
8
0
10
20.3962
20
38.1
30
0
0
VERTEX
8
0
10
20.394984375
20
38.108428125
30
0
0
VERTEX
8
0
10
20.394303125
20
38.11689375
30
0
42
0.08765396656356698
0
VERTEX
8
0
10
20.384018750000003
20
38.14133125
30
0
0
VERTEX
8
0
10
20.379146875
20
38.146925
30
0
0
VERTEX
8
0
10
20.37388125
20
38.153881250000005
30
0
0
VERTEX
8
0
10
19.10388125
20
39.42388125
30
0
0
VERTEX
8
0
10
19.08645
20
39.436915625000005
30
0
42
0.8660578617248573
0
VERTEX
8
0
10
18.99611875
20
39.31611875
30
0
0
VERTEX
8
0
10
20.2438
20
38.0684375
30
0
0
VERTEX
8
0
10
20.2438
20
34.54018125
30
0
0
VERTEX
8
0
10
20.208056250000002
20
34.5366625
30
0
42
0.3578057741447831
0
VERTEX
8
0
10
19.558
20
33.819434375
30
0
0
VERTEX
8
0
10
19.558
20
32.220565625
30
0
0
VERTEX
8
0
10
19.565337500000002
20
32.14605625
30
0
42
0.38574240611503685
0
VERTEX
8
0
10
20.357434375
20
31.496000000000002
30
0
0
SEQEND
0
POLYLINE
66
1
8
1_copper
10
0.0
20
0.0
30
0.0
70
1
0
VERTEX
8
0
10
42.021943750000005
20
31.5033375
30
0
42
0.3578057741447831
0
VERTEX
8
0
10
42.672000000000004
20
32.220565625
30
0
0
VERTEX
8
0
10
42.672000000000004
20
33.819434375
30
0
0
VERTEX
8
0
10
42.6646625
20
33.89394375
30
0
42
0.9063472543261978
0
VERTEX
8
0
10
41.148
20
33.819434375
30
0
0
VERTEX
8
0
10
41.148
20
32.220565625
30
0
0
VERTEX
8
0
10
41.1553375
20
32.14605625
30
0
42
0.38574240611503685
0
VERTEX
8
0
10
41.947434375
20
31.496000000000002
30
0
0
SEQEND
0
POLYLINE
66
1
8
16_copper
10
0.0
20
0.0
30
0.0
70
1
0
VERTEX
8
0
10
42.021943750000005
20
31.5033375
30
0
42
0.3578057741447831
0
VERTEX
8
0
10
42.672000000000004
20
32.220565625
30
0
0
VERTEX
8
0
10
42.672000000000004
20
33.819434375
30
0
0
VERTEX
8
0
10
42.6646625
20
33.89394375
30
0
42
0.41421356237309503
0
VERTEX
8
0
10
41.79805625
20
34.5366625
30
0
0
VERTEX
8
0
10
41.775571875000004
20
34.532190625
30
0
0
VERTEX
8
0
10
40.693881250000004
20
35.61388125
30
0
0
VERTEX
8
0
10
40.687096875
20
35.618953125000004
30
0
0
VERTEX
8
0
10
40.680596875
20
35.6244875
30
0
42
0.08765145259213399
0
VERTEX
8
0
10
40.65604375
20
35.634490625000005
30
0
0
VERTEX
8
0
10
40.64866875
20
35.635000000000005
30
0
0
VERTEX
8
0
10
40.64
20
35.6362
30
0
0
VERTEX
8
0
10
39.401562500000004
20
35.6362
30
0
0
VERTEX
8
0
10
38.1762
20
36.861562500000005
30
0
0
VERTEX
8
0
10
38.1762
20
39.78829375
30
0
0
VERTEX
8
0
10
38.174984375
20
39.796721875
30
0
0
VERTEX
8
0
10
38.174303125
20
39.8051875
30
0
42
0.08765396656356698
0
VERTEX
8
0
10
38.164018750000004
20
39.829625
30
0
0
VERTEX
8
0
10
38.159146875000005
20
39.83521875
30
0
0
VERTEX
8
0
10
38.153881250000005
20
39.842175000000005
30
0
0
VERTEX
8
0
10
37.302175
20
40.693881250000004
30
0
0
VERTEX
8
0
10
37.295390625
20
40.698953125
30
0
0
VERTEX
8
0
10
37.288890625
20
40.7044875
30
0
42
0.08765145259213399
0
VERTEX
8
0
10
37.2643375
20
40.714490625
30
0
0
VERTEX
8
0
10
37.2569625
20
40.715
30
0
0
VERTEX
8
0
10
37.24829375
20
40.7162
30
0
0
VERTEX
8
0
10
30.48
20
40.7162
30
0
0
VERTEX
8
0
10
30.471571875000002
20
40.714984375
30
0
0
VERTEX
8
0
10
30.463106250000003
20
40.714303125
30
0
42
0.08765396656356698
0
VERTEX
8
0
10
30.43866875
20
40.70401875
30
0
0
VERTEX
8
0
10
30.433075000000002
20
40.699146875000004
30
0
0
VERTEX
8
0
10
30.42611875
20
40.693881250000004
30
0
0
VERTEX
8
0
10
29.15611875
20
39.42388125
30
0
0
VERTEX
8
0
10
29.143084375
20
39.40645
30
0
42
0.8660578617248573
0
VERTEX
8
0
10
29.26388125
20
39.31611875
30
0
0
VERTEX
8
0
10
30.5115625
20
40.5638
30
0
0
VERTEX
8
0
10
37.21673125
20
40.5638
30
0
0
VERTEX
8
0
10
38.0238
20
39.75673125
30
0
0
VERTEX
8
0
10
38.0238
20
36.83
30
0
0
VERTEX
8
0
10
38.025015625
20
36.821571875000004
30
0
0
VERTEX
8
0
10
38.025696875
20
36.813106250000004
30
0
42
0.08765396656356698
0
VERTEX
8
0
10
38.03598125
20
36.78866875
30
0
0
VERTEX
8
0
10
38.040853125000005
20
36.783075000000004
30
0
0
VERTEX
8
0
10
38.046118750000005
20
36.77611875
30
0
0
VERTEX
8
0
10
39.31611875
20
35.50611875
30
0
0
VERTEX
8
0
10
39.322903125
20
35.501046875
30
0
0
VERTEX
8
0
10
39.329403125
20
35.495512500000004
30
0
42
0.08765145259213399
0
VERTEX
8
0
10
39.35395625
20
35.485509375
30
0
0
VERTEX
8
0
10
39.36133125
20
35.485
30
0
0
VERTEX
8
0
10
39.370000000000005
20
35.4838
30
0
0
VERTEX
8
0
10
40.6084375
20
35.4838
30
0
0
VERTEX
8
0
10
41.6098
20
34.4824375
30
0
0
VERTEX
8
0
10
41.583809375
20
34.471671875
30
0
42
0.2767373317423673
0
VERTEX
8
0
10
41.148
20
33.819434375
30
0
0
VERTEX
8
0
10
41.148
20
32.220565625
30
0
0
VERTEX
8
0
10
41.1553375
20
32.14605625
30
0
42
0.38574240611503685
0
VERTEX
8
0
10
41.947434375
20
31.496000000000002
30
0
0
SEQEND
0
POLYLINE
66
1
8
1_copper
10
0.0
20
0.0
30
0.0
70
1
0
VERTEX
8
0
10
39.48194375
20
31.5033375
30
0
42
0.3578057741447831
0
VERTEX
8
0
10
40.132000000000005
20
32.220565625
30
0
0
VERTEX
8
0
10
40.132000000000005
20
33.819434375
30
0
0
VERTEX
8
0
10
40.1246625
20
33.89394375
30
0
42
0.9063472543261978
0
VERTEX
8
0
10
38.608000000000004
20
33.819434375
30
0
0
VERTEX
8
0
10
38.608000000000004
20
32.220565625
30
0
0
VERTEX
8
0
10
38.6153375
20
32.14605625
30
0
42
0.38574240611503685
0
VERTEX
8
0
10
39.407434375
20
31.496000000000002
30
0
0
SEQEND
0
POLYLINE
66
1
8
16_copper
10
0.0
20
0.0
30
0.0
70
1
0
VERTEX
8
0
10
39.48194375
20
31.5033375
30
0
42
0.3578057741447831
0
VERTEX
8
0
10
40.132000000000005
20
32.220565625
30
0
0
VERTEX
8
0
10
40.132000000000005
20
33.819434375
30
0
0
VERTEX
8
0
10
40.1246625
20
33.89394375
30
0
42
0.8626057707930658
0
VERTEX
8
0
10
38.6153375
20
33.89394375
30
0
0
VERTEX
8
0
10
38.61430625
20
33.88345625
30
0
0
VERTEX
8
0
10
38.1762
20
34.3215625
30
0
0
VERTEX
8
0
10
38.1762
20
35.56
30
0
0
VERTEX
8
0
10
38.174984375
20
35.568428125000004
30
0
0
VERTEX
8
0
10
38.174303125
20
35.57689375
30
0
42
0.08765396656356698
0
VERTEX
8
0
10
38.164018750000004
20
35.60133125
30
0
0
VERTEX
8
0
10
38.159146875000005
20
35.606925000000004
30
0
0
VERTEX
8
0
10
38.153881250000005
20
35.61388125
30
0
0
VERTEX
8
0
10
36.88388125
20
36.88388125
30
0
0
VERTEX
8
0
10
36.877096875
20
36.888953125
30
0
0
VERTEX
8
0
10
36.870596875000004
20
36.894487500000004
30
0
42
0.08765145259213399
0
VERTEX
8
0
10
36.84604375
20
36.904490625
30
0
0
VERTEX
8
0
10
36.838668750000004
20
36.905
30
0
0
VERTEX
8
0
10
36.83
20
36.9062
30
0
0
VERTEX
8
0
10
33.0515625
20
36.9062
30
0
0
VERTEX
8
0
10
31.8262
20
38.1315625
30
0
0
VERTEX
8
0
10
31.8262
20
39.370000000000005
30
0
0
VERTEX
8
0
10
31.823090625000003
20
39.391543750000004
30
0
42
0.8660508493283852
0
VERTEX
8
0
10
31.6738
20
39.370000000000005
30
0
0
VERTEX
8
0
10
31.6738
20
38.1
30
0
0
VERTEX
8
0
10
31.675015625
20
38.091571875
30
0
0
VERTEX
8
0
10
31.675696875
20
38.08310625
30
0
42
0.08765396656356698
0
VERTEX
8
0
10
31.68598125
20
38.05866875
30
0
0
VERTEX
8
0
10
31.690853125
20
38.053075
30
0
0
VERTEX
8
0
10
31.69611875
20
38.046118750000005
30
0
0
VERTEX
8
0
10
32.96611875
20
36.77611875
30
0
0
VERTEX
8
0
10
32.972903125
20
36.771046875
30
0
0
VERTEX
8
0
10
32.979403125000005
20
36.7655125
30
0
42
0.08765145259213399
0
VERTEX
8
0
10
33.00395625
20
36.755509375
30
0
0
VERTEX
8
0
10
33.011331250000005
20
36.755
30
0
0
VERTEX
8
0
10
33.02
20
36.7538
30
0
0
VERTEX
8
0
10
36.7984375
20
36.7538
30
0
0
VERTEX
8
0
10
38.0238
20
35.5284375
30
0
0
VERTEX
8
0
10
38.0238
20
34.29
30
0
0
VERTEX
8
0
10
38.025015625
20
34.281571875000004
30
0
0
VERTEX
8
0
10
38.025696875
20
34.273106250000005
30
0
42
0.08765396656356698
0
VERTEX
8
0
10
38.03598125
20
34.24866875
30
0
0
VERTEX
8
0
10
38.040853125000005
20
34.243075000000005
30
0
0
VERTEX
8
0
10
38.046118750000005
20
34.23611875
30
0
0
VERTEX
8
0
10
38.608000000000004
20
33.674237500000004
30
0
0
VERTEX
8
0
10
38.608000000000004
20
32.220565625
30
0
0
VERTEX
8
0
10
38.6153375
20
32.14605625
30
0
42
0.38574240611503685
0
VERTEX
8
0
10
39.407434375
20
31.496000000000002
30
0
0
SEQEND
0
POLYLINE
66
1
8
1_copper
10
0.0
20
0.0
30
0.0
70
1
0
VERTEX
8
0
10
31.861943750000002
20
69.60333750000001
30
0
42
0.3578057741447831
0
VERTEX
8
0
10
32.512
20
70.320565625
30
0
0
VERTEX
8
0
10
32.512
20
71.91943437500001
30
0
0
VERTEX
8
0
10
32.5046625
20
71.99394375
30
0
42
0.9063472543261978
0
VERTEX
8
0
10
30.988000000000003
20
71.91943437500001
30
0
0
VERTEX
8
0
10
30.988000000000003
20
70.320565625
30
0
0
VERTEX
8
0
10
30.9953375
20
70.24605625000001
30
0
42
0.38574240611503685
0
VERTEX
8
0
10
31.787434375
20
69.596
30
0
0
SEQEND
0
POLYLINE
66
1
8
16_copper
10
0.0
20
0.0
30
0.0
70
1
0
VERTEX
8
0
10
49.541315625
20
39.29464375
30
0
42
0.3712023256762844
0
VERTEX
8
0
10
49.6062
20
39.370000000000005
30
0
0
VERTEX
8
0
10
49.6062
20
40.64
30
0
0
VERTEX
8
0
10
49.604984375
20
40.648428125
30
0
0
VERTEX
8
0
10
49.604303125
20
40.65689375
30
0
42
0.08765396656356698
0
VERTEX
8
0
10
49.594018750000004
20
40.68133125
30
0
0
VERTEX
8
0
10
49.589146875000004
20
40.686925
30
0
0
VERTEX
8
0
10
49.583881250000005
20
40.693881250000004
30
0
0
VERTEX
8
0
10
48.31388125
20
41.96388125
30
0
0
VERTEX
8
0
10
48.307096875
20
41.968953125
30
0
0
VERTEX
8
0
10
48.300596875000004
20
41.9744875
30
0
42
0.08765145259213399
0
VERTEX
8
0
10
48.27604375
20
41.984490625
30
0
0
VERTEX
8
0
10
48.26866875
20
41.985
30
0
0
VERTEX
8
0
10
48.260000000000005
20
41.986200000000004
30
0
0
VERTEX
8
0
10
43.2115625
20
41.986200000000004
30
0
0
VERTEX
8
0
10
42.291000000000004
20
42.9067625
30
0
0
VERTEX
8
0
10
42.291000000000004
20
44.1452
30
0
0
VERTEX
8
0
10
42.289784375
20
44.153628125000004
30
0
0
VERTEX
8
0
10
42.289103125000004
20
44.162093750000004
30
0
42
0.08765396656356698
0
VERTEX
8
0
10
42.27881875
20
44.18653125
30
0
0
VERTEX
8
0
10
42.273946875
20
44.192125000000004
30
0
0
VERTEX
8
0
10
42.26868125
20
44.19908125
30
0
0
VERTEX
8
0
10
39.42388125
20
47.043881250000005
30
0
0
VERTEX
8
0
10
39.417096875
20
47.048953125000004
30
0
0
VERTEX
8
0
10
39.410596875
20
47.0544875
30
0
42
0.08765145259213399
0
VERTEX
8
0
10
39.38604375
20
47.064490625000005
30
0
0
VERTEX
8
0
10
39.37866875
20
47.065000000000005
30
0
0
VERTEX
8
0
10
39.370000000000005
20
47.0662
30
0
0
VERTEX
8
0
10
35.5915625
20
47.0662
30
0
0
VERTEX
8
0
10
34.3662
20
48.291562500000005
30
0
0
VERTEX
8
0
10
34.3662
20
63.08170625
30
0
0
VERTEX
8
0
10
34.364984375
20
63.090134375000005
30
0
0
VERTEX
8
0
10
34.364303125
20
63.098600000000005
30
0
42
0.08765396656356698
0
VERTEX
8
0
10
34.35401875
20
63.1230375
30
0
0
VERTEX
8
0
10
34.349146875
20
63.128631250000005
30
0
0
VERTEX
8
0
10
34.34388125
20
63.1355875
30
0
0
VERTEX
8
0
10
33.1724
20
64.30706875
30
0
0
VERTEX
8
0
10
33.1724
20
67.2338
30
0
0
VERTEX
8
0
10
33.171184375
20
67.242228125
30
0
0
VERTEX
8
0
10
33.170503125
20
67.25069375
30
0
42
0.08765396656356698
0
VERTEX
8
0
10
33.16021875
20
67.27513125
30
0
0
VERTEX
8
0
10
33.155346875
20
67.280725
30
0
0
VERTEX
8
0
10
33.15008125
20
67.28768125
30
0
0
VERTEX
8
0
10
31.8262
20
68.6115625
30
0
0
VERTEX
8
0
10
31.8262
20
69.59981875
30
0
0
VERTEX
8
0
10
31.861943750000002
20
69.60333750000001
30
0
42
0.3578057741447831
0
VERTEX
8
0
10
32.512
20
70.320565625
30
0
0
VERTEX
8
0
10
32.512
20
71.91943437500001
30
0
0
VERTEX
8
0
10
32.5046625
20
71.99394375
30
0
42
0.9063472543261978
0
VERTEX
8
0
10
30.988000000000003
20
71.91943437500001
30
0
0
VERTEX
8
0
10
30.988000000000003
20
70.320565625
30
0
0
VERTEX
8
0
10
30.9953375
20
70.24605625000001
30
0
42
0.33035527466323844
0
VERTEX
8
0
10
31.63805625
20
69.60333750000001
30
0
0
VERTEX
8
0
10
31.6738
20
69.59981875
30
0
0
VERTEX
8
0
10
31.6738
20
68.58
30
0
0
VERTEX
8
0
10
31.675015625
20
68.571571875
30
0
0
VERTEX
8
0
10
31.675696875
20
68.56310625
30
0
42
0.08765396656356698
0
VERTEX
8
0
10
31.68598125
20
68.53866875
30
0
0
VERTEX
8
0
10
31.690853125
20
68.533075
30
0
0
VERTEX
8
0
10
31.69611875
20
68.52611875000001
30
0
0
VERTEX
8
0
10
33.02
20
67.20223750000001
30
0
0
VERTEX
8
0
10
33.02
20
64.27550625
30
0
0
VERTEX
8
0
10
33.021215625
20
64.267078125
30
0
0
VERTEX
8
0
10
33.021896875
20
64.2586125
30
0
42
0.08765396656356698
0
VERTEX
8
0
10
33.03218125
20
64.23417500000001
30
0
0
VERTEX
8
0
10
33.037053125
20
64.22858125
30
0
0
VERTEX
8
0
10
33.04231875
20
64.221625
30
0
0
VERTEX
8
0
10
34.2138
20
63.050143750000004
30
0
0
VERTEX
8
0
10
34.2138
20
48.260000000000005
30
0
0
VERTEX
8
0
10
34.215015625
20
48.251571875
30
0
0
VERTEX
8
0
10
34.215696875
20
48.243106250000004
30
0
42
0.08765396656356698
0
VERTEX
8
0
10
34.225981250000004
20
48.21866875
30
0
0
VERTEX
8
0
10
34.230853125
20
48.213075
30
0
0
VERTEX
8
0
10
34.23611875
20
48.20611875
30
0
0
VERTEX
8
0
10
35.50611875
20
46.936118750000006
30
0
0
VERTEX
8
0
10
35.512903125
20
46.931046875
30
0
0
VERTEX
8
0
10
35.519403125000004
20
46.9255125
30
0
42
0.08765145259213399
0
VERTEX
8
0
10
35.54395625
20
46.915509375
30
0
0
VERTEX
8
0
10
35.551331250000004
20
46.915
30
0
0
VERTEX
8
0
10
35.56
20
46.9138
30
0
0
VERTEX
8
0
10
39.338437500000005
20
46.9138
30
0
0
VERTEX
8
0
10
42.138600000000004
20
44.1136375
30
0
0
VERTEX
8
0
10
42.138600000000004
20
42.8752
30
0
0
VERTEX
8
0
10
42.139815625000004
20
42.866771875000005
30
0
0
VERTEX
8
0
10
42.140496875000004
20
42.858306250000005
30
0
42
0.08765396656356698
0
VERTEX
8
0
10
42.15078125
20
42.83386875
30
0
0
VERTEX
8
0
10
42.155653125
20
42.828275000000005
30
0
0
VERTEX
8
0
10
42.16091875
20
42.82131875
30
0
0
VERTEX
8
0
10
43.12611875
20
41.85611875
30
0
0
VERTEX
8
0
10
43.132903125
20
41.851046875
30
0
0
VERTEX
8
0
10
43.139403125
20
41.845512500000005
30
0
42
0.08765145259213399
0
VERTEX
8
0
10
43.163956250000005
20
41.835509375
30
0
0
VERTEX
8
0
10
43.17133125
20
41.835
30
0
0
VERTEX
8
0
10
43.18
20
41.833800000000004
30
0
0
VERTEX
8
0
10
48.228437500000005
20
41.833800000000004
30
0
0
VERTEX
8
0
10
49.4538
20
40.6084375
30
0
0
VERTEX
8
0
10
49.4538
20
39.370000000000005
30
0
0
VERTEX
8
0
10
49.456909375
20
39.348456250000005
30
0
42
0.29475403398626154
0
VERTEX
8
0
10
49.519546875
20
39.29451875
30
0
0
SEQEND
0
POLYLINE
66
1
8
1_copper
10
0.0
20
0.0
30
0.0
70
1
0
VERTEX
8
0
10
29.321943750000003
20
69.60333750000001
30
0
42
0.3578057741447831
0
VERTEX
8
0
10
29.972
20
70.320565625
30
0
0
VERTEX
8
0
10
29.972
20
71.91943437500001
30
0
0
VERTEX
8
0
10
29.964662500000003
20
71.99394375
30
0
42
0.9063472543261978
0
VERTEX
8
0
10
28.448
20
71.91943437500001
30
0
0
VERTEX
8
0
10
28.448
20
70.320565625
30
0
0
VERTEX
8
0
10
28.455337500000002
20
70.24605625000001
30
0
42
0.38574240611503685
0
VERTEX
8
0
10
29.247434375
20
69.596
30
0
0
SEQEND
0
POLYLINE
66
1
8
16_copper
10
0.0
20
0.0
30
0.0
70
1
0
VERTEX
8
0
10
41.921315625000005
20
39.29464375
30
0
42
0.3712023256762844
0
VERTEX
8
0
10
41.986200000000004
20
39.370000000000005
30
0
0
VERTEX
8
0
10
41.986200000000004
20
43.18
30
0
0
VERTEX
8
0
10
41.984984375
20
43.188428125
30
0
0
VERTEX
8
0
10
41.984303125000004
20
43.19689375
30
0
42
0.08765396656356698
0
VERTEX
8
0
10
41.97401875
20
43.22133125
30
0
0
VERTEX
8
0
10
41.969146875
20
43.226925
30
0
0
VERTEX
8
0
10
41.96388125
20
43.23388125
30
0
0
VERTEX
8
0
10
39.42388125
20
45.77388125
30
0
0
VERTEX
8
0
10
39.417096875
20
45.778953125
30
0
0
VERTEX
8
0
10
39.410596875
20
45.784487500000004
30
0
42
0.08765145259213399
0
VERTEX
8
0
10
39.38604375
20
45.794490625
30
0
0
VERTEX
8
0
10
39.37866875
20
45.795
30
0
0
VERTEX
8
0
10
39.370000000000005
20
45.7962
30
0
0
VERTEX
8
0
10
34.3215625
20
45.7962
30
0
0
VERTEX
8
0
10
33.0962
20
47.0215625
30
0
0
VERTEX
8
0
10
33.0962
20
57.150000000000006
30
0
0
VERTEX
8
0
10
33.094984375
20
57.158428125
30
0
0
VERTEX
8
0
10
33.094303125
20
57.16689375
30
0
42
0.08765396656356698
0
VERTEX
8
0
10
33.08401875
20
57.191331250000005
30
0
0
VERTEX
8
0
10
33.079146875
20
57.196925
30
0
0
VERTEX
8
0
10
33.07388125
20
57.20388125
30
0
0
VERTEX
8
0
10
30.5562
20
59.721562500000005
30
0
0
VERTEX
8
0
10
30.5562
20
67.31
30
0
0
VERTEX
8
0
10
30.554984375
20
67.318428125
30
0
0
VERTEX
8
0
10
30.554303125
20
67.32689375
30
0
42
0.08765396656356698
0
VERTEX
8
0
10
30.544018750000003
20
67.35133125
30
0
0
VERTEX
8
0
10
30.539146875
20
67.356925
30
0
0
VERTEX
8
0
10
30.53388125
20
67.36388125
30
0
0
VERTEX
8
0
10
29.2862
20
68.6115625
30
0
0
VERTEX
8
0
10
29.2862
20
69.59981875
30
0
0
VERTEX
8
0
10
29.321943750000003
20
69.60333750000001
30
0
42
0.3578057741447831
0
VERTEX
8
0
10
29.972
20
70.320565625
30
0
0
VERTEX
8
0
10
29.972
20
71.91943437500001
30
0
0
VERTEX
8
0
10
29.964662500000003
20
71.99394375
30
0
42
0.9063472543261978
0
VERTEX
8
0
10
28.448
20
71.91943437500001
30
0
0
VERTEX
8
0
10
28.448
20
70.320565625
30
0
0
VERTEX
8
0
10
28.455337500000002
20
70.24605625000001
30
0
42
0.33035527466323844
0
VERTEX
8
0
10
29.098056250000003
20
69.60333750000001
30
0
0
VERTEX
8
0
10
29.1338
20
69.59981875
30
0
0
VERTEX
8
0
10
29.1338
20
68.58
30
0
0
VERTEX
8
0
10
29.135015625
20
68.571571875
30
0
0
VERTEX
8
0
10
29.135696875
20
68.56310625
30
0
42
0.08765396656356698
0
VERTEX
8
0
10
29.145981250000002
20
68.53866875
30
0
0
VERTEX
8
0
10
29.150853125
20
68.533075
30
0
0
VERTEX
8
0
10
29.15611875
20
68.52611875000001
30
0
0
VERTEX
8
0
10
30.4038
20
67.27843750000001
30
0
0
VERTEX
8
0
10
30.4038
20
59.690000000000005
30
0
0
VERTEX
8
0
10
30.405015625
20
59.681571875
30
0
0
VERTEX
8
0
10
30.405696875
20
59.673106250000004
30
0
42
0.08765396656356698
0
VERTEX
8
0
10
30.41598125
20
59.648668750000006
30
0
0
VERTEX
8
0
10
30.420853125
20
59.643075
30
0
0
VERTEX
8
0
10
30.42611875
20
59.63611875
30
0
0
VERTEX
8
0
10
32.9438
20
57.118437500000006
30
0
0
VERTEX
8
0
10
32.9438
20
46.99
30
0
0
VERTEX
8
0
10
32.945015625
20
46.981571875
30
0
0
VERTEX
8
0
10
32.945696875
20
46.97310625
30
0
42
0.08765396656356698
0
VERTEX
8
0
10
32.95598125
20
46.94866875
30
0
0
VERTEX
8
0
10
32.960853125
20
46.943075
30
0
0
VERTEX
8
0
10
32.96611875
20
46.936118750000006
30
0
0
VERTEX
8
0
10
34.23611875
20
45.66611875
30
0
0
VERTEX
8
0
10
34.242903125000005
20
45.661046875000004
30
0
0
VERTEX
8
0
10
34.249403125
20
45.6555125
30
0
42
0.08765145259213399
0
VERTEX
8
0
10
34.273956250000005
20
45.645509375
30
0
0
VERTEX
8
0
10
34.28133125
20
45.645
30
0
0
VERTEX
8
0
10
34.29
20
45.6438
30
0
0
VERTEX
8
0
10
39.338437500000005
20
45.6438
30
0
0
VERTEX
8
0
10
41.833800000000004
20
43.1484375
30
0
0
VERTEX
8
0
10
41.833800000000004
20
39.370000000000005
30
0
0
VERTEX
8
0
10
41.836909375000005
20
39.348456250000005
30
0
42
0.29475403398626154
0
VERTEX
8
0
10
41.899546875
20
39.29451875
30
0
0
SEQEND
0
POLYLINE
66
1
8
1_copper
10
0.0
20
0.0
30
0.0
70
1
0
VERTEX
8
0
10
17.89194375
20
31.5033375
30
0
42
0.3578057741447831
0
VERTEX
8
0
10
18.542
20
32.220565625
30
0
0
VERTEX
8
0
10
18.542
20
33.819434375
30
0
0
VERTEX
8
0
10
18.5346625
20
33.89394375
30
0
42
0.9063472543261978
0
VERTEX
8
0
10
17.018
20
33.819434375
30
0
0
VERTEX
8
0
10
17.018
20
32.220565625
30
0
0
VERTEX
8
0
10
17.0253375
20
32.14605625
30
0
42
0.38574240611503685
0
VERTEX
8
0
10
17.817434375
20
31.496000000000002
30
0
0
SEQEND
0
POLYLINE
66
1
8
16_copper
10
0.0
20
0.0
30
0.0
70
1
0
VERTEX
8
0
10
17.89194375
20
31.5033375
30
0
42
0.3578057741447831
0
VERTEX
8
0
10
18.542
20
32.220565625
30
0
0
VERTEX
8
0
10
18.542
20
33.819434375
30
0
0
VERTEX
8
0
10
18.5346625
20
33.89394375
30
0
42
0.3578057741447831
0
VERTEX
8
0
10
17.817434375
20
34.544000000000004
30
0
0
VERTEX
8
0
10
17.78
20
34.544000000000004
30
0
0
VERTEX
8
0
10
17.78
20
40.5322375
30
0
0
VERTEX
8
0
10
19.0815625
20
41.833800000000004
30
0
0
VERTEX
8
0
10
22.8284375
20
41.833800000000004
30
0
0
VERTEX
8
0
10
24.053800000000003
20
40.6084375
30
0
0
VERTEX
8
0
10
24.053800000000003
20
39.370000000000005
30
0
0
VERTEX
8
0
10
24.056909375
20
39.348456250000005
30
0
42
0.8660508493283852
0
VERTEX
8
0
10
24.206200000000003
20
39.370000000000005
30
0
0
VERTEX
8
0
10
24.206200000000003
20
40.64
30
0
0
VERTEX
8
0
10
24.204984375000002
20
40.648428125
30
0
0
VERTEX
8
0
10
24.204303125000003
20
40.65689375
30
0
42
0.08765396656356698
0
VERTEX
8
0
10
24.19401875
20
40.68133125
30
0
0
VERTEX
8
0
10
24.189146875000002
20
40.686925
30
0
0
VERTEX
8
0
10
24.183881250000002
20
40.693881250000004
30
0
0
VERTEX
8
0
10
22.913881250000003
20
41.96388125
30
0
0
VERTEX
8
0
10
22.907096875
20
41.968953125
30
0
0
VERTEX
8
0
10
22.900596875
20
41.9744875
30
0
42
0.08765145259213399
0
VERTEX
8
0
10
22.87604375
20
41.984490625
30
0
0
VERTEX
8
0
10
22.86866875
20
41.985
30
0
0
VERTEX
8
0
10
22.86
20
41.986200000000004
30
0
0
VERTEX
8
0
10
19.05
20
41.986200000000004
30
0
0
VERTEX
8
0
10
19.041571875000002
20
41.984984375
30
0
0
VERTEX
8
0
10
19.03310625
20
41.984303125000004
30
0
42
0.08765396656356698
0
VERTEX
8
0
10
19.008668750000002
20
41.97401875
30
0
0
VERTEX
8
0
10
19.003075000000003
20
41.969146875
30
0
0
VERTEX
8
0
10
18.99611875
20
41.96388125
30
0
0
VERTEX
8
0
10
17.64991875
20
40.617681250000004
30
0
0
VERTEX
8
0
10
17.644846875000002
20
40.610896875
30
0
0
VERTEX
8
0
10
17.639312500000003
20
40.604396875
30
0
42
0.08765145259213399
0
VERTEX
8
0
10
17.629309375000002
20
40.57984375
30
0
0
VERTEX
8
0
10
17.628800000000002
20
40.57246875
30
0
0
VERTEX
8
0
10
17.6276
20
40.5638
30
0
0
VERTEX
8
0
10
17.6276
20
34.528615625
30
0
0
VERTEX
8
0
10
17.594625
20
34.52205625
30
0
42
0.3303552833504715
0
VERTEX
8
0
10
17.018
20
33.819434375
30
0
0
VERTEX
8
0
10
17.018
20
32.220565625
30
0
0
VERTEX
8
0
10
17.0253375
20
32.14605625
30
0
42
0.38574240611503685
0
VERTEX
8
0
10
17.817434375
20
31.496000000000002
30
0
0
SEQEND
0
POLYLINE
66
1
8
1_copper
10
0.0
20
0.0
30
0.0
70
1
0
VERTEX
8
0
10
8.56065
20
20.867609375
30
0
42
0.3639699917874411
0
VERTEX
8
0
10
9.43
20
21.8163375
30
0
0
VERTEX
8
0
10
9.43
20
23.903662500000003
30
0
0
VERTEX
8
0
10
9.422390625
20
23.990650000000002
30
0
42
0.9163307801196574
0
VERTEX
8
0
10
7.430000000000001
20
23.903662500000003
30
0
0
VERTEX
8
0
10
7.430000000000001
20
21.8163375
30
0
0
VERTEX
8
0
10
7.437609375
20
21.72935
30
0
42
0.3888793799364599
0
VERTEX
8
0
10
8.4736625
20
20.86
30
0
0
SEQEND
0
POLYLINE
66
1
8
1_copper
10
0.0
20
0.0
30
0.0
70
1
0
VERTEX
8
0
10
26.0604
20
20.046456250000002
30
0
0
VERTEX
8
0
10
26.0604
20
20.593543750000002
30
0
0
VERTEX
8
0
10
25.67354375
20
20.9804
30
0
0
VERTEX
8
0
10
25.12645625
20
20.9804
30
0
0
VERTEX
8
0
10
24.739600000000003
20
20.593543750000002
30
0
0
VERTEX
8
0
10
24.739600000000003
20
20.046456250000002
30
0
0
VERTEX
8
0
10
25.12645625
20
19.6596
30
0
0
VERTEX
8
0
10
25.67354375
20
19.6596
30
0
0
SEQEND
0
POLYLINE
66
1
8
1_copper
10
0.0
20
0.0
30
0.0
70
1
0
VERTEX
8
0
10
12.56065
20
17.067609375
30
0
42
0.9163307801196574
0
VERTEX
8
0
10
12.473662500000001
20
19.060000000000002
30
0
0
VERTEX
8
0
10
10.3863375
20
19.060000000000002
30
0
0
VERTEX
8
0
10
10.29935
20
19.052390625
30
0
42
0.9163307801196574
0
VERTEX
8
0
10
10.3863375
20
17.060000000000002
30
0
0
VERTEX
8
0
10
12.473662500000001
20
17.060000000000002
30
0
0
SEQEND
0
POLYLINE
66
1
8
16_copper
10
0.0
20
0.0
30
0.0
70
1
0
VERTEX
8
0
10
24.138428125
20
16.435015625000002
30
0
0
VERTEX
8
0
10
24.14689375
20
16.435696875
30
0
42
0.08765396656356698
0
VERTEX
8
0
10
24.17133125
20
16.44598125
30
0
0
VERTEX
8
0
10
24.176925
20
16.450853125000002
30
0
0
VERTEX
8
0
10
24.183881250000002
20
16.45611875
30
0
0
VERTEX
8
0
10
25.453881250000002
20
17.72611875
30
0
0
VERTEX
8
0
10
25.458953125
20
17.732903125
30
0
0
VERTEX
8
0
10
25.4644875
20
17.739403125000003
30
0
42
0.08765145259213399
0
VERTEX
8
0
10
25.474490625
20
17.76395625
30
0
0
VERTEX
8
0
10
25.475
20
17.77133125
30
0
0
VERTEX
8
0
10
25.476200000000002
20
17.78
30
0
0
VERTEX
8
0
10
25.476200000000002
20
19.6596
30
0
0
VERTEX
8
0
10
25.67354375
20
19.6596
30
0
0
VERTEX
8
0
10
26.0604
20
20.046456250000002
30
0
0
VERTEX
8
0
10
26.0604
20
20.593543750000002
30
0
0
VERTEX
8
0
10
25.67354375
20
20.9804
30
0
0
VERTEX
8
0
10
25.12645625
20
20.9804
30
0
0
VERTEX
8
0
10
24.739600000000003
20
20.593543750000002
30
0
0
VERTEX
8
0
10
24.739600000000003
20
20.046456250000002
30
0
0
VERTEX
8
0
10
25.12645625
20
19.6596
30
0
0
VERTEX
8
0
10
25.323800000000002
20
19.6596
30
0
0
VERTEX
8
0
10
25.323800000000002
20
17.8115625
30
0
0
VERTEX
8
0
10
24.098437500000003
20
16.5862
30
0
0
VERTEX
8
0
10
13.0115625
20
16.5862
30
0
0
VERTEX
8
0
10
12.53260625
20
17.06515625
30
0
0
VERTEX
8
0
10
12.56065
20
17.067609375
30
0
42
0.9163307801196574
0
VERTEX
8
0
10
12.473662500000001
20
19.060000000000002
30
0
0
VERTEX
8
0
10
10.3863375
20
19.060000000000002
30
0
0
VERTEX
8
0
10
10.29935
20
19.052390625
30
0
42
0.33945464789561125
0
VERTEX
8
0
10
9.437609375000001
20
18.19065
30
0
0
VERTEX
8
0
10
9.432846875000001
20
18.136200000000002
30
0
0
VERTEX
8
0
10
8.641562500000001
20
18.136200000000002
30
0
0
VERTEX
8
0
10
7.6962
20
19.0815625
30
0
0
VERTEX
8
0
10
7.6962
20
21.179584375
30
0
0
VERTEX
8
0
10
7.753765625000001
20
21.122018750000002
30
0
42
0.6370694944828084
0
VERTEX
8
0
10
9.43
20
21.8163375
30
0
0
VERTEX
8
0
10
9.43
20
23.903662500000003
30
0
0
VERTEX
8
0
10
9.422390625
20
23.990650000000002
30
0
42
0.9163307801196574
0
VERTEX
8
0
10
7.430000000000001
20
23.903662500000003
30
0
0
VERTEX
8
0
10
7.430000000000001
20
21.8163375
30
0
0
VERTEX
8
0
10
7.437609375
20
21.72935
30
0
42
0.0874885693009386
0
VERTEX
8
0
10
7.54214375
20
21.3978125
30
0
0
VERTEX
8
0
10
7.5438
20
21.39494375
30
0
0
VERTEX
8
0
10
7.5438
20
19.05
30
0
0
VERTEX
8
0
10
7.5450156250000004
20
19.041571875000002
30
0
0
VERTEX
8
0
10
7.545696875
20
19.03310625
30
0
42
0.08765396656356698
0
VERTEX
8
0
10
7.55598125
20
19.008668750000002
30
0
0
VERTEX
8
0
10
7.560853125
20
19.003075000000003
30
0
0
VERTEX
8
0
10
7.56611875
20
18.99611875
30
0
0
VERTEX
8
0
10
8.55611875
20
18.006118750000002
30
0
0
VERTEX
8
0
10
8.562903125
20
18.001046875
30
0
0
VERTEX
8
0
10
8.569403125000001
20
17.9955125
30
0
42
0.08765145259213399
0
VERTEX
8
0
10
8.59395625
20
17.985509375
30
0
0
VERTEX
8
0
10
8.601331250000001
20
17.985
30
0
0
VERTEX
8
0
10
8.610000000000001
20
17.983800000000002
30
0
0
VERTEX
8
0
10
9.432846875000001
20
17.983800000000002
30
0
0
VERTEX
8
0
10
9.437609375000001
20
17.92935
30
0
42
0.3639699917874411
0
VERTEX
8
0
10
10.3863375
20
17.060000000000002
30
0
0
VERTEX
8
0
10
12.3222375
20
17.060000000000002
30
0
0
VERTEX
8
0
10
12.92611875
20
16.45611875
30
0
0
VERTEX
8
0
10
12.932903125000001
20
16.451046875
30
0
0
VERTEX
8
0
10
12.939403125
20
16.4455125
30
0
42
0.08765145259213399
0
VERTEX
8
0
10
12.96395625
20
16.435509375000002
30
0
0
VERTEX
8
0
10
12.97133125
20
16.435000000000002
30
0
0
VERTEX
8
0
10
12.98
20
16.4338
30
0
0
VERTEX
8
0
10
24.130000000000003
20
16.4338
30
0
0
SEQEND
0
POLYLINE
66
1
8
1_copper
10
0.0
20
0.0
30
0.0
70
1
0
VERTEX
8
0
10
25.497018750000002
20
24.085559375000003
30
0
42
0.3578051432831595
0
VERTEX
8
0
10
26.0604
20
24.70715625
30
0
0
VERTEX
8
0
10
26.0604
20
26.09284375
30
0
0
VERTEX
8
0
10
26.054040625000003
20
26.15741875
30
0
42
0.9063462356499619
0
VERTEX
8
0
10
24.739600000000003
20
26.09284375
30
0
0
VERTEX
8
0
10
24.739600000000003
20
24.70715625
30
0
0
VERTEX
8
0
10
24.745959375
20
24.642581250000003
30
0
42
0.38574230593595876
0
VERTEX
8
0
10
25.43244375
20
24.0792
30
0
0
SEQEND
0
POLYLINE
66
1
8
1_copper
10
0.0
20
0.0
30
0.0
70
1
0
VERTEX
8
0
10
18.4404
20
20.046456250000002
30
0
0
VERTEX
8
0
10
18.4404
20
20.593543750000002
30
0
0
VERTEX
8
0
10
18.05354375
20
20.9804
30
0
0
VERTEX
8
0
10
17.50645625
20
20.9804
30
0
0
VERTEX
8
0
10
17.119600000000002
20
20.593543750000002
30
0
0
VERTEX
8
0
10
17.119600000000002
20
20.046456250000002
30
0
0
VERTEX
8
0
10
17.50645625
20
19.6596
30
0
0
VERTEX
8
0
10
18.05354375
20
19.6596
30
0
0
SEQEND
0
POLYLINE
66
1
8
16_copper
10
0.0
20
0.0
30
0.0
70
1
0
VERTEX
8
0
10
18.4404
20
20.046456250000002
30
0
0
VERTEX
8
0
10
18.4404
20
20.593543750000002
30
0
0
VERTEX
8
0
10
18.300853125
20
20.733090625000003
30
0
0
VERTEX
8
0
10
19.0815625
20
21.5138
30
0
0
VERTEX
8
0
10
25.400000000000002
20
21.5138
30
0
0
VERTEX
8
0
10
25.408428125
20
21.515015625
30
0
0
VERTEX
8
0
10
25.41689375
20
21.515696875
30
0
42
0.08765396656356698
0
VERTEX
8
0
10
25.44133125
20
21.52598125
30
0
0
VERTEX
8
0
10
25.446925
20
21.530853125
30
0
0
VERTEX
8
0
10
25.453881250000002
20
21.53611875
30
0
0
VERTEX
8
0
10
26.72388125
20
22.80611875
30
0
0
VERTEX
8
0
10
26.728953125
20
22.812903125000002
30
0
0
VERTEX
8
0
10
26.7344875
20
22.819403125
30
0
42
0.08765145259213399
0
VERTEX
8
0
10
26.744490625
20
22.84395625
30
0
0
VERTEX
8
0
10
26.745
20
22.85133125
30
0
0
VERTEX
8
0
10
26.7462
20
22.86
30
0
0
VERTEX
8
0
10
26.7462
20
24.130000000000003
30
0
0
VERTEX
8
0
10
26.744984375
20
24.138428125
30
0
0
VERTEX
8
0
10
26.744303125000002
20
24.14689375
30
0
42
0.08765396656356698
0
VERTEX
8
0
10
26.73401875
20
24.17133125
30
0
0
VERTEX
8
0
10
26.729146875
20
24.176925
30
0
0
VERTEX
8
0
10
26.72388125
20
24.183881250000002
30
0
0
VERTEX
8
0
10
26.0604
20
24.847362500000003
30
0
0
VERTEX
8
0
10
26.0604
20
26.09284375
30
0
0
VERTEX
8
0
10
26.054040625000003
20
26.15741875
30
0
42
0.9063462356499619
0
VERTEX
8
0
10
24.739600000000003
20
26.09284375
30
0
0
VERTEX
8
0
10
24.739600000000003
20
24.70715625
30
0
0
VERTEX
8
0
10
24.745959375
20
24.642581250000003
30
0
42
0.8601515201916075
0
VERTEX
8
0
10
26.0533125
20
24.638925
30
0
0
VERTEX
8
0
10
26.5938
20
24.098437500000003
30
0
0
VERTEX
8
0
10
26.5938
20
22.891562500000003
30
0
0
VERTEX
8
0
10
25.368437500000002
20
21.6662
30
0
0
VERTEX
8
0
10
19.05
20
21.6662
30
0
0
VERTEX
8
0
10
19.041571875000002
20
21.664984375
30
0
0
VERTEX
8
0
10
19.03310625
20
21.664303125
30
0
42
0.08765396656356698
0
VERTEX
8
0
10
19.008668750000002
20
21.654018750000002
30
0
0
VERTEX
8
0
10
19.003075000000003
20
21.649146875
30
0
0
VERTEX
8
0
10
18.99611875
20
21.64388125
30
0
0
VERTEX
8
0
10
18.193090625
20
20.840853125000002
30
0
0
VERTEX
8
0
10
18.05354375
20
20.9804
30
0
0
VERTEX
8
0
10
17.50645625
20
20.9804
30
0
0
VERTEX
8
0
10
17.119600000000002
20
20.593543750000002
30
0
0
VERTEX
8
0
10
17.119600000000002
20
20.046456250000002
30
0
0
VERTEX
8
0
10
17.50645625
20
19.6596
30
0
0
VERTEX
8
0
10
18.05354375
20
19.6596
30
0
0
SEQEND
0
POLYLINE
66
1
8
1_copper
10
0.0
20
0.0
30
0.0
70
1
0
VERTEX
8
0
10
50.80561875
20
67.2346125
30
0
42
0.39258815634569955
0
VERTEX
8
0
10
50.876200000000004
20
67.31
30
0
0
VERTEX
8
0
10
50.876200000000004
20
100.33
30
0
0
VERTEX
8
0
10
50.8753875
20
100.33561875000001
30
0
42
0.39258815634569955
0
VERTEX
8
0
10
50.800000000000004
20
100.4062
30
0
0
VERTEX
8
0
10
15.24
20
100.4062
30
0
0
VERTEX
8
0
10
15.23438125
20
100.4053875
30
0
42
0.39258815634569955
0
VERTEX
8
0
10
15.1638
20
100.33
30
0
0
VERTEX
8
0
10
15.1638
20
67.31
30
0
0
VERTEX
8
0
10
15.1646125
20
67.30438125
30
0
42
0.39258815634569955
0
VERTEX
8
0
10
15.24
20
67.2338
30
0
0
VERTEX
8
0
10
50.800000000000004
20
67.2338
30
0
0
SEQEND
0
POLYLINE
66
1
8
1_copper
10
0.0
20
0.0
30
0.0
70
1
0
VERTEX
8
0
10
15.3162
20
67.3862
30
0
0
VERTEX
8
0
10
15.3162
20
100.2538
30
0
0
VERTEX
8
0
10
50.723800000000004
20
100.2538
30
0
0
VERTEX
8
0
10
50.723800000000004
20
67.3862
30
0
0
SEQEND
0
POLYLINE
66
1
8
1_copper
10
0.0
20
0.0
30
0.0
70
1
0
VERTEX
8
0
10
53.34561875
20
1.1946125
30
0
42
0.39258815634569955
0
VERTEX
8
0
10
53.4162
20
1.27
30
0
0
VERTEX
8
0
10
53.4162
20
35.56
30
0
0
VERTEX
8
0
10
53.4153875
20
35.56561875
30
0
42
0.39258815634569955
0
VERTEX
8
0
10
53.34
20
35.6362
30
0
0
VERTEX
8
0
10
27.94
20
35.6362
30
0
0
VERTEX
8
0
10
27.93438125
20
35.6353875
30
0
42
0.39258815634569955
0
VERTEX
8
0
10
27.8638
20
35.56
30
0
0
VERTEX
8
0
10
27.8638
20
1.27
30
0
0
VERTEX
8
0
10
27.8646125
20
1.26438125
30
0
42
0.39258815634569955
0
VERTEX
8
0
10
27.94
20
1.1938
30
0
0
VERTEX
8
0
10
53.34
20
1.1938
30
0
0
SEQEND
0
POLYLINE
66
1
8
1_copper
10
0.0
20
0.0
30
0.0
70
1
0
VERTEX
8
0
10
28.0162
20
1.3462
30
0
0
VERTEX
8
0
10
28.0162
20
35.4838
30
0
0
VERTEX
8
0
10
53.2638
20
35.4838
30
0
0
VERTEX
8
0
10
53.2638
20
1.3462
30
0
0
SEQEND
0
CIRCLE
8
drills_PTH
10
36.83
20
33.02
30
0
40
0.508
0
CIRCLE
8
drills_PTH
10
44.45
20
33.02
30
0
40
0.508
0
CIRCLE
8
drills_PTH
10
41.910000000000004
20
33.02
30
0
40
0.508
0
CIRCLE
8
drills_PTH
10
39.370000000000005
20
33.02
30
0
40
0.508
0
CIRCLE
8
drills_PTH
10
36.83
20
71.12
30
0
40
0.508
0
CIRCLE
8
drills_PTH
10
34.29
20
71.12
30
0
40
0.508
0
CIRCLE
8
drills_PTH
10
31.75
20
71.12
30
0
40
0.508
0
CIRCLE
8
drills_PTH
10
29.21
20
71.12
30
0
40
0.508
0
CIRCLE
8
drills_PTH
10
15.24
20
33.02
30
0
40
0.508
0
CIRCLE
8
drills_PTH
10
17.78
20
33.02
30
0
40
0.508
0
CIRCLE
8
drills_PTH
10
20.32
20
33.02
30
0
40
0.508
0
CIRCLE
8
drills_PTH
10
31.75
20
39.370000000000005
30
0
40
0.5
0
CIRCLE
8
drills_PTH
10
34.29
20
39.370000000000005
30
0
40
0.5
0
CIRCLE
8
drills_PTH
10
39.370000000000005
20
39.370000000000005
30
0
40
0.5
0
CIRCLE
8
drills_PTH
10
41.910000000000004
20
39.370000000000005
30
0
40
0.5
0
CIRCLE
8
drills_PTH
10
44.45
20
39.370000000000005
30
0
40
0.5
0
CIRCLE
8
drills_PTH
10
46.99
20
39.370000000000005
30
0
40
0.5
0
CIRCLE
8
drills_PTH
10
49.53
20
39.370000000000005
30
0
40
0.5
0
CIRCLE
8
drills_PTH
10
52.07
20
39.370000000000005
30
0
40
0.5
0
CIRCLE
8
drills_PTH
10
16.51
20
64.77
30
0
40
0.5
0
CIRCLE
8
drills_PTH
10
19.05
20
64.77
30
0
40
0.5
0
CIRCLE
8
drills_PTH
10
21.59
20
64.77
30
0
40
0.5
0
CIRCLE
8
drills_PTH
10
24.130000000000003
20
64.77
30
0
40
0.5
0
CIRCLE
8
drills_PTH
10
26.67
20
64.77
30
0
40
0.5
0
CIRCLE
8
drills_PTH
10
29.21
20
64.77
30
0
40
0.5
0
CIRCLE
8
drills_PTH
10
31.75
20
64.77
30
0
40
0.5
0
CIRCLE
8
drills_PTH
10
34.29
20
64.77
30
0
40
0.5
0
CIRCLE
8
drills_PTH
10
36.83
20
64.77
30
0
40
0.5
0
CIRCLE
8
drills_PTH
10
39.370000000000005
20
64.77
30
0
40
0.5
0
CIRCLE
8
drills_PTH
10
41.910000000000004
20
64.77
30
0
40
0.5
0
CIRCLE
8
drills_PTH
10
44.45
20
64.77
30
0
40
0.5
0
CIRCLE
8
drills_PTH
10
46.99
20
64.77
30
0
40
0.5
0
CIRCLE
8
drills_PTH
10
49.53
20
64.77
30
0
40
0.5
0
CIRCLE
8
drills_PTH
10
52.07
20
64.77
30
0
40
0.5
0
CIRCLE
8
drills_PTH
10
21.59
20
39.370000000000005
30
0
40
0.5
0
CIRCLE
8
drills_PTH
10
16.51
20
39.370000000000005
30
0
40
0.5
0
CIRCLE
8
drills_PTH
10
19.05
20
39.370000000000005
30
0
40
0.5
0
CIRCLE
8
drills_PTH
10
36.83
20
39.370000000000005
30
0
40
0.5
0
CIRCLE
8
drills_PTH
10
24.130000000000003
20
39.370000000000005
30
0
40
0.5
0
CIRCLE
8
drills_PTH
10
26.67
20
39.370000000000005
30
0
40
0.5
0
CIRCLE
8
drills_PTH
10
29.21
20
39.370000000000005
30
0
40
0.5
0
CIRCLE
8
drills_PTH
10
14.530000000000001
20
22.86
30
0
40
0.5
0
CIRCLE
8
drills_PTH
10
8.43
20
22.86
30
0
40
0.5
0
CIRCLE
8
drills_PTH
10
11.43
20
18.060000000000002
30
0
40
0.5
0
CIRCLE
8
drills_NPTH
10
63.246
20
101.60000000000001
30
0
40
0.42500000000000004
0
CIRCLE
8
drills_NPTH
10
1.016
20
1.27
30
0
40
0.42500000000000004
0
CIRCLE
8
drills_NPTH
10
63.246
20
1.27
30
0
40
0.42500000000000004
0
CIRCLE
8
drills_NPTH
10
1.016
20
101.60000000000001
30
0
40
0.42500000000000004
0
CIRCLE
8
drills_PTH
10
17.78
20
20.32
30
0
40
0.40640000000000004
0
CIRCLE
8
drills_PTH
10
25.400000000000002
20
20.32
30
0
40
0.40640000000000004
0
CIRCLE
8
drills_PTH
10
25.400000000000002
20
25.400000000000002
30
0
40
0.40640000000000004
0
CIRCLE
8
drills_PTH
10
22.86
20
25.400000000000002
30
0
40
0.40640000000000004
0
ENDSEC
0
EOF