G04 EAGLE Gerber RS-274X export*
G75*
%MOMM*%
%FSLAX34Y34*%
%LPD*%
%INTop Copper*%
%IPPOS*%
%AMOC8*
5,1,8,0,0,1.08239X$1,22.5*%
G01*
%ADD10C,0.152400*%
%ADD11C,1.930400*%
%ADD12C,2.184400*%
%ADD13R,2.025000X2.025000*%
%ADD14C,2.025000*%
%ADD15R,1.268000X1.268000*%
%ADD16C,1.268000*%


D10*
X203962Y26162D02*
X203962Y42418D01*
X208478Y42418D01*
X208609Y42416D01*
X208741Y42410D01*
X208872Y42401D01*
X209002Y42387D01*
X209133Y42370D01*
X209262Y42349D01*
X209391Y42325D01*
X209519Y42296D01*
X209647Y42264D01*
X209773Y42228D01*
X209898Y42189D01*
X210023Y42146D01*
X210145Y42099D01*
X210267Y42049D01*
X210387Y41995D01*
X210505Y41938D01*
X210621Y41877D01*
X210736Y41813D01*
X210849Y41746D01*
X210960Y41675D01*
X211068Y41601D01*
X211175Y41524D01*
X211279Y41444D01*
X211381Y41361D01*
X211480Y41276D01*
X211577Y41187D01*
X211671Y41095D01*
X211763Y41001D01*
X211852Y40904D01*
X211937Y40805D01*
X212020Y40703D01*
X212100Y40599D01*
X212177Y40492D01*
X212251Y40384D01*
X212322Y40273D01*
X212389Y40160D01*
X212453Y40045D01*
X212514Y39929D01*
X212571Y39811D01*
X212625Y39691D01*
X212675Y39569D01*
X212722Y39447D01*
X212765Y39322D01*
X212804Y39197D01*
X212840Y39071D01*
X212872Y38943D01*
X212901Y38815D01*
X212925Y38686D01*
X212946Y38557D01*
X212963Y38426D01*
X212977Y38296D01*
X212986Y38165D01*
X212992Y38033D01*
X212994Y37902D01*
X212993Y37902D02*
X212993Y30678D01*
X212994Y30678D02*
X212992Y30547D01*
X212986Y30415D01*
X212977Y30284D01*
X212963Y30154D01*
X212946Y30023D01*
X212925Y29894D01*
X212901Y29765D01*
X212872Y29637D01*
X212840Y29509D01*
X212804Y29383D01*
X212765Y29258D01*
X212722Y29133D01*
X212675Y29011D01*
X212625Y28889D01*
X212571Y28769D01*
X212514Y28651D01*
X212453Y28535D01*
X212389Y28420D01*
X212322Y28307D01*
X212251Y28196D01*
X212177Y28088D01*
X212100Y27981D01*
X212020Y27877D01*
X211937Y27775D01*
X211852Y27676D01*
X211763Y27579D01*
X211671Y27485D01*
X211577Y27393D01*
X211480Y27304D01*
X211381Y27219D01*
X211279Y27136D01*
X211175Y27056D01*
X211068Y26979D01*
X210960Y26905D01*
X210849Y26834D01*
X210736Y26767D01*
X210621Y26703D01*
X210505Y26642D01*
X210387Y26585D01*
X210267Y26531D01*
X210145Y26481D01*
X210023Y26434D01*
X209898Y26391D01*
X209773Y26352D01*
X209647Y26316D01*
X209519Y26284D01*
X209391Y26255D01*
X209262Y26231D01*
X209132Y26210D01*
X209002Y26193D01*
X208872Y26179D01*
X208741Y26170D01*
X208609Y26164D01*
X208478Y26162D01*
X203962Y26162D01*
X220635Y26162D02*
X220635Y42418D01*
X220635Y35193D02*
X229666Y35193D01*
X229666Y42418D02*
X229666Y26162D01*
X240261Y26162D02*
X240261Y42418D01*
X235746Y42418D02*
X244777Y42418D01*
X263638Y42418D02*
X263763Y42416D01*
X263888Y42410D01*
X264013Y42401D01*
X264137Y42387D01*
X264261Y42370D01*
X264385Y42349D01*
X264507Y42324D01*
X264629Y42295D01*
X264750Y42263D01*
X264870Y42227D01*
X264989Y42187D01*
X265106Y42144D01*
X265222Y42097D01*
X265337Y42046D01*
X265449Y41992D01*
X265561Y41934D01*
X265670Y41874D01*
X265777Y41809D01*
X265883Y41742D01*
X265986Y41671D01*
X266087Y41597D01*
X266186Y41520D01*
X266282Y41440D01*
X266376Y41357D01*
X266467Y41272D01*
X266556Y41183D01*
X266641Y41092D01*
X266724Y40998D01*
X266804Y40902D01*
X266881Y40803D01*
X266955Y40702D01*
X267026Y40599D01*
X267093Y40493D01*
X267158Y40386D01*
X267218Y40277D01*
X267276Y40165D01*
X267330Y40053D01*
X267381Y39938D01*
X267428Y39822D01*
X267471Y39705D01*
X267511Y39586D01*
X267547Y39466D01*
X267579Y39345D01*
X267608Y39223D01*
X267633Y39101D01*
X267654Y38977D01*
X267671Y38853D01*
X267685Y38729D01*
X267694Y38604D01*
X267700Y38479D01*
X267702Y38354D01*
X263638Y42418D02*
X263495Y42416D01*
X263353Y42410D01*
X263210Y42400D01*
X263068Y42387D01*
X262927Y42369D01*
X262785Y42348D01*
X262645Y42323D01*
X262505Y42294D01*
X262366Y42261D01*
X262228Y42224D01*
X262091Y42184D01*
X261956Y42140D01*
X261821Y42092D01*
X261688Y42040D01*
X261556Y41985D01*
X261426Y41926D01*
X261298Y41864D01*
X261171Y41798D01*
X261046Y41729D01*
X260923Y41657D01*
X260803Y41581D01*
X260684Y41502D01*
X260567Y41419D01*
X260453Y41334D01*
X260341Y41245D01*
X260232Y41154D01*
X260125Y41059D01*
X260020Y40962D01*
X259919Y40861D01*
X259820Y40758D01*
X259724Y40653D01*
X259631Y40544D01*
X259541Y40433D01*
X259454Y40320D01*
X259370Y40205D01*
X259290Y40087D01*
X259212Y39967D01*
X259138Y39845D01*
X259068Y39721D01*
X259000Y39595D01*
X258937Y39467D01*
X258876Y39338D01*
X258819Y39207D01*
X258766Y39075D01*
X258717Y38941D01*
X258671Y38806D01*
X266347Y35193D02*
X266441Y35285D01*
X266531Y35379D01*
X266619Y35476D01*
X266704Y35576D01*
X266786Y35678D01*
X266865Y35783D01*
X266940Y35890D01*
X267012Y35999D01*
X267081Y36110D01*
X267147Y36224D01*
X267209Y36339D01*
X267268Y36456D01*
X267323Y36575D01*
X267374Y36695D01*
X267422Y36817D01*
X267467Y36940D01*
X267507Y37064D01*
X267544Y37190D01*
X267577Y37317D01*
X267606Y37444D01*
X267632Y37573D01*
X267653Y37702D01*
X267671Y37832D01*
X267684Y37962D01*
X267694Y38092D01*
X267700Y38223D01*
X267702Y38354D01*
X266348Y35193D02*
X258671Y26162D01*
X267702Y26162D01*
X283334Y38354D02*
X283332Y38479D01*
X283326Y38604D01*
X283317Y38729D01*
X283303Y38853D01*
X283286Y38977D01*
X283265Y39101D01*
X283240Y39223D01*
X283211Y39345D01*
X283179Y39466D01*
X283143Y39586D01*
X283103Y39705D01*
X283060Y39822D01*
X283013Y39938D01*
X282962Y40053D01*
X282908Y40165D01*
X282850Y40277D01*
X282790Y40386D01*
X282725Y40493D01*
X282658Y40599D01*
X282587Y40702D01*
X282513Y40803D01*
X282436Y40902D01*
X282356Y40998D01*
X282273Y41092D01*
X282188Y41183D01*
X282099Y41272D01*
X282008Y41357D01*
X281914Y41440D01*
X281818Y41520D01*
X281719Y41597D01*
X281618Y41671D01*
X281515Y41742D01*
X281409Y41809D01*
X281302Y41874D01*
X281193Y41934D01*
X281081Y41992D01*
X280969Y42046D01*
X280854Y42097D01*
X280738Y42144D01*
X280621Y42187D01*
X280502Y42227D01*
X280382Y42263D01*
X280261Y42295D01*
X280139Y42324D01*
X280017Y42349D01*
X279893Y42370D01*
X279769Y42387D01*
X279645Y42401D01*
X279520Y42410D01*
X279395Y42416D01*
X279270Y42418D01*
X279127Y42416D01*
X278985Y42410D01*
X278842Y42400D01*
X278700Y42387D01*
X278559Y42369D01*
X278417Y42348D01*
X278277Y42323D01*
X278137Y42294D01*
X277998Y42261D01*
X277860Y42224D01*
X277723Y42184D01*
X277588Y42140D01*
X277453Y42092D01*
X277320Y42040D01*
X277188Y41985D01*
X277058Y41926D01*
X276930Y41864D01*
X276803Y41798D01*
X276678Y41729D01*
X276555Y41657D01*
X276435Y41581D01*
X276316Y41502D01*
X276199Y41419D01*
X276085Y41334D01*
X275973Y41245D01*
X275864Y41154D01*
X275757Y41059D01*
X275652Y40962D01*
X275551Y40861D01*
X275452Y40758D01*
X275356Y40653D01*
X275263Y40544D01*
X275173Y40433D01*
X275086Y40320D01*
X275002Y40205D01*
X274922Y40087D01*
X274844Y39967D01*
X274770Y39845D01*
X274700Y39721D01*
X274632Y39595D01*
X274569Y39467D01*
X274508Y39338D01*
X274451Y39207D01*
X274398Y39075D01*
X274349Y38941D01*
X274303Y38806D01*
X281979Y35193D02*
X282073Y35285D01*
X282163Y35379D01*
X282251Y35476D01*
X282336Y35576D01*
X282418Y35678D01*
X282497Y35783D01*
X282572Y35890D01*
X282644Y35999D01*
X282713Y36110D01*
X282779Y36224D01*
X282841Y36339D01*
X282900Y36456D01*
X282955Y36575D01*
X283006Y36695D01*
X283054Y36817D01*
X283099Y36940D01*
X283139Y37064D01*
X283176Y37190D01*
X283209Y37317D01*
X283238Y37444D01*
X283264Y37573D01*
X283285Y37702D01*
X283303Y37832D01*
X283316Y37962D01*
X283326Y38092D01*
X283332Y38223D01*
X283334Y38354D01*
X281979Y35193D02*
X274303Y26162D01*
X283334Y26162D01*
X202099Y70584D02*
X191262Y70584D01*
X196681Y76002D02*
X196681Y65165D01*
X229362Y64262D02*
X229362Y80518D01*
X233878Y80518D01*
X234009Y80516D01*
X234141Y80510D01*
X234272Y80501D01*
X234402Y80487D01*
X234533Y80470D01*
X234662Y80449D01*
X234791Y80425D01*
X234919Y80396D01*
X235047Y80364D01*
X235173Y80328D01*
X235298Y80289D01*
X235423Y80246D01*
X235545Y80199D01*
X235667Y80149D01*
X235787Y80095D01*
X235905Y80038D01*
X236021Y79977D01*
X236136Y79913D01*
X236249Y79846D01*
X236360Y79775D01*
X236468Y79701D01*
X236575Y79624D01*
X236679Y79544D01*
X236781Y79461D01*
X236880Y79376D01*
X236977Y79287D01*
X237071Y79195D01*
X237163Y79101D01*
X237252Y79004D01*
X237337Y78905D01*
X237420Y78803D01*
X237500Y78699D01*
X237577Y78592D01*
X237651Y78484D01*
X237722Y78373D01*
X237789Y78260D01*
X237853Y78145D01*
X237914Y78029D01*
X237971Y77911D01*
X238025Y77791D01*
X238075Y77669D01*
X238122Y77547D01*
X238165Y77422D01*
X238204Y77297D01*
X238240Y77171D01*
X238272Y77043D01*
X238301Y76915D01*
X238325Y76786D01*
X238346Y76657D01*
X238363Y76526D01*
X238377Y76396D01*
X238386Y76265D01*
X238392Y76133D01*
X238394Y76002D01*
X238393Y76002D02*
X238393Y68778D01*
X238394Y68778D02*
X238392Y68647D01*
X238386Y68515D01*
X238377Y68384D01*
X238363Y68254D01*
X238346Y68123D01*
X238325Y67994D01*
X238301Y67865D01*
X238272Y67737D01*
X238240Y67609D01*
X238204Y67483D01*
X238165Y67358D01*
X238122Y67233D01*
X238075Y67111D01*
X238025Y66989D01*
X237971Y66869D01*
X237914Y66751D01*
X237853Y66635D01*
X237789Y66520D01*
X237722Y66407D01*
X237651Y66296D01*
X237577Y66188D01*
X237500Y66081D01*
X237420Y65977D01*
X237337Y65875D01*
X237252Y65776D01*
X237163Y65679D01*
X237071Y65585D01*
X236977Y65493D01*
X236880Y65404D01*
X236781Y65319D01*
X236679Y65236D01*
X236575Y65156D01*
X236468Y65079D01*
X236360Y65005D01*
X236249Y64934D01*
X236136Y64867D01*
X236021Y64803D01*
X235905Y64742D01*
X235787Y64685D01*
X235667Y64631D01*
X235545Y64581D01*
X235423Y64534D01*
X235298Y64491D01*
X235173Y64452D01*
X235047Y64416D01*
X234919Y64384D01*
X234791Y64355D01*
X234662Y64331D01*
X234532Y64310D01*
X234402Y64293D01*
X234272Y64279D01*
X234141Y64270D01*
X234009Y64264D01*
X233878Y64262D01*
X229362Y64262D01*
X267462Y70584D02*
X278299Y70584D01*
X369062Y70584D02*
X379899Y70584D01*
X374481Y65165D02*
X374481Y76002D01*
X394462Y70584D02*
X405299Y70584D01*
X414726Y47893D02*
X414844Y47891D01*
X414962Y47885D01*
X415080Y47876D01*
X415197Y47862D01*
X415314Y47845D01*
X415431Y47824D01*
X415546Y47799D01*
X415661Y47770D01*
X415775Y47737D01*
X415887Y47701D01*
X415998Y47661D01*
X416108Y47618D01*
X416217Y47571D01*
X416324Y47521D01*
X416429Y47466D01*
X416532Y47409D01*
X416633Y47348D01*
X416733Y47284D01*
X416830Y47217D01*
X416925Y47147D01*
X417017Y47073D01*
X417108Y46997D01*
X417195Y46917D01*
X417280Y46835D01*
X417362Y46750D01*
X417442Y46663D01*
X417518Y46572D01*
X417592Y46480D01*
X417662Y46385D01*
X417729Y46288D01*
X417793Y46188D01*
X417854Y46087D01*
X417911Y45984D01*
X417966Y45879D01*
X418016Y45772D01*
X418063Y45663D01*
X418106Y45553D01*
X418146Y45442D01*
X418182Y45330D01*
X418215Y45216D01*
X418244Y45101D01*
X418269Y44986D01*
X418290Y44869D01*
X418307Y44752D01*
X418321Y44635D01*
X418330Y44517D01*
X418336Y44399D01*
X418338Y44281D01*
X418336Y44098D01*
X418329Y43916D01*
X418318Y43734D01*
X418303Y43552D01*
X418283Y43370D01*
X418260Y43189D01*
X418231Y43009D01*
X418199Y42829D01*
X418162Y42650D01*
X418121Y42473D01*
X418075Y42296D01*
X418026Y42120D01*
X417972Y41946D01*
X417914Y41772D01*
X417852Y41601D01*
X417786Y41431D01*
X417715Y41262D01*
X417641Y41095D01*
X417563Y40930D01*
X417481Y40767D01*
X417395Y40606D01*
X417305Y40447D01*
X417211Y40290D01*
X417114Y40136D01*
X417013Y39984D01*
X416908Y39834D01*
X416800Y39687D01*
X416689Y39543D01*
X416574Y39401D01*
X416455Y39262D01*
X416333Y39126D01*
X416208Y38993D01*
X416080Y38863D01*
X405694Y39314D02*
X405576Y39316D01*
X405458Y39322D01*
X405340Y39331D01*
X405223Y39345D01*
X405106Y39362D01*
X404989Y39383D01*
X404874Y39408D01*
X404759Y39437D01*
X404645Y39470D01*
X404533Y39506D01*
X404422Y39546D01*
X404312Y39589D01*
X404203Y39636D01*
X404096Y39686D01*
X403991Y39741D01*
X403888Y39798D01*
X403787Y39859D01*
X403687Y39923D01*
X403590Y39990D01*
X403495Y40060D01*
X403403Y40134D01*
X403312Y40210D01*
X403225Y40290D01*
X403140Y40372D01*
X403058Y40457D01*
X402978Y40544D01*
X402902Y40635D01*
X402828Y40727D01*
X402758Y40822D01*
X402691Y40919D01*
X402627Y41019D01*
X402566Y41120D01*
X402509Y41223D01*
X402454Y41328D01*
X402404Y41435D01*
X402357Y41544D01*
X402314Y41654D01*
X402274Y41765D01*
X402238Y41877D01*
X402205Y41991D01*
X402176Y42106D01*
X402151Y42221D01*
X402130Y42338D01*
X402113Y42455D01*
X402099Y42572D01*
X402090Y42690D01*
X402084Y42808D01*
X402082Y42926D01*
X402084Y43087D01*
X402090Y43249D01*
X402099Y43410D01*
X402113Y43571D01*
X402130Y43731D01*
X402151Y43891D01*
X402176Y44051D01*
X402205Y44210D01*
X402237Y44368D01*
X402273Y44525D01*
X402313Y44681D01*
X402357Y44837D01*
X402405Y44991D01*
X402456Y45144D01*
X402510Y45296D01*
X402569Y45447D01*
X402630Y45596D01*
X402696Y45743D01*
X402765Y45889D01*
X402837Y46034D01*
X402913Y46176D01*
X402992Y46317D01*
X403074Y46456D01*
X403160Y46592D01*
X403249Y46727D01*
X403341Y46860D01*
X403437Y46990D01*
X408855Y41119D02*
X408793Y41018D01*
X408728Y40918D01*
X408659Y40821D01*
X408587Y40726D01*
X408513Y40633D01*
X408435Y40543D01*
X408354Y40455D01*
X408271Y40370D01*
X408185Y40288D01*
X408096Y40209D01*
X408005Y40132D01*
X407911Y40059D01*
X407815Y39988D01*
X407717Y39921D01*
X407617Y39857D01*
X407514Y39796D01*
X407410Y39739D01*
X407304Y39685D01*
X407196Y39635D01*
X407087Y39588D01*
X406976Y39544D01*
X406864Y39504D01*
X406750Y39468D01*
X406636Y39436D01*
X406520Y39407D01*
X406404Y39382D01*
X406287Y39361D01*
X406169Y39344D01*
X406051Y39330D01*
X405932Y39321D01*
X405813Y39315D01*
X405694Y39313D01*
X411565Y46087D02*
X411627Y46188D01*
X411692Y46288D01*
X411761Y46385D01*
X411833Y46480D01*
X411907Y46573D01*
X411985Y46663D01*
X412066Y46751D01*
X412149Y46836D01*
X412235Y46918D01*
X412324Y46997D01*
X412415Y47074D01*
X412509Y47147D01*
X412605Y47218D01*
X412703Y47285D01*
X412803Y47349D01*
X412906Y47410D01*
X413010Y47467D01*
X413116Y47521D01*
X413224Y47571D01*
X413333Y47618D01*
X413444Y47662D01*
X413556Y47702D01*
X413670Y47738D01*
X413784Y47770D01*
X413900Y47799D01*
X414016Y47824D01*
X414133Y47845D01*
X414251Y47862D01*
X414369Y47876D01*
X414488Y47885D01*
X414607Y47891D01*
X414726Y47893D01*
X411565Y46087D02*
X408855Y41120D01*
X418338Y57545D02*
X418338Y61158D01*
X418338Y57545D02*
X418336Y57427D01*
X418330Y57309D01*
X418321Y57191D01*
X418307Y57074D01*
X418290Y56957D01*
X418269Y56840D01*
X418244Y56725D01*
X418215Y56610D01*
X418182Y56496D01*
X418146Y56384D01*
X418106Y56273D01*
X418063Y56163D01*
X418016Y56054D01*
X417966Y55947D01*
X417911Y55842D01*
X417854Y55739D01*
X417793Y55638D01*
X417729Y55538D01*
X417662Y55441D01*
X417592Y55346D01*
X417518Y55254D01*
X417442Y55163D01*
X417362Y55076D01*
X417280Y54991D01*
X417195Y54909D01*
X417108Y54829D01*
X417017Y54753D01*
X416925Y54679D01*
X416830Y54609D01*
X416733Y54542D01*
X416633Y54478D01*
X416532Y54417D01*
X416429Y54360D01*
X416324Y54305D01*
X416217Y54255D01*
X416108Y54208D01*
X415998Y54165D01*
X415887Y54125D01*
X415775Y54089D01*
X415661Y54056D01*
X415546Y54027D01*
X415431Y54002D01*
X415314Y53981D01*
X415197Y53964D01*
X415080Y53950D01*
X414962Y53941D01*
X414844Y53935D01*
X414726Y53933D01*
X405694Y53933D01*
X405694Y53932D02*
X405576Y53934D01*
X405458Y53940D01*
X405340Y53949D01*
X405222Y53963D01*
X405105Y53980D01*
X404989Y54001D01*
X404874Y54026D01*
X404759Y54055D01*
X404645Y54088D01*
X404533Y54124D01*
X404421Y54164D01*
X404311Y54207D01*
X404203Y54254D01*
X404096Y54305D01*
X403991Y54359D01*
X403888Y54416D01*
X403786Y54477D01*
X403687Y54541D01*
X403590Y54608D01*
X403495Y54679D01*
X403402Y54752D01*
X403312Y54829D01*
X403224Y54908D01*
X403139Y54990D01*
X403057Y55075D01*
X402978Y55163D01*
X402901Y55253D01*
X402828Y55346D01*
X402757Y55440D01*
X402690Y55538D01*
X402626Y55637D01*
X402565Y55738D01*
X402508Y55842D01*
X402454Y55947D01*
X402403Y56054D01*
X402356Y56162D01*
X402313Y56272D01*
X402273Y56384D01*
X402237Y56496D01*
X402204Y56610D01*
X402175Y56725D01*
X402150Y56840D01*
X402129Y56956D01*
X402112Y57073D01*
X402098Y57191D01*
X402089Y57309D01*
X402083Y57427D01*
X402081Y57545D01*
X402082Y57545D02*
X402082Y61158D01*
X402082Y67549D02*
X418338Y67549D01*
X418338Y74774D01*
X440126Y47893D02*
X440244Y47891D01*
X440362Y47885D01*
X440480Y47876D01*
X440597Y47862D01*
X440714Y47845D01*
X440831Y47824D01*
X440946Y47799D01*
X441061Y47770D01*
X441175Y47737D01*
X441287Y47701D01*
X441398Y47661D01*
X441508Y47618D01*
X441617Y47571D01*
X441724Y47521D01*
X441829Y47466D01*
X441932Y47409D01*
X442033Y47348D01*
X442133Y47284D01*
X442230Y47217D01*
X442325Y47147D01*
X442417Y47073D01*
X442508Y46997D01*
X442595Y46917D01*
X442680Y46835D01*
X442762Y46750D01*
X442842Y46663D01*
X442918Y46572D01*
X442992Y46480D01*
X443062Y46385D01*
X443129Y46288D01*
X443193Y46188D01*
X443254Y46087D01*
X443311Y45984D01*
X443366Y45879D01*
X443416Y45772D01*
X443463Y45663D01*
X443506Y45553D01*
X443546Y45442D01*
X443582Y45330D01*
X443615Y45216D01*
X443644Y45101D01*
X443669Y44986D01*
X443690Y44869D01*
X443707Y44752D01*
X443721Y44635D01*
X443730Y44517D01*
X443736Y44399D01*
X443738Y44281D01*
X443736Y44098D01*
X443729Y43916D01*
X443718Y43734D01*
X443703Y43552D01*
X443683Y43370D01*
X443660Y43189D01*
X443631Y43009D01*
X443599Y42829D01*
X443562Y42650D01*
X443521Y42473D01*
X443475Y42296D01*
X443426Y42120D01*
X443372Y41946D01*
X443314Y41772D01*
X443252Y41601D01*
X443186Y41431D01*
X443115Y41262D01*
X443041Y41095D01*
X442963Y40930D01*
X442881Y40767D01*
X442795Y40606D01*
X442705Y40447D01*
X442611Y40290D01*
X442514Y40136D01*
X442413Y39984D01*
X442308Y39834D01*
X442200Y39687D01*
X442089Y39543D01*
X441974Y39401D01*
X441855Y39262D01*
X441733Y39126D01*
X441608Y38993D01*
X441480Y38863D01*
X431094Y39314D02*
X430976Y39316D01*
X430858Y39322D01*
X430740Y39331D01*
X430623Y39345D01*
X430506Y39362D01*
X430389Y39383D01*
X430274Y39408D01*
X430159Y39437D01*
X430045Y39470D01*
X429933Y39506D01*
X429822Y39546D01*
X429712Y39589D01*
X429603Y39636D01*
X429496Y39686D01*
X429391Y39741D01*
X429288Y39798D01*
X429187Y39859D01*
X429087Y39923D01*
X428990Y39990D01*
X428895Y40060D01*
X428803Y40134D01*
X428712Y40210D01*
X428625Y40290D01*
X428540Y40372D01*
X428458Y40457D01*
X428378Y40544D01*
X428302Y40635D01*
X428228Y40727D01*
X428158Y40822D01*
X428091Y40919D01*
X428027Y41019D01*
X427966Y41120D01*
X427909Y41223D01*
X427854Y41328D01*
X427804Y41435D01*
X427757Y41544D01*
X427714Y41654D01*
X427674Y41765D01*
X427638Y41877D01*
X427605Y41991D01*
X427576Y42106D01*
X427551Y42221D01*
X427530Y42338D01*
X427513Y42455D01*
X427499Y42572D01*
X427490Y42690D01*
X427484Y42808D01*
X427482Y42926D01*
X427484Y43087D01*
X427490Y43249D01*
X427499Y43410D01*
X427513Y43571D01*
X427530Y43731D01*
X427551Y43891D01*
X427576Y44051D01*
X427605Y44210D01*
X427637Y44368D01*
X427673Y44525D01*
X427713Y44681D01*
X427757Y44837D01*
X427805Y44991D01*
X427856Y45144D01*
X427910Y45296D01*
X427969Y45447D01*
X428030Y45596D01*
X428096Y45743D01*
X428165Y45889D01*
X428237Y46034D01*
X428313Y46176D01*
X428392Y46317D01*
X428474Y46456D01*
X428560Y46592D01*
X428649Y46727D01*
X428741Y46860D01*
X428837Y46990D01*
X434255Y41119D02*
X434193Y41018D01*
X434128Y40918D01*
X434059Y40821D01*
X433987Y40726D01*
X433913Y40633D01*
X433835Y40543D01*
X433754Y40455D01*
X433671Y40370D01*
X433585Y40288D01*
X433496Y40209D01*
X433405Y40132D01*
X433311Y40059D01*
X433215Y39988D01*
X433117Y39921D01*
X433017Y39857D01*
X432914Y39796D01*
X432810Y39739D01*
X432704Y39685D01*
X432596Y39635D01*
X432487Y39588D01*
X432376Y39544D01*
X432264Y39504D01*
X432150Y39468D01*
X432036Y39436D01*
X431920Y39407D01*
X431804Y39382D01*
X431687Y39361D01*
X431569Y39344D01*
X431451Y39330D01*
X431332Y39321D01*
X431213Y39315D01*
X431094Y39313D01*
X436965Y46087D02*
X437027Y46188D01*
X437092Y46288D01*
X437161Y46385D01*
X437233Y46480D01*
X437307Y46573D01*
X437385Y46663D01*
X437466Y46751D01*
X437549Y46836D01*
X437635Y46918D01*
X437724Y46997D01*
X437815Y47074D01*
X437909Y47147D01*
X438005Y47218D01*
X438103Y47285D01*
X438203Y47349D01*
X438306Y47410D01*
X438410Y47467D01*
X438516Y47521D01*
X438624Y47571D01*
X438733Y47618D01*
X438844Y47662D01*
X438956Y47702D01*
X439070Y47738D01*
X439184Y47770D01*
X439300Y47799D01*
X439416Y47824D01*
X439533Y47845D01*
X439651Y47862D01*
X439769Y47876D01*
X439888Y47885D01*
X440007Y47891D01*
X440126Y47893D01*
X436965Y46087D02*
X434255Y41120D01*
X427482Y54493D02*
X443738Y54493D01*
X427482Y54493D02*
X427482Y59009D01*
X427484Y59140D01*
X427490Y59272D01*
X427499Y59403D01*
X427513Y59533D01*
X427530Y59664D01*
X427551Y59793D01*
X427575Y59922D01*
X427604Y60050D01*
X427636Y60178D01*
X427672Y60304D01*
X427711Y60429D01*
X427754Y60554D01*
X427801Y60676D01*
X427851Y60798D01*
X427905Y60918D01*
X427962Y61036D01*
X428023Y61152D01*
X428087Y61267D01*
X428154Y61380D01*
X428225Y61491D01*
X428299Y61599D01*
X428376Y61706D01*
X428456Y61810D01*
X428539Y61912D01*
X428624Y62011D01*
X428713Y62108D01*
X428805Y62202D01*
X428899Y62294D01*
X428996Y62383D01*
X429095Y62468D01*
X429197Y62551D01*
X429301Y62631D01*
X429408Y62708D01*
X429516Y62782D01*
X429627Y62853D01*
X429740Y62920D01*
X429855Y62984D01*
X429971Y63045D01*
X430089Y63102D01*
X430209Y63156D01*
X430331Y63206D01*
X430453Y63253D01*
X430578Y63296D01*
X430703Y63335D01*
X430829Y63371D01*
X430957Y63403D01*
X431085Y63432D01*
X431214Y63456D01*
X431343Y63477D01*
X431474Y63494D01*
X431604Y63508D01*
X431735Y63517D01*
X431867Y63523D01*
X431998Y63525D01*
X431998Y63524D02*
X439222Y63524D01*
X439222Y63525D02*
X439353Y63523D01*
X439485Y63517D01*
X439616Y63508D01*
X439746Y63494D01*
X439877Y63477D01*
X440006Y63456D01*
X440135Y63432D01*
X440263Y63403D01*
X440391Y63371D01*
X440517Y63335D01*
X440642Y63296D01*
X440767Y63253D01*
X440889Y63206D01*
X441011Y63156D01*
X441131Y63102D01*
X441249Y63045D01*
X441365Y62984D01*
X441480Y62920D01*
X441593Y62853D01*
X441704Y62782D01*
X441812Y62708D01*
X441919Y62631D01*
X442023Y62551D01*
X442125Y62468D01*
X442224Y62383D01*
X442321Y62294D01*
X442415Y62202D01*
X442507Y62108D01*
X442596Y62011D01*
X442681Y61912D01*
X442764Y61810D01*
X442844Y61706D01*
X442921Y61599D01*
X442995Y61491D01*
X443066Y61380D01*
X443133Y61267D01*
X443197Y61152D01*
X443258Y61036D01*
X443315Y60918D01*
X443369Y60798D01*
X443419Y60676D01*
X443466Y60554D01*
X443509Y60429D01*
X443548Y60304D01*
X443584Y60178D01*
X443616Y60050D01*
X443645Y59922D01*
X443669Y59793D01*
X443690Y59663D01*
X443707Y59533D01*
X443721Y59403D01*
X443730Y59272D01*
X443736Y59140D01*
X443738Y59009D01*
X443738Y54493D01*
X443738Y71378D02*
X427482Y71378D01*
X427482Y80409D02*
X437416Y71378D01*
X433804Y74990D02*
X443738Y80409D01*
X521462Y108684D02*
X532299Y108684D01*
X526881Y103265D02*
X526881Y114102D01*
X534162Y108684D02*
X544999Y108684D01*
X559562Y102362D02*
X559562Y118618D01*
X564078Y118618D01*
X564209Y118616D01*
X564341Y118610D01*
X564472Y118601D01*
X564602Y118587D01*
X564733Y118570D01*
X564862Y118549D01*
X564991Y118525D01*
X565119Y118496D01*
X565247Y118464D01*
X565373Y118428D01*
X565498Y118389D01*
X565623Y118346D01*
X565745Y118299D01*
X565867Y118249D01*
X565987Y118195D01*
X566105Y118138D01*
X566221Y118077D01*
X566336Y118013D01*
X566449Y117946D01*
X566560Y117875D01*
X566668Y117801D01*
X566775Y117724D01*
X566879Y117644D01*
X566981Y117561D01*
X567080Y117476D01*
X567177Y117387D01*
X567271Y117295D01*
X567363Y117201D01*
X567452Y117104D01*
X567537Y117005D01*
X567620Y116903D01*
X567700Y116799D01*
X567777Y116692D01*
X567851Y116584D01*
X567922Y116473D01*
X567989Y116360D01*
X568053Y116245D01*
X568114Y116129D01*
X568171Y116011D01*
X568225Y115891D01*
X568275Y115769D01*
X568322Y115647D01*
X568365Y115522D01*
X568404Y115397D01*
X568440Y115271D01*
X568472Y115143D01*
X568501Y115015D01*
X568525Y114886D01*
X568546Y114757D01*
X568563Y114626D01*
X568577Y114496D01*
X568586Y114365D01*
X568592Y114233D01*
X568594Y114102D01*
X568593Y114102D02*
X568593Y106878D01*
X568594Y106878D02*
X568592Y106747D01*
X568586Y106615D01*
X568577Y106484D01*
X568563Y106354D01*
X568546Y106223D01*
X568525Y106094D01*
X568501Y105965D01*
X568472Y105837D01*
X568440Y105709D01*
X568404Y105583D01*
X568365Y105458D01*
X568322Y105333D01*
X568275Y105211D01*
X568225Y105089D01*
X568171Y104969D01*
X568114Y104851D01*
X568053Y104735D01*
X567989Y104620D01*
X567922Y104507D01*
X567851Y104396D01*
X567777Y104288D01*
X567700Y104181D01*
X567620Y104077D01*
X567537Y103975D01*
X567452Y103876D01*
X567363Y103779D01*
X567271Y103685D01*
X567177Y103593D01*
X567080Y103504D01*
X566981Y103419D01*
X566879Y103336D01*
X566775Y103256D01*
X566668Y103179D01*
X566560Y103105D01*
X566449Y103034D01*
X566336Y102967D01*
X566221Y102903D01*
X566105Y102842D01*
X565987Y102785D01*
X565867Y102731D01*
X565745Y102681D01*
X565623Y102634D01*
X565498Y102591D01*
X565373Y102552D01*
X565247Y102516D01*
X565119Y102484D01*
X564991Y102455D01*
X564862Y102431D01*
X564732Y102410D01*
X564602Y102393D01*
X564472Y102379D01*
X564341Y102370D01*
X564209Y102364D01*
X564078Y102362D01*
X559562Y102362D01*
D11*
X165100Y241300D03*
X190500Y241300D03*
X215900Y241300D03*
X241300Y241300D03*
X266700Y241300D03*
X292100Y241300D03*
X317500Y241300D03*
X342900Y241300D03*
X368300Y241300D03*
X393700Y241300D03*
X419100Y241300D03*
X444500Y241300D03*
X469900Y241300D03*
X495300Y241300D03*
X520700Y241300D03*
X165100Y495300D03*
X190500Y495300D03*
X215900Y495300D03*
X241300Y495300D03*
X266700Y495300D03*
X292100Y495300D03*
X317500Y495300D03*
X342900Y495300D03*
X368300Y495300D03*
X393700Y495300D03*
X419100Y495300D03*
X444500Y495300D03*
X469900Y495300D03*
X495300Y495300D03*
X520700Y495300D03*
D12*
X124200Y87122D02*
X124200Y65278D01*
X87122Y46200D02*
X65278Y46200D01*
X65278Y106200D02*
X87122Y106200D01*
D13*
X203200Y127000D03*
D14*
X238200Y127000D03*
X273200Y127000D03*
D15*
X387350Y101600D03*
D16*
X400050Y101600D03*
X412750Y101600D03*
X425450Y101600D03*
D15*
X527050Y139700D03*
D16*
X539750Y139700D03*
X552450Y139700D03*
X565150Y139700D03*
D10*
X456641Y92964D02*
X393827Y92964D01*
X387350Y101600D01*
X456641Y92964D02*
X504190Y152400D01*
X514350Y152400D01*
X527050Y139700D01*
X124200Y76200D02*
X114300Y76200D01*
X124200Y76200D02*
X480060Y76200D01*
X539750Y135890D02*
X539750Y139700D01*
X539750Y135890D02*
X480060Y76200D01*
X177800Y482600D02*
X190500Y495300D01*
X177800Y482600D02*
X177800Y297688D01*
X114300Y234188D01*
X114300Y76200D01*
X97536Y76200D02*
X76200Y54864D01*
X76200Y46200D01*
X97536Y76200D02*
X124200Y76200D01*
X153416Y165100D02*
X153416Y229616D01*
X153416Y165100D02*
X191516Y127000D01*
X153416Y229616D02*
X165100Y241300D01*
X191516Y127000D02*
X203200Y127000D01*
X254000Y228600D02*
X266700Y241300D01*
X254000Y228600D02*
X254000Y156464D01*
X238937Y141401D01*
X238200Y127000D01*
X425450Y101600D02*
X437388Y113538D01*
X437388Y184404D01*
X419100Y202692D01*
X419100Y241300D01*
X482600Y406400D02*
X444500Y444500D01*
X444500Y495300D01*
X482600Y406400D02*
X482600Y236220D01*
X565150Y153670D02*
X565150Y139700D01*
X565150Y153670D02*
X482600Y236220D01*
X387858Y113792D02*
X275904Y113792D01*
X387858Y113792D02*
X400050Y101600D01*
X275904Y113792D02*
X273200Y127000D01*
M02*
