G04 EAGLE Gerber RS-274X export*
G75*
%MOMM*%
%FSLAX34Y34*%
%LPD*%
%INBottom Copper*%
%IPPOS*%
%AMOC8*
5,1,8,0,0,1.08239X$1,22.5*%
G01*
%ADD10C,1.930400*%
%ADD11C,2.184400*%
%ADD12R,2.025000X2.025000*%
%ADD13C,2.025000*%
%ADD14R,1.268000X1.268000*%
%ADD15C,1.268000*%
%ADD16C,0.152400*%


D10*
X165100Y241300D03*
X190500Y241300D03*
X215900Y241300D03*
X241300Y241300D03*
X266700Y241300D03*
X292100Y241300D03*
X317500Y241300D03*
X342900Y241300D03*
X368300Y241300D03*
X393700Y241300D03*
X419100Y241300D03*
X444500Y241300D03*
X469900Y241300D03*
X495300Y241300D03*
X520700Y241300D03*
X165100Y495300D03*
X190500Y495300D03*
X215900Y495300D03*
X241300Y495300D03*
X266700Y495300D03*
X292100Y495300D03*
X317500Y495300D03*
X342900Y495300D03*
X368300Y495300D03*
X393700Y495300D03*
X419100Y495300D03*
X444500Y495300D03*
X469900Y495300D03*
X495300Y495300D03*
X520700Y495300D03*
D11*
X124200Y87122D02*
X124200Y65278D01*
X87122Y46200D02*
X65278Y46200D01*
X65278Y106200D02*
X87122Y106200D01*
D12*
X203200Y127000D03*
D13*
X238200Y127000D03*
X273200Y127000D03*
D14*
X387350Y101600D03*
D15*
X400050Y101600D03*
X412750Y101600D03*
X425450Y101600D03*
D14*
X527050Y139700D03*
D15*
X539750Y139700D03*
X552450Y139700D03*
X565150Y139700D03*
D16*
X126492Y259080D02*
X126492Y482600D01*
X126492Y259080D02*
X64516Y197104D01*
X64516Y111720D01*
X152400Y482600D02*
X165100Y495300D01*
X152400Y482600D02*
X126492Y482600D01*
X64516Y111720D02*
X76200Y106200D01*
X387350Y101600D02*
X387350Y114300D01*
X361442Y140208D01*
X112268Y140208D01*
X78260Y106200D01*
X76200Y106200D01*
X401320Y111252D02*
X401320Y134112D01*
X495300Y228092D02*
X495300Y241300D01*
X495300Y228092D02*
X401320Y134112D01*
X412750Y106680D02*
X412750Y101600D01*
X412750Y106680D02*
X401320Y111252D01*
X190500Y191645D02*
X190500Y241300D01*
X190500Y191645D02*
X253961Y146239D01*
X273200Y127000D01*
M02*
