G04 EAGLE Gerber RS-274X export*
G75*
%MOMM*%
%FSLAX34Y34*%
%LPD*%
%INSilkscreen Bottom*%
%IPPOS*%
%AMOC8*
5,1,8,0,0,1.08239X$1,22.5*%
G01*
%ADD10C,0.152400*%


D10*
X445636Y365162D02*
X453538Y365162D01*
X453538Y382942D01*
X445636Y382942D01*
X447611Y375040D02*
X453538Y375040D01*
X434240Y365162D02*
X434116Y365164D01*
X433992Y365170D01*
X433868Y365180D01*
X433745Y365193D01*
X433622Y365211D01*
X433500Y365232D01*
X433378Y365257D01*
X433257Y365286D01*
X433138Y365319D01*
X433019Y365355D01*
X432902Y365396D01*
X432786Y365439D01*
X432671Y365487D01*
X432558Y365538D01*
X432446Y365593D01*
X432337Y365651D01*
X432229Y365712D01*
X432123Y365777D01*
X432019Y365845D01*
X431918Y365917D01*
X431818Y365991D01*
X431722Y366069D01*
X431627Y366149D01*
X431535Y366233D01*
X431446Y366319D01*
X431360Y366408D01*
X431276Y366500D01*
X431196Y366595D01*
X431118Y366691D01*
X431044Y366791D01*
X430972Y366892D01*
X430904Y366996D01*
X430839Y367102D01*
X430778Y367210D01*
X430720Y367319D01*
X430665Y367431D01*
X430614Y367544D01*
X430566Y367659D01*
X430523Y367775D01*
X430482Y367892D01*
X430446Y368011D01*
X430413Y368130D01*
X430384Y368251D01*
X430359Y368373D01*
X430338Y368495D01*
X430320Y368618D01*
X430307Y368741D01*
X430297Y368865D01*
X430291Y368989D01*
X430289Y369113D01*
X434240Y365162D02*
X434440Y365164D01*
X434639Y365172D01*
X434839Y365183D01*
X435038Y365200D01*
X435236Y365222D01*
X435434Y365248D01*
X435631Y365279D01*
X435828Y365314D01*
X436024Y365355D01*
X436218Y365400D01*
X436412Y365449D01*
X436604Y365504D01*
X436795Y365563D01*
X436984Y365626D01*
X437172Y365694D01*
X437358Y365766D01*
X437542Y365843D01*
X437725Y365924D01*
X437905Y366010D01*
X438084Y366100D01*
X438260Y366194D01*
X438434Y366292D01*
X438605Y366394D01*
X438774Y366501D01*
X438940Y366611D01*
X439104Y366726D01*
X439265Y366844D01*
X439423Y366966D01*
X439578Y367092D01*
X439730Y367222D01*
X439879Y367355D01*
X440025Y367491D01*
X440167Y367632D01*
X439672Y378991D02*
X439670Y379115D01*
X439664Y379239D01*
X439654Y379363D01*
X439641Y379486D01*
X439623Y379609D01*
X439602Y379731D01*
X439577Y379853D01*
X439548Y379974D01*
X439515Y380093D01*
X439479Y380212D01*
X439438Y380329D01*
X439395Y380445D01*
X439347Y380560D01*
X439296Y380673D01*
X439241Y380785D01*
X439183Y380894D01*
X439122Y381002D01*
X439057Y381108D01*
X438989Y381212D01*
X438917Y381313D01*
X438843Y381413D01*
X438765Y381509D01*
X438685Y381604D01*
X438601Y381696D01*
X438515Y381785D01*
X438426Y381871D01*
X438334Y381955D01*
X438239Y382035D01*
X438143Y382113D01*
X438043Y382187D01*
X437942Y382259D01*
X437838Y382327D01*
X437732Y382392D01*
X437624Y382453D01*
X437515Y382511D01*
X437403Y382566D01*
X437290Y382617D01*
X437175Y382665D01*
X437059Y382708D01*
X436942Y382749D01*
X436823Y382785D01*
X436704Y382818D01*
X436583Y382847D01*
X436461Y382872D01*
X436339Y382893D01*
X436216Y382911D01*
X436093Y382924D01*
X435969Y382934D01*
X435845Y382940D01*
X435721Y382942D01*
X435544Y382940D01*
X435368Y382934D01*
X435192Y382923D01*
X435016Y382908D01*
X434840Y382889D01*
X434665Y382866D01*
X434491Y382839D01*
X434317Y382808D01*
X434144Y382772D01*
X433972Y382733D01*
X433801Y382689D01*
X433631Y382641D01*
X433462Y382589D01*
X433295Y382533D01*
X433129Y382474D01*
X432964Y382410D01*
X432801Y382342D01*
X432640Y382271D01*
X432480Y382195D01*
X432322Y382116D01*
X432166Y382033D01*
X432012Y381947D01*
X431860Y381857D01*
X431711Y381763D01*
X431564Y381665D01*
X431419Y381565D01*
X431276Y381460D01*
X437697Y375534D02*
X437802Y375597D01*
X437905Y375664D01*
X438005Y375735D01*
X438103Y375808D01*
X438200Y375884D01*
X438293Y375963D01*
X438384Y376045D01*
X438473Y376129D01*
X438559Y376216D01*
X438643Y376306D01*
X438723Y376398D01*
X438801Y376493D01*
X438876Y376590D01*
X438948Y376690D01*
X439016Y376791D01*
X439082Y376895D01*
X439144Y377000D01*
X439203Y377107D01*
X439259Y377216D01*
X439312Y377327D01*
X439361Y377439D01*
X439407Y377553D01*
X439449Y377668D01*
X439487Y377784D01*
X439522Y377902D01*
X439554Y378020D01*
X439582Y378140D01*
X439606Y378260D01*
X439626Y378381D01*
X439643Y378502D01*
X439656Y378624D01*
X439666Y378746D01*
X439671Y378868D01*
X439673Y378991D01*
X432264Y372570D02*
X432159Y372507D01*
X432056Y372440D01*
X431956Y372369D01*
X431858Y372296D01*
X431761Y372220D01*
X431668Y372141D01*
X431577Y372059D01*
X431488Y371975D01*
X431402Y371888D01*
X431318Y371798D01*
X431238Y371706D01*
X431160Y371611D01*
X431085Y371514D01*
X431014Y371414D01*
X430945Y371313D01*
X430879Y371209D01*
X430817Y371104D01*
X430758Y370997D01*
X430702Y370888D01*
X430649Y370777D01*
X430600Y370665D01*
X430554Y370551D01*
X430512Y370436D01*
X430474Y370320D01*
X430439Y370202D01*
X430407Y370084D01*
X430379Y369964D01*
X430355Y369844D01*
X430335Y369723D01*
X430318Y369602D01*
X430305Y369480D01*
X430295Y369358D01*
X430290Y369236D01*
X430288Y369113D01*
X432264Y372570D02*
X437697Y375534D01*
X423219Y382942D02*
X423219Y365162D01*
X423219Y382942D02*
X418280Y382942D01*
X418140Y382940D01*
X418001Y382934D01*
X417861Y382924D01*
X417722Y382910D01*
X417583Y382893D01*
X417445Y382871D01*
X417308Y382845D01*
X417171Y382816D01*
X417035Y382783D01*
X416901Y382746D01*
X416767Y382705D01*
X416635Y382660D01*
X416503Y382611D01*
X416374Y382559D01*
X416246Y382504D01*
X416119Y382444D01*
X415994Y382381D01*
X415871Y382315D01*
X415750Y382245D01*
X415631Y382172D01*
X415514Y382095D01*
X415400Y382015D01*
X415287Y381932D01*
X415177Y381846D01*
X415070Y381756D01*
X414965Y381664D01*
X414863Y381569D01*
X414763Y381471D01*
X414666Y381370D01*
X414572Y381266D01*
X414482Y381160D01*
X414394Y381051D01*
X414309Y380940D01*
X414228Y380826D01*
X414149Y380711D01*
X414074Y380593D01*
X414003Y380473D01*
X413935Y380350D01*
X413870Y380227D01*
X413809Y380101D01*
X413751Y379973D01*
X413697Y379845D01*
X413647Y379714D01*
X413600Y379582D01*
X413557Y379449D01*
X413518Y379315D01*
X413483Y379180D01*
X413452Y379044D01*
X413424Y378906D01*
X413401Y378769D01*
X413381Y378630D01*
X413365Y378491D01*
X413353Y378352D01*
X413345Y378213D01*
X413341Y378073D01*
X413341Y377933D01*
X413345Y377793D01*
X413353Y377654D01*
X413365Y377515D01*
X413381Y377376D01*
X413401Y377237D01*
X413424Y377100D01*
X413452Y376962D01*
X413483Y376826D01*
X413518Y376691D01*
X413557Y376557D01*
X413600Y376424D01*
X413647Y376292D01*
X413697Y376161D01*
X413751Y376033D01*
X413809Y375905D01*
X413870Y375779D01*
X413935Y375656D01*
X414003Y375534D01*
X414074Y375413D01*
X414149Y375295D01*
X414228Y375180D01*
X414309Y375066D01*
X414394Y374955D01*
X414482Y374846D01*
X414572Y374740D01*
X414666Y374636D01*
X414763Y374535D01*
X414863Y374437D01*
X414965Y374342D01*
X415070Y374250D01*
X415177Y374160D01*
X415287Y374074D01*
X415400Y373991D01*
X415514Y373911D01*
X415631Y373834D01*
X415750Y373761D01*
X415871Y373691D01*
X415994Y373625D01*
X416119Y373562D01*
X416246Y373502D01*
X416374Y373447D01*
X416503Y373395D01*
X416635Y373346D01*
X416767Y373301D01*
X416901Y373260D01*
X417035Y373223D01*
X417171Y373190D01*
X417308Y373161D01*
X417445Y373135D01*
X417583Y373113D01*
X417722Y373096D01*
X417861Y373082D01*
X418001Y373072D01*
X418140Y373066D01*
X418280Y373064D01*
X423219Y373064D01*
X407224Y365162D02*
X402285Y365162D01*
X402145Y365164D01*
X402006Y365170D01*
X401866Y365180D01*
X401727Y365194D01*
X401588Y365211D01*
X401450Y365233D01*
X401313Y365259D01*
X401176Y365288D01*
X401040Y365321D01*
X400906Y365358D01*
X400772Y365399D01*
X400640Y365444D01*
X400508Y365493D01*
X400379Y365545D01*
X400251Y365600D01*
X400124Y365660D01*
X399999Y365723D01*
X399876Y365789D01*
X399755Y365859D01*
X399636Y365932D01*
X399519Y366009D01*
X399405Y366089D01*
X399292Y366172D01*
X399182Y366258D01*
X399075Y366348D01*
X398970Y366440D01*
X398868Y366535D01*
X398768Y366633D01*
X398671Y366734D01*
X398577Y366838D01*
X398487Y366944D01*
X398399Y367053D01*
X398314Y367164D01*
X398233Y367278D01*
X398154Y367393D01*
X398079Y367511D01*
X398008Y367632D01*
X397940Y367754D01*
X397875Y367877D01*
X397814Y368003D01*
X397756Y368131D01*
X397702Y368259D01*
X397652Y368390D01*
X397605Y368522D01*
X397562Y368655D01*
X397523Y368789D01*
X397488Y368924D01*
X397457Y369060D01*
X397429Y369198D01*
X397406Y369335D01*
X397386Y369474D01*
X397370Y369613D01*
X397358Y369752D01*
X397350Y369891D01*
X397346Y370031D01*
X397346Y370171D01*
X397350Y370311D01*
X397358Y370450D01*
X397370Y370589D01*
X397386Y370728D01*
X397406Y370867D01*
X397429Y371004D01*
X397457Y371142D01*
X397488Y371278D01*
X397523Y371413D01*
X397562Y371547D01*
X397605Y371680D01*
X397652Y371812D01*
X397702Y371943D01*
X397756Y372071D01*
X397814Y372199D01*
X397875Y372325D01*
X397940Y372448D01*
X398008Y372571D01*
X398079Y372691D01*
X398154Y372809D01*
X398233Y372924D01*
X398314Y373038D01*
X398399Y373149D01*
X398487Y373258D01*
X398577Y373364D01*
X398671Y373468D01*
X398768Y373569D01*
X398868Y373667D01*
X398970Y373762D01*
X399075Y373854D01*
X399182Y373944D01*
X399292Y374030D01*
X399405Y374113D01*
X399519Y374193D01*
X399636Y374270D01*
X399755Y374343D01*
X399876Y374413D01*
X399999Y374479D01*
X400124Y374542D01*
X400251Y374602D01*
X400379Y374657D01*
X400508Y374709D01*
X400640Y374758D01*
X400772Y374803D01*
X400906Y374844D01*
X401040Y374881D01*
X401176Y374914D01*
X401313Y374943D01*
X401450Y374969D01*
X401588Y374991D01*
X401727Y375008D01*
X401866Y375022D01*
X402006Y375032D01*
X402145Y375038D01*
X402285Y375040D01*
X401297Y382942D02*
X407224Y382942D01*
X401297Y382942D02*
X401173Y382940D01*
X401049Y382934D01*
X400925Y382924D01*
X400802Y382911D01*
X400679Y382893D01*
X400557Y382872D01*
X400435Y382847D01*
X400314Y382818D01*
X400195Y382785D01*
X400076Y382749D01*
X399959Y382708D01*
X399843Y382665D01*
X399728Y382617D01*
X399615Y382566D01*
X399503Y382511D01*
X399394Y382453D01*
X399286Y382392D01*
X399180Y382327D01*
X399076Y382259D01*
X398975Y382187D01*
X398875Y382113D01*
X398779Y382035D01*
X398684Y381955D01*
X398592Y381871D01*
X398503Y381785D01*
X398417Y381696D01*
X398333Y381604D01*
X398253Y381509D01*
X398175Y381413D01*
X398101Y381313D01*
X398029Y381212D01*
X397961Y381108D01*
X397896Y381002D01*
X397835Y380894D01*
X397777Y380785D01*
X397722Y380673D01*
X397671Y380560D01*
X397623Y380445D01*
X397580Y380329D01*
X397539Y380212D01*
X397503Y380093D01*
X397470Y379974D01*
X397441Y379853D01*
X397416Y379731D01*
X397395Y379609D01*
X397377Y379486D01*
X397364Y379363D01*
X397354Y379239D01*
X397348Y379115D01*
X397346Y378991D01*
X397348Y378867D01*
X397354Y378743D01*
X397364Y378619D01*
X397377Y378496D01*
X397395Y378373D01*
X397416Y378251D01*
X397441Y378129D01*
X397470Y378008D01*
X397503Y377889D01*
X397539Y377770D01*
X397580Y377653D01*
X397623Y377537D01*
X397671Y377422D01*
X397722Y377309D01*
X397777Y377197D01*
X397835Y377088D01*
X397896Y376980D01*
X397961Y376874D01*
X398029Y376770D01*
X398101Y376669D01*
X398175Y376569D01*
X398253Y376473D01*
X398333Y376378D01*
X398417Y376286D01*
X398503Y376197D01*
X398592Y376111D01*
X398684Y376027D01*
X398779Y375947D01*
X398875Y375869D01*
X398975Y375795D01*
X399076Y375723D01*
X399180Y375655D01*
X399286Y375590D01*
X399394Y375529D01*
X399503Y375471D01*
X399615Y375416D01*
X399728Y375365D01*
X399843Y375317D01*
X399959Y375274D01*
X400076Y375233D01*
X400195Y375197D01*
X400314Y375164D01*
X400435Y375135D01*
X400557Y375110D01*
X400679Y375089D01*
X400802Y375071D01*
X400925Y375058D01*
X401049Y375048D01*
X401173Y375042D01*
X401297Y375040D01*
X405248Y375040D01*
X385041Y382942D02*
X384909Y382940D01*
X384778Y382934D01*
X384646Y382924D01*
X384515Y382911D01*
X384385Y382893D01*
X384255Y382872D01*
X384125Y382847D01*
X383997Y382818D01*
X383869Y382785D01*
X383743Y382748D01*
X383617Y382708D01*
X383493Y382664D01*
X383370Y382616D01*
X383249Y382565D01*
X383129Y382510D01*
X383011Y382452D01*
X382895Y382390D01*
X382781Y382324D01*
X382668Y382256D01*
X382558Y382184D01*
X382450Y382109D01*
X382344Y382030D01*
X382240Y381949D01*
X382139Y381864D01*
X382041Y381777D01*
X381945Y381686D01*
X381852Y381593D01*
X381761Y381497D01*
X381674Y381399D01*
X381589Y381298D01*
X381508Y381194D01*
X381429Y381088D01*
X381354Y380980D01*
X381282Y380870D01*
X381214Y380757D01*
X381148Y380643D01*
X381086Y380527D01*
X381028Y380409D01*
X380973Y380289D01*
X380922Y380168D01*
X380874Y380045D01*
X380830Y379921D01*
X380790Y379795D01*
X380753Y379669D01*
X380720Y379541D01*
X380691Y379413D01*
X380666Y379283D01*
X380645Y379153D01*
X380627Y379023D01*
X380614Y378892D01*
X380604Y378760D01*
X380598Y378629D01*
X380596Y378497D01*
X385041Y382942D02*
X385191Y382940D01*
X385340Y382934D01*
X385489Y382924D01*
X385638Y382911D01*
X385787Y382893D01*
X385935Y382872D01*
X386083Y382846D01*
X386229Y382817D01*
X386375Y382784D01*
X386520Y382747D01*
X386664Y382706D01*
X386807Y382662D01*
X386949Y382614D01*
X387089Y382562D01*
X387228Y382507D01*
X387366Y382448D01*
X387501Y382385D01*
X387636Y382319D01*
X387768Y382249D01*
X387898Y382176D01*
X388027Y382099D01*
X388154Y382019D01*
X388278Y381936D01*
X388400Y381850D01*
X388520Y381760D01*
X388637Y381667D01*
X388752Y381572D01*
X388865Y381473D01*
X388975Y381371D01*
X389082Y381267D01*
X389186Y381160D01*
X389288Y381050D01*
X389386Y380937D01*
X389482Y380822D01*
X389574Y380704D01*
X389664Y380584D01*
X389750Y380462D01*
X389833Y380338D01*
X389913Y380211D01*
X389989Y380083D01*
X390062Y379952D01*
X390132Y379819D01*
X390198Y379685D01*
X390260Y379549D01*
X390319Y379412D01*
X390375Y379273D01*
X390426Y379132D01*
X390474Y378991D01*
X382078Y375040D02*
X381982Y375133D01*
X381890Y375229D01*
X381800Y375328D01*
X381713Y375429D01*
X381629Y375532D01*
X381547Y375637D01*
X381469Y375745D01*
X381394Y375855D01*
X381321Y375967D01*
X381252Y376081D01*
X381186Y376197D01*
X381124Y376315D01*
X381065Y376434D01*
X381009Y376555D01*
X380956Y376678D01*
X380907Y376802D01*
X380862Y376927D01*
X380819Y377054D01*
X380781Y377181D01*
X380746Y377310D01*
X380715Y377439D01*
X380687Y377570D01*
X380663Y377701D01*
X380642Y377833D01*
X380626Y377965D01*
X380613Y378098D01*
X380603Y378231D01*
X380598Y378364D01*
X380596Y378497D01*
X382077Y375040D02*
X390473Y365162D01*
X380596Y365162D01*
X373594Y372076D02*
X361741Y372076D01*
X354181Y365162D02*
X354181Y382942D01*
X349242Y382942D01*
X349103Y382940D01*
X348965Y382934D01*
X348827Y382925D01*
X348689Y382911D01*
X348552Y382894D01*
X348415Y382872D01*
X348278Y382847D01*
X348143Y382818D01*
X348008Y382785D01*
X347875Y382749D01*
X347742Y382709D01*
X347611Y382665D01*
X347481Y382617D01*
X347352Y382566D01*
X347225Y382511D01*
X347099Y382453D01*
X346975Y382391D01*
X346853Y382326D01*
X346733Y382257D01*
X346614Y382185D01*
X346498Y382110D01*
X346384Y382031D01*
X346272Y381949D01*
X346163Y381864D01*
X346055Y381777D01*
X345951Y381686D01*
X345849Y381592D01*
X345750Y381495D01*
X345653Y381396D01*
X345559Y381294D01*
X345468Y381190D01*
X345381Y381082D01*
X345296Y380973D01*
X345214Y380861D01*
X345135Y380747D01*
X345060Y380631D01*
X344988Y380512D01*
X344919Y380392D01*
X344854Y380270D01*
X344792Y380146D01*
X344734Y380020D01*
X344679Y379893D01*
X344628Y379764D01*
X344580Y379634D01*
X344536Y379503D01*
X344496Y379370D01*
X344460Y379237D01*
X344427Y379102D01*
X344398Y378967D01*
X344373Y378830D01*
X344351Y378693D01*
X344334Y378556D01*
X344320Y378418D01*
X344311Y378280D01*
X344305Y378142D01*
X344303Y378003D01*
X344303Y370101D01*
X344305Y369962D01*
X344311Y369824D01*
X344320Y369686D01*
X344334Y369548D01*
X344351Y369411D01*
X344373Y369274D01*
X344398Y369137D01*
X344427Y369002D01*
X344460Y368867D01*
X344496Y368734D01*
X344536Y368601D01*
X344580Y368470D01*
X344628Y368340D01*
X344679Y368211D01*
X344734Y368084D01*
X344792Y367958D01*
X344854Y367834D01*
X344919Y367712D01*
X344988Y367592D01*
X345060Y367473D01*
X345135Y367357D01*
X345214Y367243D01*
X345296Y367131D01*
X345381Y367022D01*
X345468Y366914D01*
X345559Y366810D01*
X345653Y366708D01*
X345750Y366609D01*
X345849Y366512D01*
X345951Y366418D01*
X346055Y366327D01*
X346163Y366240D01*
X346272Y366155D01*
X346384Y366073D01*
X346498Y365994D01*
X346614Y365919D01*
X346733Y365847D01*
X346853Y365778D01*
X346975Y365713D01*
X347099Y365651D01*
X347225Y365593D01*
X347352Y365538D01*
X347481Y365487D01*
X347611Y365439D01*
X347742Y365395D01*
X347875Y365355D01*
X348008Y365319D01*
X348143Y365286D01*
X348278Y365257D01*
X348415Y365232D01*
X348552Y365210D01*
X348689Y365193D01*
X348827Y365179D01*
X348965Y365170D01*
X349103Y365164D01*
X349242Y365162D01*
X354181Y365162D01*
X334038Y365162D02*
X329099Y365162D01*
X334038Y365162D02*
X334144Y365164D01*
X334249Y365170D01*
X334355Y365179D01*
X334460Y365192D01*
X334564Y365209D01*
X334668Y365230D01*
X334771Y365254D01*
X334873Y365282D01*
X334974Y365314D01*
X335073Y365349D01*
X335172Y365388D01*
X335269Y365430D01*
X335364Y365475D01*
X335458Y365524D01*
X335550Y365577D01*
X335640Y365632D01*
X335728Y365691D01*
X335814Y365753D01*
X335897Y365818D01*
X335978Y365886D01*
X336057Y365956D01*
X336133Y366030D01*
X336207Y366106D01*
X336277Y366185D01*
X336345Y366266D01*
X336410Y366349D01*
X336472Y366435D01*
X336531Y366523D01*
X336586Y366613D01*
X336639Y366705D01*
X336688Y366799D01*
X336733Y366894D01*
X336775Y366991D01*
X336814Y367090D01*
X336849Y367189D01*
X336881Y367290D01*
X336909Y367392D01*
X336933Y367495D01*
X336954Y367599D01*
X336971Y367703D01*
X336984Y367808D01*
X336993Y367914D01*
X336999Y368019D01*
X337001Y368125D01*
X337001Y373064D01*
X336999Y373188D01*
X336993Y373312D01*
X336983Y373436D01*
X336970Y373559D01*
X336952Y373682D01*
X336931Y373804D01*
X336906Y373926D01*
X336877Y374047D01*
X336844Y374166D01*
X336808Y374285D01*
X336767Y374402D01*
X336724Y374518D01*
X336676Y374633D01*
X336625Y374746D01*
X336570Y374858D01*
X336512Y374967D01*
X336451Y375075D01*
X336386Y375181D01*
X336318Y375285D01*
X336246Y375386D01*
X336172Y375486D01*
X336094Y375582D01*
X336014Y375677D01*
X335930Y375769D01*
X335844Y375858D01*
X335755Y375944D01*
X335663Y376028D01*
X335568Y376108D01*
X335472Y376186D01*
X335372Y376260D01*
X335271Y376332D01*
X335167Y376400D01*
X335061Y376465D01*
X334953Y376526D01*
X334844Y376584D01*
X334732Y376639D01*
X334619Y376690D01*
X334504Y376738D01*
X334388Y376781D01*
X334271Y376822D01*
X334152Y376858D01*
X334033Y376891D01*
X333912Y376920D01*
X333790Y376945D01*
X333668Y376966D01*
X333545Y376984D01*
X333422Y376997D01*
X333298Y377007D01*
X333174Y377013D01*
X333050Y377015D01*
X332926Y377013D01*
X332802Y377007D01*
X332678Y376997D01*
X332555Y376984D01*
X332432Y376966D01*
X332310Y376945D01*
X332188Y376920D01*
X332067Y376891D01*
X331948Y376858D01*
X331829Y376822D01*
X331712Y376781D01*
X331596Y376738D01*
X331481Y376690D01*
X331368Y376639D01*
X331256Y376584D01*
X331147Y376526D01*
X331039Y376465D01*
X330933Y376400D01*
X330829Y376332D01*
X330728Y376260D01*
X330628Y376186D01*
X330532Y376108D01*
X330437Y376028D01*
X330345Y375944D01*
X330256Y375858D01*
X330170Y375769D01*
X330086Y375677D01*
X330006Y375582D01*
X329928Y375486D01*
X329854Y375386D01*
X329782Y375285D01*
X329714Y375181D01*
X329649Y375075D01*
X329588Y374967D01*
X329530Y374858D01*
X329475Y374746D01*
X329424Y374633D01*
X329376Y374518D01*
X329333Y374402D01*
X329292Y374285D01*
X329256Y374166D01*
X329223Y374047D01*
X329194Y373926D01*
X329169Y373804D01*
X329148Y373682D01*
X329130Y373559D01*
X329117Y373436D01*
X329107Y373312D01*
X329101Y373188D01*
X329099Y373064D01*
X329099Y371089D01*
X337001Y371089D01*
X323042Y377015D02*
X319091Y365162D01*
X315140Y377015D01*
X308368Y382942D02*
X308368Y365162D01*
X308368Y371089D02*
X300465Y377015D01*
X304910Y373558D02*
X300465Y365162D01*
X294524Y365162D02*
X294524Y377015D01*
X295018Y381954D02*
X295018Y382942D01*
X294030Y382942D01*
X294030Y381954D01*
X295018Y381954D01*
X289221Y377015D02*
X283295Y377015D01*
X287246Y382942D02*
X287246Y368125D01*
X287245Y368125D02*
X287243Y368019D01*
X287237Y367914D01*
X287228Y367808D01*
X287215Y367703D01*
X287198Y367599D01*
X287177Y367495D01*
X287153Y367392D01*
X287125Y367290D01*
X287093Y367189D01*
X287058Y367090D01*
X287019Y366991D01*
X286977Y366894D01*
X286932Y366799D01*
X286883Y366705D01*
X286830Y366613D01*
X286775Y366523D01*
X286716Y366435D01*
X286654Y366349D01*
X286589Y366266D01*
X286521Y366185D01*
X286451Y366106D01*
X286377Y366030D01*
X286301Y365956D01*
X286222Y365886D01*
X286141Y365818D01*
X286058Y365753D01*
X285972Y365691D01*
X285884Y365632D01*
X285794Y365577D01*
X285702Y365524D01*
X285608Y365475D01*
X285513Y365430D01*
X285416Y365388D01*
X285317Y365349D01*
X285218Y365314D01*
X285117Y365282D01*
X285015Y365254D01*
X284912Y365230D01*
X284808Y365209D01*
X284704Y365192D01*
X284599Y365179D01*
X284493Y365170D01*
X284388Y365164D01*
X284282Y365162D01*
X283295Y365162D01*
X263256Y365162D02*
X269183Y382942D01*
X257330Y382942D02*
X263256Y365162D01*
X251445Y378991D02*
X246506Y382942D01*
X246506Y365162D01*
X251445Y365162D02*
X241567Y365162D01*
M02*
