G04 EAGLE Gerber RS-274X export*
G75*
%MOMM*%
%FSLAX34Y34*%
%LPD*%
%INTop Copper*%
%IPPOS*%
%AMOC8*
5,1,8,0,0,1.08239X$1,22.5*%
G01*
%ADD10C,1.524000*%
%ADD11P,1.539592X8X22.500000*%
%ADD12P,1.649562X8X202.500000*%
%ADD13P,1.649562X8X22.500000*%
%ADD14R,1.408000X1.408000*%
%ADD15R,1.408000X1.408000*%
%ADD16C,1.408000*%
%ADD17P,1.649562X8X75.700000*%
%ADD18P,1.649562X8X112.500000*%


D10*
X83820Y304800D02*
X68580Y304800D01*
X68580Y330200D02*
X83820Y330200D01*
X83820Y355600D02*
X68580Y355600D01*
X68580Y381000D02*
X83820Y381000D01*
X157480Y406400D02*
X172720Y406400D01*
X172720Y381000D02*
X157480Y381000D01*
X157480Y355600D02*
X172720Y355600D01*
X172720Y330200D02*
X157480Y330200D01*
X157480Y304800D02*
X172720Y304800D01*
X172720Y279400D02*
X157480Y279400D01*
X157480Y254000D02*
X172720Y254000D01*
D11*
X266700Y50800D03*
X266700Y76200D03*
X292100Y50800D03*
X292100Y76200D03*
X317500Y50800D03*
X317500Y76200D03*
X342900Y50800D03*
X342900Y76200D03*
X368300Y50800D03*
X368300Y76200D03*
X393700Y50800D03*
X393700Y76200D03*
D12*
X736600Y152400D03*
X736600Y127000D03*
X711200Y152400D03*
X711200Y127000D03*
X685800Y152400D03*
X685800Y127000D03*
X660400Y152400D03*
X660400Y127000D03*
X635000Y152400D03*
X635000Y127000D03*
X609600Y152400D03*
X609600Y127000D03*
X584200Y152400D03*
X584200Y127000D03*
X558800Y152400D03*
X558800Y127000D03*
X533400Y152400D03*
X533400Y127000D03*
X508000Y152400D03*
X508000Y127000D03*
X482600Y152400D03*
X482600Y127000D03*
X457200Y152400D03*
X457200Y127000D03*
X431800Y152400D03*
X431800Y127000D03*
X406400Y152400D03*
X406400Y127000D03*
X381000Y152400D03*
X381000Y127000D03*
X355600Y152400D03*
X355600Y127000D03*
X330200Y152400D03*
X330200Y127000D03*
X304800Y152400D03*
X304800Y127000D03*
X279400Y152400D03*
X279400Y127000D03*
X254000Y152400D03*
X254000Y127000D03*
D13*
X215900Y203200D03*
X368300Y203200D03*
D14*
X444500Y393700D03*
X444500Y368300D03*
X444500Y342900D03*
X444500Y317500D03*
X444500Y292100D03*
X444500Y266700D03*
X698500Y292100D03*
X698500Y317500D03*
X698500Y342900D03*
X698500Y368300D03*
D15*
G36*
X231711Y423302D02*
X231269Y437374D01*
X245341Y437816D01*
X245783Y423744D01*
X231711Y423302D01*
G37*
D16*
X239324Y405172D03*
X240122Y379784D03*
X240920Y354397D03*
X241718Y329010D03*
X242516Y303622D03*
X243313Y278235D03*
X244111Y252847D03*
X319476Y280628D03*
X318678Y306016D03*
X317880Y331403D03*
X317082Y356790D03*
X316284Y382178D03*
X315487Y407565D03*
X314689Y432953D03*
X320274Y255241D03*
D17*
X513154Y256484D03*
X604446Y378516D03*
D18*
X558800Y254000D03*
X558800Y406400D03*
D13*
X495300Y190500D03*
X647700Y190500D03*
D12*
X520700Y228600D03*
X368300Y228600D03*
M02*
