G04 EAGLE Gerber RS-274X export*
G75*
%MOMM*%
%FSLAX34Y34*%
%LPD*%
%INBottom Copper*%
%IPPOS*%
%AMOC8*
5,1,8,0,0,1.08239X$1,22.5*%
G01*
%ADD10C,0.130000*%
%ADD11C,0.130000*%
%ADD12C,0.152400*%
%ADD13C,1.524000*%
%ADD14P,1.539592X8X22.500000*%
%ADD15P,1.649562X8X202.500000*%
%ADD16P,1.649562X8X22.500000*%
%ADD17R,1.408000X1.408000*%
%ADD18R,1.408000X1.408000*%
%ADD19C,1.408000*%
%ADD20P,1.649562X8X75.700000*%
%ADD21P,1.649562X8X112.500000*%


D10*
X0Y571500D03*
X850900Y571500D03*
D11*
X850250Y571500D02*
X650Y571500D01*
X26000Y574692D01*
X26000Y568308D01*
X650Y571500D01*
X26000Y572800D01*
X26000Y570200D02*
X650Y571500D01*
X26000Y574100D01*
X26000Y568900D02*
X650Y571500D01*
X824900Y574692D02*
X850250Y571500D01*
X824900Y574692D02*
X824900Y568308D01*
X850250Y571500D01*
X824900Y572800D01*
X824900Y570200D02*
X850250Y571500D01*
X824900Y574100D01*
X824900Y568900D02*
X850250Y571500D01*
D12*
X456509Y582523D02*
X456507Y582656D01*
X456501Y582788D01*
X456491Y582920D01*
X456478Y583052D01*
X456460Y583184D01*
X456439Y583314D01*
X456414Y583445D01*
X456385Y583574D01*
X456352Y583702D01*
X456316Y583830D01*
X456276Y583956D01*
X456232Y584081D01*
X456184Y584205D01*
X456133Y584327D01*
X456078Y584448D01*
X456020Y584567D01*
X455958Y584685D01*
X455893Y584800D01*
X455824Y584914D01*
X455753Y585025D01*
X455677Y585134D01*
X455599Y585241D01*
X455518Y585346D01*
X455433Y585448D01*
X455346Y585548D01*
X455256Y585645D01*
X455163Y585740D01*
X455067Y585831D01*
X454969Y585920D01*
X454868Y586006D01*
X454764Y586089D01*
X454658Y586169D01*
X454550Y586245D01*
X454440Y586319D01*
X454327Y586389D01*
X454213Y586456D01*
X454096Y586519D01*
X453978Y586579D01*
X453858Y586636D01*
X453736Y586689D01*
X453613Y586738D01*
X453489Y586784D01*
X453363Y586826D01*
X453236Y586864D01*
X453108Y586899D01*
X452979Y586930D01*
X452850Y586957D01*
X452719Y586980D01*
X452588Y587000D01*
X452456Y587015D01*
X452324Y587027D01*
X452192Y587035D01*
X452059Y587039D01*
X451927Y587039D01*
X451794Y587035D01*
X451662Y587027D01*
X451530Y587015D01*
X451398Y587000D01*
X451267Y586980D01*
X451136Y586957D01*
X451007Y586930D01*
X450878Y586899D01*
X450750Y586864D01*
X450623Y586826D01*
X450497Y586784D01*
X450373Y586738D01*
X450250Y586689D01*
X450128Y586636D01*
X450008Y586579D01*
X449890Y586519D01*
X449773Y586456D01*
X449659Y586389D01*
X449546Y586319D01*
X449436Y586245D01*
X449328Y586169D01*
X449222Y586089D01*
X449118Y586006D01*
X449017Y585920D01*
X448919Y585831D01*
X448823Y585740D01*
X448730Y585645D01*
X448640Y585548D01*
X448553Y585448D01*
X448468Y585346D01*
X448387Y585241D01*
X448309Y585134D01*
X448233Y585025D01*
X448162Y584914D01*
X448093Y584800D01*
X448028Y584685D01*
X447966Y584567D01*
X447908Y584448D01*
X447853Y584327D01*
X447802Y584205D01*
X447754Y584081D01*
X447710Y583956D01*
X447670Y583830D01*
X447634Y583702D01*
X447601Y583574D01*
X447572Y583445D01*
X447547Y583314D01*
X447526Y583184D01*
X447508Y583052D01*
X447495Y582920D01*
X447485Y582788D01*
X447479Y582656D01*
X447477Y582523D01*
X447479Y582390D01*
X447485Y582258D01*
X447495Y582126D01*
X447508Y581994D01*
X447526Y581862D01*
X447547Y581732D01*
X447572Y581601D01*
X447601Y581472D01*
X447634Y581344D01*
X447670Y581216D01*
X447710Y581090D01*
X447754Y580965D01*
X447802Y580841D01*
X447853Y580719D01*
X447908Y580598D01*
X447966Y580479D01*
X448028Y580361D01*
X448093Y580246D01*
X448162Y580132D01*
X448233Y580021D01*
X448309Y579912D01*
X448387Y579805D01*
X448468Y579700D01*
X448553Y579598D01*
X448640Y579498D01*
X448730Y579401D01*
X448823Y579306D01*
X448919Y579215D01*
X449017Y579126D01*
X449118Y579040D01*
X449222Y578957D01*
X449328Y578877D01*
X449436Y578801D01*
X449546Y578727D01*
X449659Y578657D01*
X449773Y578590D01*
X449890Y578527D01*
X450008Y578467D01*
X450128Y578410D01*
X450250Y578357D01*
X450373Y578308D01*
X450497Y578262D01*
X450623Y578220D01*
X450750Y578182D01*
X450878Y578147D01*
X451007Y578116D01*
X451136Y578089D01*
X451267Y578066D01*
X451398Y578046D01*
X451530Y578031D01*
X451662Y578019D01*
X451794Y578011D01*
X451927Y578007D01*
X452059Y578007D01*
X452192Y578011D01*
X452324Y578019D01*
X452456Y578031D01*
X452588Y578046D01*
X452719Y578066D01*
X452850Y578089D01*
X452979Y578116D01*
X453108Y578147D01*
X453236Y578182D01*
X453363Y578220D01*
X453489Y578262D01*
X453613Y578308D01*
X453736Y578357D01*
X453858Y578410D01*
X453978Y578467D01*
X454096Y578527D01*
X454213Y578590D01*
X454327Y578657D01*
X454440Y578727D01*
X454550Y578801D01*
X454658Y578877D01*
X454764Y578957D01*
X454868Y579040D01*
X454969Y579126D01*
X455067Y579215D01*
X455163Y579306D01*
X455256Y579401D01*
X455346Y579498D01*
X455433Y579598D01*
X455518Y579700D01*
X455599Y579805D01*
X455677Y579912D01*
X455753Y580021D01*
X455824Y580132D01*
X455893Y580246D01*
X455958Y580361D01*
X456020Y580479D01*
X456078Y580598D01*
X456133Y580719D01*
X456184Y580841D01*
X456232Y580965D01*
X456276Y581090D01*
X456316Y581216D01*
X456352Y581344D01*
X456385Y581472D01*
X456414Y581601D01*
X456439Y581732D01*
X456460Y581862D01*
X456478Y581994D01*
X456491Y582126D01*
X456501Y582258D01*
X456507Y582390D01*
X456509Y582523D01*
X455605Y590651D02*
X455603Y590770D01*
X455597Y590890D01*
X455587Y591009D01*
X455573Y591127D01*
X455556Y591246D01*
X455534Y591363D01*
X455509Y591480D01*
X455479Y591595D01*
X455446Y591710D01*
X455409Y591824D01*
X455369Y591936D01*
X455324Y592047D01*
X455276Y592156D01*
X455225Y592264D01*
X455170Y592370D01*
X455111Y592474D01*
X455049Y592576D01*
X454984Y592676D01*
X454915Y592774D01*
X454843Y592870D01*
X454768Y592963D01*
X454691Y593053D01*
X454610Y593141D01*
X454526Y593226D01*
X454439Y593308D01*
X454350Y593388D01*
X454258Y593464D01*
X454164Y593538D01*
X454067Y593608D01*
X453969Y593675D01*
X453868Y593739D01*
X453764Y593799D01*
X453659Y593856D01*
X453552Y593909D01*
X453444Y593959D01*
X453334Y594005D01*
X453222Y594047D01*
X453109Y594086D01*
X452995Y594121D01*
X452880Y594152D01*
X452763Y594180D01*
X452646Y594203D01*
X452529Y594223D01*
X452410Y594239D01*
X452291Y594251D01*
X452172Y594259D01*
X452053Y594263D01*
X451933Y594263D01*
X451814Y594259D01*
X451695Y594251D01*
X451576Y594239D01*
X451457Y594223D01*
X451340Y594203D01*
X451223Y594180D01*
X451106Y594152D01*
X450991Y594121D01*
X450877Y594086D01*
X450764Y594047D01*
X450652Y594005D01*
X450542Y593959D01*
X450434Y593909D01*
X450327Y593856D01*
X450222Y593799D01*
X450118Y593739D01*
X450017Y593675D01*
X449919Y593608D01*
X449822Y593538D01*
X449728Y593464D01*
X449636Y593388D01*
X449547Y593308D01*
X449460Y593226D01*
X449376Y593141D01*
X449295Y593053D01*
X449218Y592963D01*
X449143Y592870D01*
X449071Y592774D01*
X449002Y592676D01*
X448937Y592576D01*
X448875Y592474D01*
X448816Y592370D01*
X448761Y592264D01*
X448710Y592156D01*
X448662Y592047D01*
X448617Y591936D01*
X448577Y591824D01*
X448540Y591710D01*
X448507Y591595D01*
X448477Y591480D01*
X448452Y591363D01*
X448430Y591246D01*
X448413Y591127D01*
X448399Y591009D01*
X448389Y590890D01*
X448383Y590770D01*
X448381Y590651D01*
X448383Y590532D01*
X448389Y590412D01*
X448399Y590293D01*
X448413Y590175D01*
X448430Y590056D01*
X448452Y589939D01*
X448477Y589822D01*
X448507Y589707D01*
X448540Y589592D01*
X448577Y589478D01*
X448617Y589366D01*
X448662Y589255D01*
X448710Y589146D01*
X448761Y589038D01*
X448816Y588932D01*
X448875Y588828D01*
X448937Y588726D01*
X449002Y588626D01*
X449071Y588528D01*
X449143Y588432D01*
X449218Y588339D01*
X449295Y588249D01*
X449376Y588161D01*
X449460Y588076D01*
X449547Y587994D01*
X449636Y587914D01*
X449728Y587838D01*
X449822Y587764D01*
X449919Y587694D01*
X450017Y587627D01*
X450118Y587563D01*
X450222Y587503D01*
X450327Y587446D01*
X450434Y587393D01*
X450542Y587343D01*
X450652Y587297D01*
X450764Y587255D01*
X450877Y587216D01*
X450991Y587181D01*
X451106Y587150D01*
X451223Y587122D01*
X451340Y587099D01*
X451457Y587079D01*
X451576Y587063D01*
X451695Y587051D01*
X451814Y587043D01*
X451933Y587039D01*
X452053Y587039D01*
X452172Y587043D01*
X452291Y587051D01*
X452410Y587063D01*
X452529Y587079D01*
X452646Y587099D01*
X452763Y587122D01*
X452880Y587150D01*
X452995Y587181D01*
X453109Y587216D01*
X453222Y587255D01*
X453334Y587297D01*
X453444Y587343D01*
X453552Y587393D01*
X453659Y587446D01*
X453764Y587503D01*
X453868Y587563D01*
X453969Y587627D01*
X454067Y587694D01*
X454164Y587764D01*
X454258Y587838D01*
X454350Y587914D01*
X454439Y587994D01*
X454526Y588076D01*
X454610Y588161D01*
X454691Y588249D01*
X454768Y588339D01*
X454843Y588432D01*
X454915Y588528D01*
X454984Y588626D01*
X455049Y588726D01*
X455111Y588828D01*
X455170Y588932D01*
X455225Y589038D01*
X455276Y589146D01*
X455324Y589255D01*
X455369Y589366D01*
X455409Y589478D01*
X455446Y589592D01*
X455479Y589707D01*
X455509Y589822D01*
X455534Y589939D01*
X455556Y590056D01*
X455573Y590175D01*
X455587Y590293D01*
X455597Y590412D01*
X455603Y590532D01*
X455605Y590651D01*
X440878Y578007D02*
X435459Y578007D01*
X435341Y578009D01*
X435223Y578015D01*
X435105Y578024D01*
X434988Y578038D01*
X434871Y578055D01*
X434754Y578076D01*
X434639Y578101D01*
X434524Y578130D01*
X434410Y578163D01*
X434298Y578199D01*
X434187Y578239D01*
X434077Y578282D01*
X433968Y578329D01*
X433861Y578379D01*
X433756Y578434D01*
X433653Y578491D01*
X433552Y578552D01*
X433452Y578616D01*
X433355Y578683D01*
X433260Y578753D01*
X433168Y578827D01*
X433077Y578903D01*
X432990Y578983D01*
X432905Y579065D01*
X432823Y579150D01*
X432743Y579237D01*
X432667Y579328D01*
X432593Y579420D01*
X432523Y579515D01*
X432456Y579612D01*
X432392Y579712D01*
X432331Y579813D01*
X432274Y579916D01*
X432219Y580021D01*
X432169Y580128D01*
X432122Y580237D01*
X432079Y580347D01*
X432039Y580458D01*
X432003Y580570D01*
X431970Y580684D01*
X431941Y580799D01*
X431916Y580914D01*
X431895Y581031D01*
X431878Y581148D01*
X431864Y581265D01*
X431855Y581383D01*
X431849Y581501D01*
X431847Y581619D01*
X431846Y581619D02*
X431846Y583426D01*
X431847Y583426D02*
X431849Y583544D01*
X431855Y583662D01*
X431864Y583780D01*
X431878Y583897D01*
X431895Y584014D01*
X431916Y584131D01*
X431941Y584246D01*
X431970Y584361D01*
X432003Y584475D01*
X432039Y584587D01*
X432079Y584698D01*
X432122Y584808D01*
X432169Y584917D01*
X432219Y585024D01*
X432274Y585129D01*
X432331Y585232D01*
X432392Y585333D01*
X432456Y585433D01*
X432523Y585530D01*
X432593Y585625D01*
X432667Y585717D01*
X432743Y585808D01*
X432823Y585895D01*
X432905Y585980D01*
X432990Y586062D01*
X433077Y586142D01*
X433168Y586218D01*
X433260Y586292D01*
X433355Y586362D01*
X433452Y586429D01*
X433552Y586493D01*
X433653Y586554D01*
X433756Y586611D01*
X433861Y586666D01*
X433968Y586716D01*
X434077Y586763D01*
X434187Y586806D01*
X434298Y586846D01*
X434410Y586882D01*
X434524Y586915D01*
X434639Y586944D01*
X434754Y586969D01*
X434871Y586990D01*
X434988Y587007D01*
X435105Y587021D01*
X435223Y587030D01*
X435341Y587036D01*
X435459Y587038D01*
X440878Y587038D01*
X440878Y594263D01*
X431846Y594263D01*
X425872Y578910D02*
X425872Y578007D01*
X425872Y578910D02*
X424969Y578910D01*
X424969Y578007D01*
X425872Y578007D01*
X418994Y586135D02*
X418990Y586455D01*
X418979Y586774D01*
X418960Y587094D01*
X418933Y587412D01*
X418899Y587730D01*
X418857Y588047D01*
X418807Y588363D01*
X418750Y588678D01*
X418686Y588991D01*
X418614Y589303D01*
X418535Y589613D01*
X418448Y589920D01*
X418354Y590226D01*
X418253Y590529D01*
X418144Y590830D01*
X418029Y591128D01*
X417906Y591424D01*
X417776Y591716D01*
X417639Y592005D01*
X417639Y592006D02*
X417600Y592114D01*
X417557Y592221D01*
X417511Y592326D01*
X417460Y592430D01*
X417407Y592532D01*
X417350Y592632D01*
X417289Y592730D01*
X417225Y592825D01*
X417158Y592919D01*
X417087Y593010D01*
X417014Y593099D01*
X416937Y593185D01*
X416858Y593268D01*
X416776Y593349D01*
X416691Y593427D01*
X416603Y593501D01*
X416513Y593573D01*
X416421Y593641D01*
X416326Y593707D01*
X416229Y593769D01*
X416130Y593827D01*
X416028Y593883D01*
X415926Y593934D01*
X415821Y593982D01*
X415715Y594027D01*
X415607Y594068D01*
X415498Y594105D01*
X415388Y594138D01*
X415276Y594167D01*
X415164Y594193D01*
X415051Y594215D01*
X414937Y594232D01*
X414823Y594246D01*
X414708Y594256D01*
X414593Y594262D01*
X414478Y594264D01*
X414478Y594263D02*
X414363Y594261D01*
X414248Y594255D01*
X414133Y594245D01*
X414019Y594231D01*
X413905Y594214D01*
X413792Y594192D01*
X413680Y594166D01*
X413568Y594137D01*
X413458Y594104D01*
X413349Y594067D01*
X413241Y594026D01*
X413135Y593981D01*
X413031Y593933D01*
X412928Y593882D01*
X412827Y593826D01*
X412727Y593768D01*
X412630Y593706D01*
X412536Y593641D01*
X412443Y593572D01*
X412353Y593500D01*
X412265Y593426D01*
X412180Y593348D01*
X412098Y593267D01*
X412019Y593184D01*
X411942Y593098D01*
X411869Y593009D01*
X411798Y592918D01*
X411731Y592824D01*
X411667Y592729D01*
X411606Y592631D01*
X411549Y592531D01*
X411496Y592429D01*
X411445Y592325D01*
X411399Y592220D01*
X411356Y592113D01*
X411317Y592005D01*
X411318Y592005D02*
X411181Y591716D01*
X411051Y591424D01*
X410928Y591128D01*
X410813Y590830D01*
X410704Y590529D01*
X410603Y590226D01*
X410509Y589920D01*
X410422Y589613D01*
X410343Y589303D01*
X410271Y588991D01*
X410207Y588678D01*
X410150Y588363D01*
X410100Y588047D01*
X410058Y587730D01*
X410024Y587412D01*
X409997Y587094D01*
X409978Y586774D01*
X409967Y586455D01*
X409963Y586135D01*
X418993Y586135D02*
X418989Y585815D01*
X418978Y585496D01*
X418959Y585176D01*
X418932Y584858D01*
X418898Y584540D01*
X418856Y584223D01*
X418806Y583907D01*
X418749Y583592D01*
X418685Y583279D01*
X418613Y582967D01*
X418534Y582657D01*
X418447Y582350D01*
X418353Y582044D01*
X418252Y581741D01*
X418143Y581440D01*
X418028Y581142D01*
X417905Y580846D01*
X417775Y580554D01*
X417638Y580265D01*
X417639Y580265D02*
X417600Y580157D01*
X417557Y580050D01*
X417511Y579945D01*
X417460Y579841D01*
X417407Y579739D01*
X417350Y579639D01*
X417289Y579541D01*
X417225Y579446D01*
X417158Y579352D01*
X417087Y579261D01*
X417014Y579172D01*
X416937Y579086D01*
X416858Y579003D01*
X416776Y578922D01*
X416691Y578844D01*
X416603Y578770D01*
X416513Y578698D01*
X416420Y578629D01*
X416326Y578564D01*
X416229Y578502D01*
X416129Y578444D01*
X416028Y578388D01*
X415926Y578337D01*
X415821Y578289D01*
X415715Y578244D01*
X415607Y578203D01*
X415498Y578166D01*
X415388Y578133D01*
X415276Y578104D01*
X415164Y578078D01*
X415051Y578056D01*
X414937Y578039D01*
X414823Y578025D01*
X414708Y578015D01*
X414593Y578009D01*
X414478Y578007D01*
X411318Y580265D02*
X411181Y580554D01*
X411051Y580846D01*
X410928Y581142D01*
X410813Y581440D01*
X410704Y581741D01*
X410603Y582044D01*
X410509Y582350D01*
X410422Y582657D01*
X410343Y582967D01*
X410271Y583279D01*
X410207Y583592D01*
X410150Y583907D01*
X410100Y584223D01*
X410058Y584540D01*
X410024Y584858D01*
X409997Y585176D01*
X409978Y585496D01*
X409967Y585815D01*
X409963Y586135D01*
X411317Y580265D02*
X411356Y580157D01*
X411399Y580050D01*
X411445Y579945D01*
X411496Y579841D01*
X411549Y579739D01*
X411607Y579639D01*
X411667Y579541D01*
X411731Y579446D01*
X411798Y579352D01*
X411869Y579261D01*
X411942Y579172D01*
X412019Y579086D01*
X412098Y579003D01*
X412180Y578922D01*
X412265Y578844D01*
X412353Y578770D01*
X412443Y578698D01*
X412536Y578629D01*
X412630Y578564D01*
X412727Y578502D01*
X412827Y578444D01*
X412928Y578388D01*
X413031Y578337D01*
X413135Y578289D01*
X413241Y578244D01*
X413349Y578203D01*
X413458Y578166D01*
X413568Y578133D01*
X413680Y578104D01*
X413792Y578078D01*
X413905Y578056D01*
X414019Y578039D01*
X414133Y578025D01*
X414248Y578015D01*
X414363Y578009D01*
X414478Y578007D01*
X418091Y581619D02*
X410866Y590651D01*
X399750Y585232D02*
X394332Y585232D01*
X399750Y585232D02*
X399868Y585234D01*
X399986Y585240D01*
X400104Y585249D01*
X400221Y585263D01*
X400338Y585280D01*
X400455Y585301D01*
X400570Y585326D01*
X400685Y585355D01*
X400799Y585388D01*
X400911Y585424D01*
X401022Y585464D01*
X401132Y585507D01*
X401241Y585554D01*
X401348Y585604D01*
X401453Y585659D01*
X401556Y585716D01*
X401657Y585777D01*
X401757Y585841D01*
X401854Y585908D01*
X401949Y585978D01*
X402041Y586052D01*
X402132Y586128D01*
X402219Y586208D01*
X402304Y586290D01*
X402386Y586375D01*
X402466Y586462D01*
X402542Y586553D01*
X402616Y586645D01*
X402686Y586740D01*
X402753Y586837D01*
X402817Y586937D01*
X402878Y587038D01*
X402935Y587141D01*
X402990Y587246D01*
X403040Y587353D01*
X403087Y587462D01*
X403130Y587572D01*
X403170Y587683D01*
X403206Y587795D01*
X403239Y587909D01*
X403268Y588024D01*
X403293Y588139D01*
X403314Y588256D01*
X403331Y588373D01*
X403345Y588490D01*
X403354Y588608D01*
X403360Y588726D01*
X403362Y588844D01*
X403363Y588844D02*
X403363Y589747D01*
X403361Y589880D01*
X403355Y590012D01*
X403345Y590144D01*
X403332Y590276D01*
X403314Y590408D01*
X403293Y590538D01*
X403268Y590669D01*
X403239Y590798D01*
X403206Y590926D01*
X403170Y591054D01*
X403130Y591180D01*
X403086Y591305D01*
X403038Y591429D01*
X402987Y591551D01*
X402932Y591672D01*
X402874Y591791D01*
X402812Y591909D01*
X402747Y592024D01*
X402678Y592138D01*
X402607Y592249D01*
X402531Y592358D01*
X402453Y592465D01*
X402372Y592570D01*
X402287Y592672D01*
X402200Y592772D01*
X402110Y592869D01*
X402017Y592964D01*
X401921Y593055D01*
X401823Y593144D01*
X401722Y593230D01*
X401618Y593313D01*
X401512Y593393D01*
X401404Y593469D01*
X401294Y593543D01*
X401181Y593613D01*
X401067Y593680D01*
X400950Y593743D01*
X400832Y593803D01*
X400712Y593860D01*
X400590Y593913D01*
X400467Y593962D01*
X400343Y594008D01*
X400217Y594050D01*
X400090Y594088D01*
X399962Y594123D01*
X399833Y594154D01*
X399704Y594181D01*
X399573Y594204D01*
X399442Y594224D01*
X399310Y594239D01*
X399178Y594251D01*
X399046Y594259D01*
X398913Y594263D01*
X398781Y594263D01*
X398648Y594259D01*
X398516Y594251D01*
X398384Y594239D01*
X398252Y594224D01*
X398121Y594204D01*
X397990Y594181D01*
X397861Y594154D01*
X397732Y594123D01*
X397604Y594088D01*
X397477Y594050D01*
X397351Y594008D01*
X397227Y593962D01*
X397104Y593913D01*
X396982Y593860D01*
X396862Y593803D01*
X396744Y593743D01*
X396627Y593680D01*
X396513Y593613D01*
X396400Y593543D01*
X396290Y593469D01*
X396182Y593393D01*
X396076Y593313D01*
X395972Y593230D01*
X395871Y593144D01*
X395773Y593055D01*
X395677Y592964D01*
X395584Y592869D01*
X395494Y592772D01*
X395407Y592672D01*
X395322Y592570D01*
X395241Y592465D01*
X395163Y592358D01*
X395087Y592249D01*
X395016Y592138D01*
X394947Y592024D01*
X394882Y591909D01*
X394820Y591791D01*
X394762Y591672D01*
X394707Y591551D01*
X394656Y591429D01*
X394608Y591305D01*
X394564Y591180D01*
X394524Y591054D01*
X394488Y590926D01*
X394455Y590798D01*
X394426Y590669D01*
X394401Y590538D01*
X394380Y590408D01*
X394362Y590276D01*
X394349Y590144D01*
X394339Y590012D01*
X394333Y589880D01*
X394331Y589747D01*
X394332Y589747D02*
X394332Y585232D01*
X394331Y585232D02*
X394333Y585057D01*
X394339Y584883D01*
X394350Y584709D01*
X394365Y584535D01*
X394384Y584361D01*
X394407Y584188D01*
X394434Y584016D01*
X394466Y583844D01*
X394501Y583673D01*
X394541Y583503D01*
X394585Y583334D01*
X394633Y583166D01*
X394685Y582999D01*
X394741Y582834D01*
X394801Y582670D01*
X394864Y582507D01*
X394932Y582347D01*
X395004Y582187D01*
X395079Y582030D01*
X395159Y581874D01*
X395242Y581721D01*
X395328Y581569D01*
X395419Y581420D01*
X395513Y581273D01*
X395610Y581128D01*
X395711Y580985D01*
X395815Y580845D01*
X395923Y580708D01*
X396034Y580573D01*
X396148Y580441D01*
X396265Y580312D01*
X396386Y580185D01*
X396509Y580062D01*
X396636Y579941D01*
X396765Y579824D01*
X396897Y579710D01*
X397032Y579599D01*
X397169Y579491D01*
X397309Y579387D01*
X397452Y579286D01*
X397597Y579189D01*
X397744Y579095D01*
X397893Y579004D01*
X398045Y578918D01*
X398198Y578835D01*
X398354Y578755D01*
X398511Y578680D01*
X398671Y578608D01*
X398831Y578540D01*
X398994Y578477D01*
X399158Y578417D01*
X399323Y578361D01*
X399490Y578309D01*
X399658Y578261D01*
X399827Y578217D01*
X399997Y578177D01*
X400168Y578142D01*
X400340Y578110D01*
X400512Y578083D01*
X400685Y578060D01*
X400859Y578041D01*
X401033Y578026D01*
X401207Y578015D01*
X401381Y578009D01*
X401556Y578007D01*
D11*
X876300Y533400D02*
X921200Y533400D01*
X921200Y0D02*
X876300Y0D01*
X901700Y650D02*
X901700Y532750D01*
X898508Y507400D01*
X904892Y507400D01*
X901700Y532750D01*
X900400Y507400D01*
X903000Y507400D02*
X901700Y532750D01*
X899100Y507400D01*
X904300Y507400D02*
X901700Y532750D01*
X898508Y26000D02*
X901700Y650D01*
X898508Y26000D02*
X904892Y26000D01*
X901700Y650D01*
X900400Y26000D01*
X903000Y26000D02*
X901700Y650D01*
X899100Y26000D01*
X904300Y26000D02*
X901700Y650D01*
D12*
X878937Y235582D02*
X878937Y241000D01*
X878939Y241118D01*
X878945Y241236D01*
X878954Y241354D01*
X878968Y241471D01*
X878985Y241588D01*
X879006Y241705D01*
X879031Y241820D01*
X879060Y241935D01*
X879093Y242049D01*
X879129Y242161D01*
X879169Y242272D01*
X879212Y242382D01*
X879259Y242491D01*
X879309Y242598D01*
X879364Y242703D01*
X879421Y242806D01*
X879482Y242907D01*
X879546Y243007D01*
X879613Y243104D01*
X879683Y243199D01*
X879757Y243291D01*
X879833Y243382D01*
X879913Y243469D01*
X879995Y243554D01*
X880080Y243636D01*
X880167Y243716D01*
X880258Y243792D01*
X880350Y243866D01*
X880445Y243936D01*
X880542Y244003D01*
X880642Y244067D01*
X880743Y244128D01*
X880846Y244185D01*
X880951Y244240D01*
X881058Y244290D01*
X881167Y244337D01*
X881277Y244380D01*
X881388Y244420D01*
X881500Y244456D01*
X881614Y244489D01*
X881729Y244518D01*
X881844Y244543D01*
X881961Y244564D01*
X882078Y244581D01*
X882195Y244595D01*
X882313Y244604D01*
X882431Y244610D01*
X882549Y244612D01*
X882549Y244613D02*
X884356Y244613D01*
X884356Y244612D02*
X884474Y244610D01*
X884592Y244604D01*
X884710Y244595D01*
X884827Y244581D01*
X884944Y244564D01*
X885061Y244543D01*
X885176Y244518D01*
X885291Y244489D01*
X885405Y244456D01*
X885517Y244420D01*
X885628Y244380D01*
X885738Y244337D01*
X885847Y244290D01*
X885954Y244240D01*
X886059Y244185D01*
X886162Y244128D01*
X886263Y244067D01*
X886363Y244003D01*
X886460Y243936D01*
X886555Y243866D01*
X886647Y243792D01*
X886738Y243716D01*
X886825Y243636D01*
X886910Y243554D01*
X886992Y243469D01*
X887072Y243382D01*
X887148Y243291D01*
X887222Y243199D01*
X887292Y243104D01*
X887359Y243007D01*
X887423Y242907D01*
X887484Y242806D01*
X887541Y242703D01*
X887596Y242598D01*
X887646Y242491D01*
X887693Y242382D01*
X887736Y242272D01*
X887776Y242161D01*
X887812Y242049D01*
X887845Y241935D01*
X887874Y241820D01*
X887899Y241705D01*
X887920Y241588D01*
X887937Y241471D01*
X887951Y241354D01*
X887960Y241236D01*
X887966Y241118D01*
X887968Y241000D01*
X887968Y235582D01*
X895193Y235582D01*
X895193Y244613D01*
X878937Y251213D02*
X878937Y255728D01*
X878939Y255861D01*
X878945Y255993D01*
X878955Y256125D01*
X878968Y256257D01*
X878986Y256389D01*
X879007Y256519D01*
X879032Y256650D01*
X879061Y256779D01*
X879094Y256907D01*
X879130Y257035D01*
X879170Y257161D01*
X879214Y257286D01*
X879262Y257410D01*
X879313Y257532D01*
X879368Y257653D01*
X879426Y257772D01*
X879488Y257890D01*
X879553Y258005D01*
X879622Y258119D01*
X879693Y258230D01*
X879769Y258339D01*
X879847Y258446D01*
X879928Y258551D01*
X880013Y258653D01*
X880100Y258753D01*
X880190Y258850D01*
X880283Y258945D01*
X880379Y259036D01*
X880477Y259125D01*
X880578Y259211D01*
X880682Y259294D01*
X880788Y259374D01*
X880896Y259450D01*
X881006Y259524D01*
X881119Y259594D01*
X881233Y259661D01*
X881350Y259724D01*
X881468Y259784D01*
X881588Y259841D01*
X881710Y259894D01*
X881833Y259943D01*
X881957Y259989D01*
X882083Y260031D01*
X882210Y260069D01*
X882338Y260104D01*
X882467Y260135D01*
X882596Y260162D01*
X882727Y260185D01*
X882858Y260205D01*
X882990Y260220D01*
X883122Y260232D01*
X883254Y260240D01*
X883387Y260244D01*
X883519Y260244D01*
X883652Y260240D01*
X883784Y260232D01*
X883916Y260220D01*
X884048Y260205D01*
X884179Y260185D01*
X884310Y260162D01*
X884439Y260135D01*
X884568Y260104D01*
X884696Y260069D01*
X884823Y260031D01*
X884949Y259989D01*
X885073Y259943D01*
X885196Y259894D01*
X885318Y259841D01*
X885438Y259784D01*
X885556Y259724D01*
X885673Y259661D01*
X885787Y259594D01*
X885900Y259524D01*
X886010Y259450D01*
X886118Y259374D01*
X886224Y259294D01*
X886328Y259211D01*
X886429Y259125D01*
X886527Y259036D01*
X886623Y258945D01*
X886716Y258850D01*
X886806Y258753D01*
X886893Y258653D01*
X886978Y258551D01*
X887059Y258446D01*
X887137Y258339D01*
X887213Y258230D01*
X887284Y258119D01*
X887353Y258005D01*
X887418Y257890D01*
X887480Y257772D01*
X887538Y257653D01*
X887593Y257532D01*
X887644Y257410D01*
X887692Y257286D01*
X887736Y257161D01*
X887776Y257035D01*
X887812Y256907D01*
X887845Y256779D01*
X887874Y256650D01*
X887899Y256519D01*
X887920Y256389D01*
X887938Y256257D01*
X887951Y256125D01*
X887961Y255993D01*
X887967Y255861D01*
X887969Y255728D01*
X895193Y256631D02*
X895193Y251213D01*
X895193Y256631D02*
X895191Y256750D01*
X895185Y256870D01*
X895175Y256989D01*
X895161Y257107D01*
X895144Y257226D01*
X895122Y257343D01*
X895097Y257460D01*
X895067Y257575D01*
X895034Y257690D01*
X894997Y257804D01*
X894957Y257916D01*
X894912Y258027D01*
X894864Y258136D01*
X894813Y258244D01*
X894758Y258350D01*
X894699Y258454D01*
X894637Y258556D01*
X894572Y258656D01*
X894503Y258754D01*
X894431Y258850D01*
X894356Y258943D01*
X894279Y259033D01*
X894198Y259121D01*
X894114Y259206D01*
X894027Y259288D01*
X893938Y259368D01*
X893846Y259444D01*
X893752Y259518D01*
X893655Y259588D01*
X893557Y259655D01*
X893456Y259719D01*
X893352Y259779D01*
X893247Y259836D01*
X893140Y259889D01*
X893032Y259939D01*
X892922Y259985D01*
X892810Y260027D01*
X892697Y260066D01*
X892583Y260101D01*
X892468Y260132D01*
X892351Y260160D01*
X892234Y260183D01*
X892117Y260203D01*
X891998Y260219D01*
X891879Y260231D01*
X891760Y260239D01*
X891641Y260243D01*
X891521Y260243D01*
X891402Y260239D01*
X891283Y260231D01*
X891164Y260219D01*
X891045Y260203D01*
X890928Y260183D01*
X890811Y260160D01*
X890694Y260132D01*
X890579Y260101D01*
X890465Y260066D01*
X890352Y260027D01*
X890240Y259985D01*
X890130Y259939D01*
X890022Y259889D01*
X889915Y259836D01*
X889810Y259779D01*
X889706Y259719D01*
X889605Y259655D01*
X889507Y259588D01*
X889410Y259518D01*
X889316Y259444D01*
X889224Y259368D01*
X889135Y259288D01*
X889048Y259206D01*
X888964Y259121D01*
X888883Y259033D01*
X888806Y258943D01*
X888731Y258850D01*
X888659Y258754D01*
X888590Y258656D01*
X888525Y258556D01*
X888463Y258454D01*
X888404Y258350D01*
X888349Y258244D01*
X888298Y258136D01*
X888250Y258027D01*
X888205Y257916D01*
X888165Y257804D01*
X888128Y257690D01*
X888095Y257575D01*
X888065Y257460D01*
X888040Y257343D01*
X888018Y257226D01*
X888001Y257107D01*
X887987Y256989D01*
X887977Y256870D01*
X887971Y256750D01*
X887969Y256631D01*
X887968Y256631D02*
X887968Y253019D01*
X879840Y266219D02*
X878937Y266219D01*
X879840Y266219D02*
X879840Y267122D01*
X878937Y267122D01*
X878937Y266219D01*
X878937Y273096D02*
X878937Y277612D01*
X878939Y277745D01*
X878945Y277877D01*
X878955Y278009D01*
X878968Y278141D01*
X878986Y278273D01*
X879007Y278403D01*
X879032Y278534D01*
X879061Y278663D01*
X879094Y278791D01*
X879130Y278919D01*
X879170Y279045D01*
X879214Y279170D01*
X879262Y279294D01*
X879313Y279416D01*
X879368Y279537D01*
X879426Y279656D01*
X879488Y279774D01*
X879553Y279889D01*
X879622Y280003D01*
X879693Y280114D01*
X879769Y280223D01*
X879847Y280330D01*
X879928Y280435D01*
X880013Y280537D01*
X880100Y280637D01*
X880190Y280734D01*
X880283Y280829D01*
X880379Y280920D01*
X880477Y281009D01*
X880578Y281095D01*
X880682Y281178D01*
X880788Y281258D01*
X880896Y281334D01*
X881006Y281408D01*
X881119Y281478D01*
X881233Y281545D01*
X881350Y281608D01*
X881468Y281668D01*
X881588Y281725D01*
X881710Y281778D01*
X881833Y281827D01*
X881957Y281873D01*
X882083Y281915D01*
X882210Y281953D01*
X882338Y281988D01*
X882467Y282019D01*
X882596Y282046D01*
X882727Y282069D01*
X882858Y282089D01*
X882990Y282104D01*
X883122Y282116D01*
X883254Y282124D01*
X883387Y282128D01*
X883519Y282128D01*
X883652Y282124D01*
X883784Y282116D01*
X883916Y282104D01*
X884048Y282089D01*
X884179Y282069D01*
X884310Y282046D01*
X884439Y282019D01*
X884568Y281988D01*
X884696Y281953D01*
X884823Y281915D01*
X884949Y281873D01*
X885073Y281827D01*
X885196Y281778D01*
X885318Y281725D01*
X885438Y281668D01*
X885556Y281608D01*
X885673Y281545D01*
X885787Y281478D01*
X885900Y281408D01*
X886010Y281334D01*
X886118Y281258D01*
X886224Y281178D01*
X886328Y281095D01*
X886429Y281009D01*
X886527Y280920D01*
X886623Y280829D01*
X886716Y280734D01*
X886806Y280637D01*
X886893Y280537D01*
X886978Y280435D01*
X887059Y280330D01*
X887137Y280223D01*
X887213Y280114D01*
X887284Y280003D01*
X887353Y279889D01*
X887418Y279774D01*
X887480Y279656D01*
X887538Y279537D01*
X887593Y279416D01*
X887644Y279294D01*
X887692Y279170D01*
X887736Y279045D01*
X887776Y278919D01*
X887812Y278791D01*
X887845Y278663D01*
X887874Y278534D01*
X887899Y278403D01*
X887920Y278273D01*
X887938Y278141D01*
X887951Y278009D01*
X887961Y277877D01*
X887967Y277745D01*
X887969Y277612D01*
X895193Y278515D02*
X895193Y273096D01*
X895193Y278515D02*
X895191Y278634D01*
X895185Y278754D01*
X895175Y278873D01*
X895161Y278991D01*
X895144Y279110D01*
X895122Y279227D01*
X895097Y279344D01*
X895067Y279459D01*
X895034Y279574D01*
X894997Y279688D01*
X894957Y279800D01*
X894912Y279911D01*
X894864Y280020D01*
X894813Y280128D01*
X894758Y280234D01*
X894699Y280338D01*
X894637Y280440D01*
X894572Y280540D01*
X894503Y280638D01*
X894431Y280734D01*
X894356Y280827D01*
X894279Y280917D01*
X894198Y281005D01*
X894114Y281090D01*
X894027Y281172D01*
X893938Y281252D01*
X893846Y281328D01*
X893752Y281402D01*
X893655Y281472D01*
X893557Y281539D01*
X893456Y281603D01*
X893352Y281663D01*
X893247Y281720D01*
X893140Y281773D01*
X893032Y281823D01*
X892922Y281869D01*
X892810Y281911D01*
X892697Y281950D01*
X892583Y281985D01*
X892468Y282016D01*
X892351Y282044D01*
X892234Y282067D01*
X892117Y282087D01*
X891998Y282103D01*
X891879Y282115D01*
X891760Y282123D01*
X891641Y282127D01*
X891521Y282127D01*
X891402Y282123D01*
X891283Y282115D01*
X891164Y282103D01*
X891045Y282087D01*
X890928Y282067D01*
X890811Y282044D01*
X890694Y282016D01*
X890579Y281985D01*
X890465Y281950D01*
X890352Y281911D01*
X890240Y281869D01*
X890130Y281823D01*
X890022Y281773D01*
X889915Y281720D01*
X889810Y281663D01*
X889706Y281603D01*
X889605Y281539D01*
X889507Y281472D01*
X889410Y281402D01*
X889316Y281328D01*
X889224Y281252D01*
X889135Y281172D01*
X889048Y281090D01*
X888964Y281005D01*
X888883Y280917D01*
X888806Y280827D01*
X888731Y280734D01*
X888659Y280638D01*
X888590Y280540D01*
X888525Y280440D01*
X888463Y280338D01*
X888404Y280234D01*
X888349Y280128D01*
X888298Y280020D01*
X888250Y279911D01*
X888205Y279800D01*
X888165Y279688D01*
X888128Y279574D01*
X888095Y279459D01*
X888065Y279344D01*
X888040Y279227D01*
X888018Y279110D01*
X888001Y278991D01*
X887987Y278873D01*
X887977Y278754D01*
X887971Y278634D01*
X887969Y278515D01*
X887968Y278515D02*
X887968Y274903D01*
X882549Y288728D02*
X895193Y292340D01*
X882549Y288728D02*
X882549Y297759D01*
X878937Y295049D02*
X886162Y295049D01*
D13*
X83820Y304800D02*
X68580Y304800D01*
X68580Y330200D02*
X83820Y330200D01*
X83820Y355600D02*
X68580Y355600D01*
X68580Y381000D02*
X83820Y381000D01*
X157480Y406400D02*
X172720Y406400D01*
X172720Y381000D02*
X157480Y381000D01*
X157480Y355600D02*
X172720Y355600D01*
X172720Y330200D02*
X157480Y330200D01*
X157480Y304800D02*
X172720Y304800D01*
X172720Y279400D02*
X157480Y279400D01*
X157480Y254000D02*
X172720Y254000D01*
D14*
X266700Y50800D03*
X266700Y76200D03*
X292100Y50800D03*
X292100Y76200D03*
X317500Y50800D03*
X317500Y76200D03*
X342900Y50800D03*
X342900Y76200D03*
X368300Y50800D03*
X368300Y76200D03*
X393700Y50800D03*
X393700Y76200D03*
D15*
X736600Y152400D03*
X736600Y127000D03*
X711200Y152400D03*
X711200Y127000D03*
X685800Y152400D03*
X685800Y127000D03*
X660400Y152400D03*
X660400Y127000D03*
X635000Y152400D03*
X635000Y127000D03*
X609600Y152400D03*
X609600Y127000D03*
X584200Y152400D03*
X584200Y127000D03*
X558800Y152400D03*
X558800Y127000D03*
X533400Y152400D03*
X533400Y127000D03*
X508000Y152400D03*
X508000Y127000D03*
X482600Y152400D03*
X482600Y127000D03*
X457200Y152400D03*
X457200Y127000D03*
X431800Y152400D03*
X431800Y127000D03*
X406400Y152400D03*
X406400Y127000D03*
X381000Y152400D03*
X381000Y127000D03*
X355600Y152400D03*
X355600Y127000D03*
X330200Y152400D03*
X330200Y127000D03*
X304800Y152400D03*
X304800Y127000D03*
X279400Y152400D03*
X279400Y127000D03*
X254000Y152400D03*
X254000Y127000D03*
D16*
X215900Y203200D03*
X368300Y203200D03*
D17*
X444500Y393700D03*
X444500Y368300D03*
X444500Y342900D03*
X444500Y317500D03*
X444500Y292100D03*
X444500Y266700D03*
X698500Y292100D03*
X698500Y317500D03*
X698500Y342900D03*
X698500Y368300D03*
D18*
G36*
X231711Y423302D02*
X231269Y437374D01*
X245341Y437816D01*
X245783Y423744D01*
X231711Y423302D01*
G37*
D19*
X239324Y405172D03*
X240122Y379784D03*
X240920Y354397D03*
X241718Y329010D03*
X242516Y303622D03*
X243313Y278235D03*
X244111Y252847D03*
X319476Y280628D03*
X318678Y306016D03*
X317880Y331403D03*
X317082Y356790D03*
X316284Y382178D03*
X315487Y407565D03*
X314689Y432953D03*
X320274Y255241D03*
D20*
X513154Y256484D03*
X604446Y378516D03*
D21*
X558800Y254000D03*
X558800Y406400D03*
D16*
X495300Y190500D03*
X647700Y190500D03*
D15*
X520700Y228600D03*
X368300Y228600D03*
D12*
X622300Y165100D02*
X635000Y152400D01*
X622300Y165100D02*
X622300Y198587D01*
X698500Y360213D02*
X698500Y368300D01*
X698500Y360213D02*
X710874Y347839D01*
X710874Y287161D02*
X622300Y198587D01*
X710874Y287161D02*
X710874Y347839D01*
X644906Y148297D02*
X639103Y142494D01*
X630897Y142494D01*
X625094Y148297D01*
X619252Y199850D02*
X698500Y279098D01*
X698500Y292100D01*
X619252Y199850D02*
X619252Y163837D01*
X625094Y157995D01*
X625094Y148297D01*
X675894Y148297D02*
X675894Y150915D01*
X684745Y139446D02*
X698500Y139446D01*
X684745Y139446D02*
X675894Y148297D01*
X675894Y150915D02*
X664503Y162306D01*
X656297Y162306D01*
X644906Y150915D01*
X644906Y148297D01*
X710946Y127000D02*
X711200Y127000D01*
X710946Y127000D02*
X698500Y139446D01*
X238526Y416326D02*
X238526Y430559D01*
X190500Y368300D02*
X190500Y228600D01*
X215900Y203200D01*
X190500Y368300D02*
X238526Y416326D01*
X215900Y203200D02*
X203200Y190500D01*
X203200Y114300D01*
X266700Y50800D01*
X292100Y50800D01*
X317500Y50800D01*
X342900Y50800D01*
X368300Y50800D01*
X393700Y50800D01*
X498094Y131103D02*
X503897Y136906D01*
X517906Y136906D02*
X533400Y152400D01*
X517906Y136906D02*
X503897Y136906D01*
X445809Y76200D02*
X393700Y76200D01*
X445809Y76200D02*
X498094Y128485D01*
X498094Y131103D01*
X315487Y432155D02*
X314689Y432953D01*
X315487Y432155D02*
X315487Y407565D01*
X281442Y230642D02*
X228600Y177800D01*
X228600Y114300D01*
X266700Y76200D01*
X281442Y373521D02*
X315487Y407565D01*
X281442Y373521D02*
X281442Y230642D01*
X292100Y76200D02*
X266700Y76200D01*
X292100Y76200D02*
X317500Y76200D01*
X342900Y76200D01*
X368300Y76200D01*
X393700Y76200D01*
X317082Y356790D02*
X355600Y395308D01*
X355600Y419100D01*
X368300Y431800D01*
X571500Y431800D01*
X604446Y398854D01*
X604446Y378516D01*
X469900Y165100D02*
X482600Y152400D01*
X469900Y165100D02*
X469900Y177800D01*
X482600Y190500D01*
X495300Y190500D01*
X508000Y152400D02*
X533400Y177800D01*
X533400Y215900D01*
X520700Y228600D01*
X63500Y508000D02*
X38100Y482600D01*
X38100Y342900D01*
X76200Y304800D01*
X63500Y508000D02*
X755650Y508000D01*
X819150Y444500D01*
X63500Y431800D02*
X47752Y416052D01*
X58674Y335026D02*
X58674Y326097D01*
X76200Y308571D02*
X76200Y304800D01*
X76200Y308571D02*
X58674Y326097D01*
X47752Y345948D02*
X47752Y416052D01*
X47752Y345948D02*
X58674Y335026D01*
X819150Y444500D02*
X819150Y158750D01*
X165100Y419100D02*
X152400Y431800D01*
X165100Y419100D02*
X165100Y406400D01*
X152400Y431800D02*
X63500Y431800D01*
X749300Y139700D02*
X800100Y139700D01*
X819150Y158750D01*
X749300Y139700D02*
X736600Y152400D01*
X517652Y289052D02*
X381000Y152400D01*
X517652Y289052D02*
X674363Y289052D01*
X693485Y308174D02*
X706487Y308174D01*
X707826Y309513D01*
X707826Y325487D01*
X693485Y308174D02*
X674363Y289052D01*
X707826Y325487D02*
X698500Y334813D01*
X698500Y342900D01*
X698500Y317500D02*
X673100Y292100D01*
X495300Y292100D02*
X355600Y152400D01*
X495300Y292100D02*
X673100Y292100D01*
X88900Y393700D02*
X76200Y381000D01*
X88900Y393700D02*
X139700Y393700D01*
X147574Y385826D01*
X147574Y376897D01*
X165100Y359371D02*
X165100Y355600D01*
X165100Y359371D02*
X147574Y376897D01*
X165100Y355600D02*
X203200Y393700D01*
X203200Y444500D01*
X241300Y482600D01*
X749300Y482600D02*
X800100Y431800D01*
X800100Y241300D01*
X711200Y152400D01*
X749300Y482600D02*
X241300Y482600D01*
X444500Y165100D02*
X457200Y152400D01*
X444500Y165100D02*
X444500Y203200D01*
X482600Y241300D01*
X508000Y241300D01*
X513154Y246454D01*
X513154Y256484D01*
X316284Y382178D02*
X292100Y357994D01*
X292100Y283414D02*
X320274Y255241D01*
X292100Y283414D02*
X292100Y357994D01*
X304800Y270714D02*
X320274Y255241D01*
X534578Y382178D02*
X558800Y406400D01*
X307640Y360702D02*
X307640Y352879D01*
X313171Y347348D01*
X320994Y347348D01*
X316284Y369347D02*
X316284Y382178D01*
X316284Y369347D02*
X307640Y360702D01*
X355824Y382178D02*
X534578Y382178D01*
X355824Y382178D02*
X320994Y347348D01*
X317880Y331403D02*
X364429Y377952D01*
X590316Y377952D01*
X600142Y368126D01*
X608749Y368126D01*
X618249Y377626D01*
X727274Y377626D01*
X736600Y368300D01*
X736600Y292100D01*
X647700Y203200D01*
X647700Y190500D01*
X381000Y241300D02*
X368300Y228600D01*
X381000Y241300D02*
X381000Y266700D01*
X355600Y292100D02*
X330200Y292100D01*
X318678Y303622D01*
X318678Y306016D01*
X355600Y292100D02*
X381000Y266700D01*
X342900Y177800D02*
X342900Y114300D01*
X355600Y101600D01*
X406400Y101600D01*
X419100Y114300D01*
X342900Y177800D02*
X368300Y203200D01*
X419100Y139700D02*
X419100Y114300D01*
X419100Y139700D02*
X431800Y152400D01*
X165100Y254000D02*
X139700Y228600D01*
X139700Y50800D02*
X165100Y25400D01*
X139700Y50800D02*
X139700Y228600D01*
X76200Y330200D02*
X88900Y342900D01*
X127000Y342900D01*
X139700Y330200D01*
X139700Y266700D01*
X152400Y254000D01*
X165100Y254000D01*
X749300Y25400D02*
X774700Y50800D01*
X774700Y101600D01*
X749300Y25400D02*
X165100Y25400D01*
X736600Y127000D02*
X749300Y127000D01*
X774700Y101600D01*
X344639Y98552D02*
X320294Y122897D01*
X320294Y169203D01*
X329716Y270388D02*
X319476Y280628D01*
X329716Y270388D02*
X329716Y178626D01*
X320294Y169203D01*
X428752Y98552D02*
X457200Y127000D01*
X428752Y98552D02*
X344639Y98552D01*
X165100Y381000D02*
X139700Y406400D01*
X63500Y406400D01*
X50800Y393700D01*
X50800Y381000D01*
X165100Y381000D02*
X190500Y406400D01*
X190500Y457200D01*
X228600Y495300D01*
X749300Y495300D01*
X812800Y431800D01*
X812800Y228600D01*
X721106Y148297D02*
X715303Y142494D01*
X707097Y142494D01*
X721106Y148297D02*
X721106Y150915D01*
X697191Y152400D02*
X685800Y152400D01*
X732497Y162306D02*
X746506Y162306D01*
X732497Y162306D02*
X721106Y150915D01*
X707097Y142494D02*
X697191Y152400D01*
X746506Y162306D02*
X812800Y228600D01*
X76200Y355600D02*
X50800Y381000D01*
M02*
