G04 EAGLE Gerber RS-274X export*
G75*
%MOMM*%
%FSLAX34Y34*%
%LPD*%
%INSilkscreen Top*%
%IPPOS*%
%AMOC8*
5,1,8,0,0,1.08239X$1,22.5*%
G01*
%ADD10C,0.152400*%
%ADD11C,0.127000*%
%ADD12C,0.203200*%
%ADD13C,0.101600*%


D10*
X69850Y342900D02*
X63500Y349250D01*
X63500Y361950D01*
X69850Y368300D01*
X82550Y368300D01*
X88900Y361950D01*
X88900Y349250D01*
X82550Y342900D01*
X63500Y311150D02*
X63500Y298450D01*
X63500Y311150D02*
X69850Y317500D01*
X82550Y317500D01*
X88900Y311150D01*
X69850Y317500D02*
X63500Y323850D01*
X63500Y336550D01*
X69850Y342900D01*
X82550Y342900D01*
X88900Y336550D01*
X88900Y323850D01*
X82550Y317500D01*
X82550Y292100D02*
X69850Y292100D01*
X63500Y298450D01*
X82550Y292100D02*
X88900Y298450D01*
X88900Y311150D01*
X63500Y374650D02*
X63500Y387350D01*
X69850Y393700D01*
X82550Y393700D01*
X88900Y387350D01*
X69850Y368300D02*
X63500Y374650D01*
X82550Y368300D02*
X88900Y374650D01*
X88900Y387350D01*
D11*
X54737Y295783D02*
X45847Y295783D01*
X54737Y295783D02*
X54837Y295781D01*
X54936Y295775D01*
X55036Y295765D01*
X55134Y295752D01*
X55233Y295734D01*
X55330Y295713D01*
X55426Y295688D01*
X55522Y295659D01*
X55616Y295626D01*
X55709Y295590D01*
X55800Y295550D01*
X55890Y295506D01*
X55978Y295459D01*
X56064Y295409D01*
X56148Y295355D01*
X56230Y295298D01*
X56309Y295238D01*
X56387Y295174D01*
X56461Y295108D01*
X56533Y295039D01*
X56602Y294967D01*
X56668Y294893D01*
X56732Y294815D01*
X56792Y294736D01*
X56849Y294654D01*
X56903Y294570D01*
X56953Y294484D01*
X57000Y294396D01*
X57044Y294306D01*
X57084Y294215D01*
X57120Y294122D01*
X57153Y294028D01*
X57182Y293932D01*
X57207Y293836D01*
X57228Y293739D01*
X57246Y293640D01*
X57259Y293542D01*
X57269Y293442D01*
X57275Y293343D01*
X57277Y293243D01*
X57277Y291973D01*
X57277Y301763D02*
X45847Y301763D01*
X45847Y304938D01*
X45849Y305049D01*
X45855Y305159D01*
X45864Y305270D01*
X45878Y305380D01*
X45895Y305489D01*
X45916Y305598D01*
X45941Y305706D01*
X45970Y305813D01*
X46002Y305919D01*
X46038Y306024D01*
X46078Y306127D01*
X46121Y306229D01*
X46168Y306330D01*
X46219Y306429D01*
X46272Y306526D01*
X46329Y306620D01*
X46390Y306713D01*
X46453Y306804D01*
X46520Y306893D01*
X46590Y306979D01*
X46663Y307062D01*
X46738Y307144D01*
X46816Y307222D01*
X46898Y307297D01*
X46981Y307370D01*
X47067Y307440D01*
X47156Y307507D01*
X47247Y307570D01*
X47340Y307631D01*
X47434Y307688D01*
X47531Y307741D01*
X47630Y307792D01*
X47731Y307839D01*
X47833Y307882D01*
X47936Y307922D01*
X48041Y307958D01*
X48147Y307990D01*
X48254Y308019D01*
X48362Y308044D01*
X48471Y308065D01*
X48580Y308082D01*
X48690Y308096D01*
X48801Y308105D01*
X48911Y308111D01*
X49022Y308113D01*
X49133Y308111D01*
X49243Y308105D01*
X49354Y308096D01*
X49464Y308082D01*
X49573Y308065D01*
X49682Y308044D01*
X49790Y308019D01*
X49897Y307990D01*
X50003Y307958D01*
X50108Y307922D01*
X50211Y307882D01*
X50313Y307839D01*
X50414Y307792D01*
X50513Y307741D01*
X50610Y307688D01*
X50704Y307631D01*
X50797Y307570D01*
X50888Y307507D01*
X50977Y307440D01*
X51063Y307370D01*
X51146Y307297D01*
X51228Y307222D01*
X51306Y307144D01*
X51381Y307062D01*
X51454Y306979D01*
X51524Y306893D01*
X51591Y306804D01*
X51654Y306713D01*
X51715Y306620D01*
X51772Y306526D01*
X51825Y306429D01*
X51876Y306330D01*
X51923Y306229D01*
X51966Y306127D01*
X52006Y306024D01*
X52042Y305919D01*
X52074Y305813D01*
X52103Y305706D01*
X52128Y305598D01*
X52149Y305489D01*
X52166Y305380D01*
X52180Y305270D01*
X52189Y305159D01*
X52195Y305049D01*
X52197Y304938D01*
X52197Y301763D01*
X48387Y312622D02*
X45847Y315797D01*
X57277Y315797D01*
X57277Y312622D02*
X57277Y318972D01*
D10*
X171450Y292100D02*
X177800Y285750D01*
X177800Y273050D01*
X171450Y266700D01*
X158750Y266700D01*
X152400Y273050D01*
X152400Y285750D01*
X158750Y292100D01*
X177800Y323850D02*
X177800Y336550D01*
X177800Y323850D02*
X171450Y317500D01*
X158750Y317500D01*
X152400Y323850D01*
X171450Y317500D02*
X177800Y311150D01*
X177800Y298450D01*
X171450Y292100D01*
X158750Y292100D01*
X152400Y298450D01*
X152400Y311150D01*
X158750Y317500D01*
X177800Y361950D02*
X171450Y368300D01*
X177800Y361950D02*
X177800Y349250D01*
X171450Y342900D01*
X158750Y342900D01*
X152400Y349250D01*
X152400Y361950D01*
X158750Y368300D01*
X171450Y342900D02*
X177800Y336550D01*
X158750Y342900D02*
X152400Y336550D01*
X152400Y323850D01*
X177800Y400050D02*
X177800Y412750D01*
X177800Y400050D02*
X171450Y393700D01*
X158750Y393700D01*
X152400Y400050D01*
X171450Y393700D02*
X177800Y387350D01*
X177800Y374650D01*
X171450Y368300D01*
X158750Y368300D01*
X152400Y374650D01*
X152400Y387350D01*
X158750Y393700D01*
X158750Y419100D02*
X171450Y419100D01*
X177800Y412750D01*
X158750Y419100D02*
X152400Y412750D01*
X152400Y400050D01*
X177800Y260350D02*
X177800Y247650D01*
X171450Y241300D01*
X158750Y241300D01*
X152400Y247650D01*
X171450Y266700D02*
X177800Y260350D01*
X158750Y266700D02*
X152400Y260350D01*
X152400Y247650D01*
D11*
X184023Y396038D02*
X192913Y396038D01*
X193013Y396036D01*
X193112Y396030D01*
X193212Y396020D01*
X193310Y396007D01*
X193409Y395989D01*
X193506Y395968D01*
X193602Y395943D01*
X193698Y395914D01*
X193792Y395881D01*
X193885Y395845D01*
X193976Y395805D01*
X194066Y395761D01*
X194154Y395714D01*
X194240Y395664D01*
X194324Y395610D01*
X194406Y395553D01*
X194485Y395493D01*
X194563Y395429D01*
X194637Y395363D01*
X194709Y395294D01*
X194778Y395222D01*
X194844Y395148D01*
X194908Y395070D01*
X194968Y394991D01*
X195025Y394909D01*
X195079Y394825D01*
X195129Y394739D01*
X195176Y394651D01*
X195220Y394561D01*
X195260Y394470D01*
X195296Y394377D01*
X195329Y394283D01*
X195358Y394187D01*
X195383Y394091D01*
X195404Y393994D01*
X195422Y393895D01*
X195435Y393797D01*
X195445Y393697D01*
X195451Y393598D01*
X195453Y393498D01*
X195453Y392228D01*
X195453Y402019D02*
X184023Y402019D01*
X184023Y405194D01*
X184025Y405305D01*
X184031Y405415D01*
X184040Y405526D01*
X184054Y405636D01*
X184071Y405745D01*
X184092Y405854D01*
X184117Y405962D01*
X184146Y406069D01*
X184178Y406175D01*
X184214Y406280D01*
X184254Y406383D01*
X184297Y406485D01*
X184344Y406586D01*
X184395Y406685D01*
X184448Y406782D01*
X184505Y406876D01*
X184566Y406969D01*
X184629Y407060D01*
X184696Y407149D01*
X184766Y407235D01*
X184839Y407318D01*
X184914Y407400D01*
X184992Y407478D01*
X185074Y407553D01*
X185157Y407626D01*
X185243Y407696D01*
X185332Y407763D01*
X185423Y407826D01*
X185516Y407887D01*
X185611Y407944D01*
X185707Y407997D01*
X185806Y408048D01*
X185907Y408095D01*
X186009Y408138D01*
X186112Y408178D01*
X186217Y408214D01*
X186323Y408246D01*
X186430Y408275D01*
X186538Y408300D01*
X186647Y408321D01*
X186756Y408338D01*
X186866Y408352D01*
X186977Y408361D01*
X187087Y408367D01*
X187198Y408369D01*
X187309Y408367D01*
X187419Y408361D01*
X187530Y408352D01*
X187640Y408338D01*
X187749Y408321D01*
X187858Y408300D01*
X187966Y408275D01*
X188073Y408246D01*
X188179Y408214D01*
X188284Y408178D01*
X188387Y408138D01*
X188489Y408095D01*
X188590Y408048D01*
X188689Y407997D01*
X188786Y407944D01*
X188880Y407887D01*
X188973Y407826D01*
X189064Y407763D01*
X189153Y407696D01*
X189239Y407626D01*
X189322Y407553D01*
X189404Y407478D01*
X189482Y407400D01*
X189557Y407318D01*
X189630Y407235D01*
X189700Y407149D01*
X189767Y407060D01*
X189830Y406969D01*
X189891Y406876D01*
X189948Y406782D01*
X190001Y406685D01*
X190052Y406586D01*
X190099Y406485D01*
X190142Y406383D01*
X190182Y406280D01*
X190218Y406175D01*
X190250Y406069D01*
X190279Y405962D01*
X190304Y405854D01*
X190325Y405745D01*
X190342Y405636D01*
X190356Y405526D01*
X190365Y405415D01*
X190371Y405305D01*
X190373Y405194D01*
X190373Y402019D01*
X184023Y416370D02*
X184025Y416474D01*
X184031Y416579D01*
X184040Y416683D01*
X184053Y416786D01*
X184071Y416889D01*
X184091Y416991D01*
X184116Y417093D01*
X184144Y417193D01*
X184176Y417293D01*
X184212Y417391D01*
X184251Y417488D01*
X184293Y417583D01*
X184339Y417677D01*
X184389Y417769D01*
X184441Y417859D01*
X184497Y417947D01*
X184557Y418033D01*
X184619Y418117D01*
X184684Y418198D01*
X184752Y418277D01*
X184824Y418354D01*
X184897Y418427D01*
X184974Y418499D01*
X185053Y418567D01*
X185134Y418632D01*
X185218Y418694D01*
X185304Y418754D01*
X185392Y418810D01*
X185482Y418862D01*
X185574Y418912D01*
X185668Y418958D01*
X185763Y419000D01*
X185860Y419039D01*
X185958Y419075D01*
X186058Y419107D01*
X186158Y419135D01*
X186260Y419160D01*
X186362Y419180D01*
X186465Y419198D01*
X186568Y419211D01*
X186672Y419220D01*
X186777Y419226D01*
X186881Y419228D01*
X184023Y416370D02*
X184025Y416252D01*
X184031Y416133D01*
X184040Y416015D01*
X184053Y415898D01*
X184071Y415781D01*
X184091Y415664D01*
X184116Y415548D01*
X184144Y415433D01*
X184177Y415320D01*
X184212Y415207D01*
X184252Y415095D01*
X184294Y414985D01*
X184341Y414876D01*
X184391Y414768D01*
X184444Y414663D01*
X184501Y414559D01*
X184561Y414457D01*
X184624Y414357D01*
X184691Y414259D01*
X184760Y414163D01*
X184833Y414070D01*
X184909Y413979D01*
X184987Y413890D01*
X185069Y413804D01*
X185153Y413721D01*
X185239Y413640D01*
X185329Y413563D01*
X185420Y413488D01*
X185514Y413416D01*
X185611Y413347D01*
X185709Y413282D01*
X185810Y413219D01*
X185913Y413160D01*
X186017Y413104D01*
X186123Y413052D01*
X186231Y413003D01*
X186340Y412958D01*
X186451Y412916D01*
X186563Y412878D01*
X189103Y418275D02*
X189028Y418351D01*
X188949Y418426D01*
X188868Y418497D01*
X188784Y418566D01*
X188698Y418631D01*
X188610Y418693D01*
X188520Y418753D01*
X188428Y418809D01*
X188333Y418862D01*
X188237Y418911D01*
X188139Y418957D01*
X188040Y419000D01*
X187939Y419039D01*
X187837Y419074D01*
X187734Y419106D01*
X187630Y419134D01*
X187525Y419159D01*
X187418Y419180D01*
X187312Y419197D01*
X187205Y419210D01*
X187097Y419219D01*
X186989Y419225D01*
X186881Y419227D01*
X189103Y418275D02*
X195453Y412877D01*
X195453Y419227D01*
D10*
X254000Y85090D02*
X254000Y41910D01*
X279400Y85090D02*
X275590Y88900D01*
X279400Y85090D02*
X283210Y88900D01*
X300990Y88900D01*
X304800Y85090D01*
X308610Y88900D01*
X326390Y88900D01*
X330200Y85090D01*
X330200Y41910D02*
X326390Y38100D01*
X308610Y38100D01*
X304800Y41910D01*
X300990Y38100D01*
X283210Y38100D01*
X279400Y41910D01*
X275590Y38100D01*
X330200Y85090D02*
X334010Y88900D01*
X351790Y88900D01*
X355600Y85090D01*
X359410Y88900D01*
X377190Y88900D01*
X381000Y85090D01*
X334010Y38100D02*
X330200Y41910D01*
X334010Y38100D02*
X351790Y38100D01*
X355600Y41910D02*
X359410Y38100D01*
X355600Y41910D02*
X351790Y38100D01*
X359410Y38100D02*
X377190Y38100D01*
X381000Y41910D01*
X257810Y38100D02*
X254000Y41910D01*
X257810Y38100D02*
X275590Y38100D01*
X254000Y85090D02*
X257810Y88900D01*
X275590Y88900D01*
X406400Y85090D02*
X406400Y41910D01*
X381000Y85090D02*
X384810Y88900D01*
X402590Y88900D01*
X406400Y85090D01*
X406400Y41910D02*
X402590Y38100D01*
X384810Y38100D01*
X381000Y41910D01*
D11*
X265430Y33655D02*
X262255Y31115D01*
X265430Y33655D02*
X265430Y22225D01*
X262255Y22225D02*
X268605Y22225D01*
X291148Y33656D02*
X291252Y33654D01*
X291357Y33648D01*
X291461Y33639D01*
X291564Y33626D01*
X291667Y33608D01*
X291769Y33588D01*
X291871Y33563D01*
X291971Y33535D01*
X292071Y33503D01*
X292169Y33467D01*
X292266Y33428D01*
X292361Y33386D01*
X292455Y33340D01*
X292547Y33290D01*
X292637Y33238D01*
X292725Y33182D01*
X292811Y33122D01*
X292895Y33060D01*
X292976Y32995D01*
X293055Y32927D01*
X293132Y32855D01*
X293205Y32782D01*
X293277Y32705D01*
X293345Y32626D01*
X293410Y32545D01*
X293472Y32461D01*
X293532Y32375D01*
X293588Y32287D01*
X293640Y32197D01*
X293690Y32105D01*
X293736Y32011D01*
X293778Y31916D01*
X293817Y31819D01*
X293853Y31721D01*
X293885Y31621D01*
X293913Y31521D01*
X293938Y31419D01*
X293958Y31317D01*
X293976Y31214D01*
X293989Y31111D01*
X293998Y31007D01*
X294004Y30902D01*
X294006Y30798D01*
X291148Y33655D02*
X291030Y33653D01*
X290911Y33647D01*
X290793Y33638D01*
X290676Y33625D01*
X290559Y33607D01*
X290442Y33587D01*
X290326Y33562D01*
X290211Y33534D01*
X290098Y33501D01*
X289985Y33466D01*
X289873Y33426D01*
X289763Y33384D01*
X289654Y33337D01*
X289546Y33287D01*
X289441Y33234D01*
X289337Y33177D01*
X289235Y33117D01*
X289135Y33054D01*
X289037Y32987D01*
X288941Y32918D01*
X288848Y32845D01*
X288757Y32769D01*
X288668Y32691D01*
X288582Y32609D01*
X288499Y32525D01*
X288418Y32439D01*
X288341Y32349D01*
X288266Y32258D01*
X288194Y32164D01*
X288125Y32067D01*
X288060Y31969D01*
X287997Y31868D01*
X287938Y31765D01*
X287882Y31661D01*
X287830Y31555D01*
X287781Y31447D01*
X287736Y31338D01*
X287694Y31227D01*
X287656Y31115D01*
X293053Y28576D02*
X293129Y28651D01*
X293204Y28730D01*
X293275Y28811D01*
X293344Y28895D01*
X293409Y28981D01*
X293471Y29069D01*
X293531Y29159D01*
X293587Y29251D01*
X293640Y29346D01*
X293689Y29442D01*
X293735Y29540D01*
X293778Y29639D01*
X293817Y29740D01*
X293852Y29842D01*
X293884Y29945D01*
X293912Y30049D01*
X293937Y30154D01*
X293958Y30261D01*
X293975Y30367D01*
X293988Y30474D01*
X293997Y30582D01*
X294003Y30690D01*
X294005Y30798D01*
X293053Y28575D02*
X287655Y22225D01*
X294005Y22225D01*
X313055Y22225D02*
X316230Y22225D01*
X316341Y22227D01*
X316451Y22233D01*
X316562Y22242D01*
X316672Y22256D01*
X316781Y22273D01*
X316890Y22294D01*
X316998Y22319D01*
X317105Y22348D01*
X317211Y22380D01*
X317316Y22416D01*
X317419Y22456D01*
X317521Y22499D01*
X317622Y22546D01*
X317721Y22597D01*
X317818Y22650D01*
X317912Y22707D01*
X318005Y22768D01*
X318096Y22831D01*
X318185Y22898D01*
X318271Y22968D01*
X318354Y23041D01*
X318436Y23116D01*
X318514Y23194D01*
X318589Y23276D01*
X318662Y23359D01*
X318732Y23445D01*
X318799Y23534D01*
X318862Y23625D01*
X318923Y23718D01*
X318980Y23812D01*
X319033Y23909D01*
X319084Y24008D01*
X319131Y24109D01*
X319174Y24211D01*
X319214Y24314D01*
X319250Y24419D01*
X319282Y24525D01*
X319311Y24632D01*
X319336Y24740D01*
X319357Y24849D01*
X319374Y24958D01*
X319388Y25068D01*
X319397Y25179D01*
X319403Y25289D01*
X319405Y25400D01*
X319403Y25511D01*
X319397Y25621D01*
X319388Y25732D01*
X319374Y25842D01*
X319357Y25951D01*
X319336Y26060D01*
X319311Y26168D01*
X319282Y26275D01*
X319250Y26381D01*
X319214Y26486D01*
X319174Y26589D01*
X319131Y26691D01*
X319084Y26792D01*
X319033Y26891D01*
X318980Y26987D01*
X318923Y27082D01*
X318862Y27175D01*
X318799Y27266D01*
X318732Y27355D01*
X318662Y27441D01*
X318589Y27524D01*
X318514Y27606D01*
X318436Y27684D01*
X318354Y27759D01*
X318271Y27832D01*
X318185Y27902D01*
X318096Y27969D01*
X318005Y28032D01*
X317912Y28093D01*
X317818Y28150D01*
X317721Y28203D01*
X317622Y28254D01*
X317521Y28301D01*
X317419Y28344D01*
X317316Y28384D01*
X317211Y28420D01*
X317105Y28452D01*
X316998Y28481D01*
X316890Y28506D01*
X316781Y28527D01*
X316672Y28544D01*
X316562Y28558D01*
X316451Y28567D01*
X316341Y28573D01*
X316230Y28575D01*
X316865Y33655D02*
X313055Y33655D01*
X316865Y33655D02*
X316965Y33653D01*
X317064Y33647D01*
X317164Y33637D01*
X317262Y33624D01*
X317361Y33606D01*
X317458Y33585D01*
X317554Y33560D01*
X317650Y33531D01*
X317744Y33498D01*
X317837Y33462D01*
X317928Y33422D01*
X318018Y33378D01*
X318106Y33331D01*
X318192Y33281D01*
X318276Y33227D01*
X318358Y33170D01*
X318437Y33110D01*
X318515Y33046D01*
X318589Y32980D01*
X318661Y32911D01*
X318730Y32839D01*
X318796Y32765D01*
X318860Y32687D01*
X318920Y32608D01*
X318977Y32526D01*
X319031Y32442D01*
X319081Y32356D01*
X319128Y32268D01*
X319172Y32178D01*
X319212Y32087D01*
X319248Y31994D01*
X319281Y31900D01*
X319310Y31804D01*
X319335Y31708D01*
X319356Y31611D01*
X319374Y31512D01*
X319387Y31414D01*
X319397Y31314D01*
X319403Y31215D01*
X319405Y31115D01*
X319403Y31015D01*
X319397Y30916D01*
X319387Y30816D01*
X319374Y30718D01*
X319356Y30619D01*
X319335Y30522D01*
X319310Y30426D01*
X319281Y30330D01*
X319248Y30236D01*
X319212Y30143D01*
X319172Y30052D01*
X319128Y29962D01*
X319081Y29874D01*
X319031Y29788D01*
X318977Y29704D01*
X318920Y29622D01*
X318860Y29543D01*
X318796Y29465D01*
X318730Y29391D01*
X318661Y29319D01*
X318589Y29250D01*
X318515Y29184D01*
X318437Y29120D01*
X318358Y29060D01*
X318276Y29003D01*
X318192Y28949D01*
X318106Y28899D01*
X318018Y28852D01*
X317928Y28808D01*
X317837Y28768D01*
X317744Y28732D01*
X317650Y28699D01*
X317554Y28670D01*
X317458Y28645D01*
X317361Y28624D01*
X317262Y28606D01*
X317164Y28593D01*
X317064Y28583D01*
X316965Y28577D01*
X316865Y28575D01*
X314325Y28575D01*
X338455Y24765D02*
X340995Y33655D01*
X338455Y24765D02*
X344805Y24765D01*
X342900Y27305D02*
X342900Y22225D01*
X363855Y22225D02*
X367665Y22225D01*
X367765Y22227D01*
X367864Y22233D01*
X367964Y22243D01*
X368062Y22256D01*
X368161Y22274D01*
X368258Y22295D01*
X368354Y22320D01*
X368450Y22349D01*
X368544Y22382D01*
X368637Y22418D01*
X368728Y22458D01*
X368818Y22502D01*
X368906Y22549D01*
X368992Y22599D01*
X369076Y22653D01*
X369158Y22710D01*
X369237Y22770D01*
X369315Y22834D01*
X369389Y22900D01*
X369461Y22969D01*
X369530Y23041D01*
X369596Y23115D01*
X369660Y23193D01*
X369720Y23272D01*
X369777Y23354D01*
X369831Y23438D01*
X369881Y23524D01*
X369928Y23612D01*
X369972Y23702D01*
X370012Y23793D01*
X370048Y23886D01*
X370081Y23980D01*
X370110Y24076D01*
X370135Y24172D01*
X370156Y24269D01*
X370174Y24368D01*
X370187Y24466D01*
X370197Y24566D01*
X370203Y24665D01*
X370205Y24765D01*
X370205Y26035D01*
X370203Y26135D01*
X370197Y26234D01*
X370187Y26334D01*
X370174Y26432D01*
X370156Y26531D01*
X370135Y26628D01*
X370110Y26724D01*
X370081Y26820D01*
X370048Y26914D01*
X370012Y27007D01*
X369972Y27098D01*
X369928Y27188D01*
X369881Y27276D01*
X369831Y27362D01*
X369777Y27446D01*
X369720Y27528D01*
X369660Y27607D01*
X369596Y27685D01*
X369530Y27759D01*
X369461Y27831D01*
X369389Y27900D01*
X369315Y27966D01*
X369237Y28030D01*
X369158Y28090D01*
X369076Y28147D01*
X368992Y28201D01*
X368906Y28251D01*
X368818Y28298D01*
X368728Y28342D01*
X368637Y28382D01*
X368544Y28418D01*
X368450Y28451D01*
X368354Y28480D01*
X368258Y28505D01*
X368161Y28526D01*
X368062Y28544D01*
X367964Y28557D01*
X367864Y28567D01*
X367765Y28573D01*
X367665Y28575D01*
X363855Y28575D01*
X363855Y33655D01*
X370205Y33655D01*
X389255Y28575D02*
X393065Y28575D01*
X393165Y28573D01*
X393264Y28567D01*
X393364Y28557D01*
X393462Y28544D01*
X393561Y28526D01*
X393658Y28505D01*
X393754Y28480D01*
X393850Y28451D01*
X393944Y28418D01*
X394037Y28382D01*
X394128Y28342D01*
X394218Y28298D01*
X394306Y28251D01*
X394392Y28201D01*
X394476Y28147D01*
X394558Y28090D01*
X394637Y28030D01*
X394715Y27966D01*
X394789Y27900D01*
X394861Y27831D01*
X394930Y27759D01*
X394996Y27685D01*
X395060Y27607D01*
X395120Y27528D01*
X395177Y27446D01*
X395231Y27362D01*
X395281Y27276D01*
X395328Y27188D01*
X395372Y27098D01*
X395412Y27007D01*
X395448Y26914D01*
X395481Y26820D01*
X395510Y26724D01*
X395535Y26628D01*
X395556Y26531D01*
X395574Y26432D01*
X395587Y26334D01*
X395597Y26234D01*
X395603Y26135D01*
X395605Y26035D01*
X395605Y25400D01*
X395603Y25289D01*
X395597Y25179D01*
X395588Y25068D01*
X395574Y24958D01*
X395557Y24849D01*
X395536Y24740D01*
X395511Y24632D01*
X395482Y24525D01*
X395450Y24419D01*
X395414Y24314D01*
X395374Y24211D01*
X395331Y24109D01*
X395284Y24008D01*
X395233Y23909D01*
X395180Y23812D01*
X395123Y23718D01*
X395062Y23625D01*
X394999Y23534D01*
X394932Y23445D01*
X394862Y23359D01*
X394789Y23276D01*
X394714Y23194D01*
X394636Y23116D01*
X394554Y23041D01*
X394471Y22968D01*
X394385Y22898D01*
X394296Y22831D01*
X394205Y22768D01*
X394112Y22707D01*
X394017Y22650D01*
X393921Y22597D01*
X393822Y22546D01*
X393721Y22499D01*
X393619Y22456D01*
X393516Y22416D01*
X393411Y22380D01*
X393305Y22348D01*
X393198Y22319D01*
X393090Y22294D01*
X392981Y22273D01*
X392872Y22256D01*
X392762Y22242D01*
X392651Y22233D01*
X392541Y22227D01*
X392430Y22225D01*
X392319Y22227D01*
X392209Y22233D01*
X392098Y22242D01*
X391988Y22256D01*
X391879Y22273D01*
X391770Y22294D01*
X391662Y22319D01*
X391555Y22348D01*
X391449Y22380D01*
X391344Y22416D01*
X391241Y22456D01*
X391139Y22499D01*
X391038Y22546D01*
X390939Y22597D01*
X390843Y22650D01*
X390748Y22707D01*
X390655Y22768D01*
X390564Y22831D01*
X390475Y22898D01*
X390389Y22968D01*
X390306Y23041D01*
X390224Y23116D01*
X390146Y23194D01*
X390071Y23276D01*
X389998Y23359D01*
X389928Y23445D01*
X389861Y23534D01*
X389798Y23625D01*
X389737Y23718D01*
X389680Y23813D01*
X389627Y23909D01*
X389576Y24008D01*
X389529Y24109D01*
X389486Y24211D01*
X389446Y24314D01*
X389410Y24419D01*
X389378Y24525D01*
X389349Y24632D01*
X389324Y24740D01*
X389303Y24849D01*
X389286Y24958D01*
X389272Y25068D01*
X389263Y25179D01*
X389257Y25289D01*
X389255Y25400D01*
X389255Y28575D01*
X389257Y28715D01*
X389263Y28855D01*
X389272Y28995D01*
X389286Y29134D01*
X389303Y29273D01*
X389324Y29411D01*
X389349Y29549D01*
X389378Y29686D01*
X389410Y29822D01*
X389447Y29957D01*
X389487Y30091D01*
X389530Y30224D01*
X389578Y30356D01*
X389628Y30487D01*
X389683Y30616D01*
X389741Y30743D01*
X389802Y30869D01*
X389867Y30993D01*
X389936Y31115D01*
X390007Y31235D01*
X390082Y31353D01*
X390160Y31470D01*
X390242Y31584D01*
X390326Y31695D01*
X390414Y31804D01*
X390504Y31911D01*
X390598Y32016D01*
X390694Y32117D01*
X390793Y32216D01*
X390894Y32312D01*
X390999Y32406D01*
X391106Y32496D01*
X391215Y32584D01*
X391326Y32668D01*
X391440Y32750D01*
X391557Y32828D01*
X391675Y32903D01*
X391795Y32974D01*
X391917Y33043D01*
X392041Y33108D01*
X392167Y33169D01*
X392294Y33227D01*
X392423Y33282D01*
X392554Y33332D01*
X392686Y33380D01*
X392819Y33423D01*
X392953Y33463D01*
X393088Y33500D01*
X393224Y33532D01*
X393361Y33561D01*
X393499Y33586D01*
X393637Y33607D01*
X393776Y33624D01*
X393915Y33638D01*
X394055Y33647D01*
X394195Y33653D01*
X394335Y33655D01*
X258445Y97155D02*
X258445Y106045D01*
X258445Y97155D02*
X258443Y97055D01*
X258437Y96956D01*
X258427Y96856D01*
X258414Y96758D01*
X258396Y96659D01*
X258375Y96562D01*
X258350Y96466D01*
X258321Y96370D01*
X258288Y96276D01*
X258252Y96183D01*
X258212Y96092D01*
X258168Y96002D01*
X258121Y95914D01*
X258071Y95828D01*
X258017Y95744D01*
X257960Y95662D01*
X257900Y95583D01*
X257836Y95505D01*
X257770Y95431D01*
X257701Y95359D01*
X257629Y95290D01*
X257555Y95224D01*
X257477Y95160D01*
X257398Y95100D01*
X257316Y95043D01*
X257232Y94989D01*
X257146Y94939D01*
X257058Y94892D01*
X256968Y94848D01*
X256877Y94808D01*
X256784Y94772D01*
X256690Y94739D01*
X256594Y94710D01*
X256498Y94685D01*
X256401Y94664D01*
X256302Y94646D01*
X256204Y94633D01*
X256104Y94623D01*
X256005Y94617D01*
X255905Y94615D01*
X254635Y94615D01*
X264425Y94615D02*
X264425Y106045D01*
X267600Y106045D01*
X267711Y106043D01*
X267821Y106037D01*
X267932Y106028D01*
X268042Y106014D01*
X268151Y105997D01*
X268260Y105976D01*
X268368Y105951D01*
X268475Y105922D01*
X268581Y105890D01*
X268686Y105854D01*
X268789Y105814D01*
X268891Y105771D01*
X268992Y105724D01*
X269091Y105673D01*
X269188Y105620D01*
X269282Y105563D01*
X269375Y105502D01*
X269466Y105439D01*
X269555Y105372D01*
X269641Y105302D01*
X269724Y105229D01*
X269806Y105154D01*
X269884Y105076D01*
X269959Y104994D01*
X270032Y104911D01*
X270102Y104825D01*
X270169Y104736D01*
X270232Y104645D01*
X270293Y104552D01*
X270350Y104457D01*
X270403Y104361D01*
X270454Y104262D01*
X270501Y104161D01*
X270544Y104059D01*
X270584Y103956D01*
X270620Y103851D01*
X270652Y103745D01*
X270681Y103638D01*
X270706Y103530D01*
X270727Y103421D01*
X270744Y103312D01*
X270758Y103202D01*
X270767Y103091D01*
X270773Y102981D01*
X270775Y102870D01*
X270773Y102759D01*
X270767Y102649D01*
X270758Y102538D01*
X270744Y102428D01*
X270727Y102319D01*
X270706Y102210D01*
X270681Y102102D01*
X270652Y101995D01*
X270620Y101889D01*
X270584Y101784D01*
X270544Y101681D01*
X270501Y101579D01*
X270454Y101478D01*
X270403Y101379D01*
X270350Y101282D01*
X270293Y101188D01*
X270232Y101095D01*
X270169Y101004D01*
X270102Y100915D01*
X270032Y100829D01*
X269959Y100746D01*
X269884Y100664D01*
X269806Y100586D01*
X269724Y100511D01*
X269641Y100438D01*
X269555Y100368D01*
X269466Y100301D01*
X269375Y100238D01*
X269282Y100177D01*
X269188Y100120D01*
X269091Y100067D01*
X268992Y100016D01*
X268891Y99969D01*
X268789Y99926D01*
X268686Y99886D01*
X268581Y99850D01*
X268475Y99818D01*
X268368Y99789D01*
X268260Y99764D01*
X268151Y99743D01*
X268042Y99726D01*
X267932Y99712D01*
X267821Y99703D01*
X267711Y99697D01*
X267600Y99695D01*
X264425Y99695D01*
X275284Y94615D02*
X278459Y94615D01*
X278570Y94617D01*
X278680Y94623D01*
X278791Y94632D01*
X278901Y94646D01*
X279010Y94663D01*
X279119Y94684D01*
X279227Y94709D01*
X279334Y94738D01*
X279440Y94770D01*
X279545Y94806D01*
X279648Y94846D01*
X279750Y94889D01*
X279851Y94936D01*
X279950Y94987D01*
X280047Y95040D01*
X280141Y95097D01*
X280234Y95158D01*
X280325Y95221D01*
X280414Y95288D01*
X280500Y95358D01*
X280583Y95431D01*
X280665Y95506D01*
X280743Y95584D01*
X280818Y95666D01*
X280891Y95749D01*
X280961Y95835D01*
X281028Y95924D01*
X281091Y96015D01*
X281152Y96108D01*
X281209Y96202D01*
X281262Y96299D01*
X281313Y96398D01*
X281360Y96499D01*
X281403Y96601D01*
X281443Y96704D01*
X281479Y96809D01*
X281511Y96915D01*
X281540Y97022D01*
X281565Y97130D01*
X281586Y97239D01*
X281603Y97348D01*
X281617Y97458D01*
X281626Y97569D01*
X281632Y97679D01*
X281634Y97790D01*
X281632Y97901D01*
X281626Y98011D01*
X281617Y98122D01*
X281603Y98232D01*
X281586Y98341D01*
X281565Y98450D01*
X281540Y98558D01*
X281511Y98665D01*
X281479Y98771D01*
X281443Y98876D01*
X281403Y98979D01*
X281360Y99081D01*
X281313Y99182D01*
X281262Y99281D01*
X281209Y99377D01*
X281152Y99472D01*
X281091Y99565D01*
X281028Y99656D01*
X280961Y99745D01*
X280891Y99831D01*
X280818Y99914D01*
X280743Y99996D01*
X280665Y100074D01*
X280583Y100149D01*
X280500Y100222D01*
X280414Y100292D01*
X280325Y100359D01*
X280234Y100422D01*
X280141Y100483D01*
X280047Y100540D01*
X279950Y100593D01*
X279851Y100644D01*
X279750Y100691D01*
X279648Y100734D01*
X279545Y100774D01*
X279440Y100810D01*
X279334Y100842D01*
X279227Y100871D01*
X279119Y100896D01*
X279010Y100917D01*
X278901Y100934D01*
X278791Y100948D01*
X278680Y100957D01*
X278570Y100963D01*
X278459Y100965D01*
X279094Y106045D02*
X275284Y106045D01*
X279094Y106045D02*
X279194Y106043D01*
X279293Y106037D01*
X279393Y106027D01*
X279491Y106014D01*
X279590Y105996D01*
X279687Y105975D01*
X279783Y105950D01*
X279879Y105921D01*
X279973Y105888D01*
X280066Y105852D01*
X280157Y105812D01*
X280247Y105768D01*
X280335Y105721D01*
X280421Y105671D01*
X280505Y105617D01*
X280587Y105560D01*
X280666Y105500D01*
X280744Y105436D01*
X280818Y105370D01*
X280890Y105301D01*
X280959Y105229D01*
X281025Y105155D01*
X281089Y105077D01*
X281149Y104998D01*
X281206Y104916D01*
X281260Y104832D01*
X281310Y104746D01*
X281357Y104658D01*
X281401Y104568D01*
X281441Y104477D01*
X281477Y104384D01*
X281510Y104290D01*
X281539Y104194D01*
X281564Y104098D01*
X281585Y104001D01*
X281603Y103902D01*
X281616Y103804D01*
X281626Y103704D01*
X281632Y103605D01*
X281634Y103505D01*
X281632Y103405D01*
X281626Y103306D01*
X281616Y103206D01*
X281603Y103108D01*
X281585Y103009D01*
X281564Y102912D01*
X281539Y102816D01*
X281510Y102720D01*
X281477Y102626D01*
X281441Y102533D01*
X281401Y102442D01*
X281357Y102352D01*
X281310Y102264D01*
X281260Y102178D01*
X281206Y102094D01*
X281149Y102012D01*
X281089Y101933D01*
X281025Y101855D01*
X280959Y101781D01*
X280890Y101709D01*
X280818Y101640D01*
X280744Y101574D01*
X280666Y101510D01*
X280587Y101450D01*
X280505Y101393D01*
X280421Y101339D01*
X280335Y101289D01*
X280247Y101242D01*
X280157Y101198D01*
X280066Y101158D01*
X279973Y101122D01*
X279879Y101089D01*
X279783Y101060D01*
X279687Y101035D01*
X279590Y101014D01*
X279491Y100996D01*
X279393Y100983D01*
X279293Y100973D01*
X279194Y100967D01*
X279094Y100965D01*
X276554Y100965D01*
D10*
X742950Y165100D02*
X749300Y158750D01*
X742950Y165100D02*
X730250Y165100D01*
X723900Y158750D01*
X717550Y165100D01*
X704850Y165100D01*
X698500Y158750D01*
X692150Y165100D01*
X679450Y165100D01*
X673100Y158750D01*
X666750Y165100D01*
X654050Y165100D01*
X647700Y158750D01*
X641350Y165100D01*
X628650Y165100D01*
X622300Y158750D01*
X615950Y165100D01*
X603250Y165100D01*
X596900Y158750D01*
X749300Y158750D02*
X749300Y120650D01*
X742950Y114300D01*
X730250Y114300D01*
X723900Y120650D01*
X717550Y114300D01*
X704850Y114300D01*
X698500Y120650D01*
X692150Y114300D01*
X679450Y114300D01*
X673100Y120650D01*
X666750Y114300D01*
X654050Y114300D01*
X647700Y120650D01*
X641350Y114300D01*
X628650Y114300D01*
X622300Y120650D01*
X615950Y114300D01*
X603250Y114300D01*
X596900Y120650D01*
X590550Y114300D01*
X577850Y114300D01*
X571500Y120650D01*
X565150Y114300D01*
X552450Y114300D01*
X546100Y120650D01*
X539750Y114300D01*
X527050Y114300D01*
X520700Y120650D01*
X514350Y114300D01*
X501650Y114300D01*
X495300Y120650D01*
X488950Y114300D01*
X476250Y114300D01*
X469900Y120650D01*
X463550Y114300D01*
X450850Y114300D01*
X444500Y120650D01*
X438150Y114300D01*
X425450Y114300D01*
X419100Y120650D01*
X412750Y114300D01*
X400050Y114300D01*
X393700Y120650D01*
X387350Y114300D01*
X374650Y114300D01*
X368300Y120650D01*
X361950Y114300D01*
X349250Y114300D01*
X342900Y120650D01*
X336550Y114300D01*
X323850Y114300D01*
X317500Y120650D01*
X311150Y114300D01*
X298450Y114300D01*
X292100Y120650D01*
X285750Y114300D01*
X273050Y114300D01*
X266700Y120650D01*
X266700Y158750D02*
X273050Y165100D01*
X285750Y165100D01*
X292100Y158750D01*
X298450Y165100D01*
X311150Y165100D01*
X317500Y158750D01*
X323850Y165100D01*
X336550Y165100D01*
X342900Y158750D01*
X349250Y165100D01*
X361950Y165100D01*
X368300Y158750D01*
X374650Y165100D01*
X387350Y165100D01*
X393700Y158750D01*
X400050Y165100D01*
X412750Y165100D01*
X419100Y158750D01*
X425450Y165100D01*
X438150Y165100D01*
X444500Y158750D01*
X450850Y165100D01*
X463550Y165100D01*
X469900Y158750D01*
X476250Y165100D01*
X488950Y165100D01*
X495300Y158750D01*
X501650Y165100D01*
X514350Y165100D01*
X520700Y158750D01*
X527050Y165100D01*
X539750Y165100D01*
X546100Y158750D01*
X552450Y165100D01*
X565150Y165100D01*
X571500Y158750D01*
X577850Y165100D01*
X590550Y165100D01*
X596900Y158750D01*
X723900Y158750D02*
X723900Y120650D01*
X698500Y120650D02*
X698500Y158750D01*
X673100Y158750D02*
X673100Y120650D01*
X647700Y120650D02*
X647700Y158750D01*
X622300Y158750D02*
X622300Y120650D01*
X596900Y120650D02*
X596900Y158750D01*
X571500Y158750D02*
X571500Y120650D01*
X546100Y120650D02*
X546100Y158750D01*
X520700Y158750D02*
X520700Y120650D01*
X495300Y120650D02*
X495300Y158750D01*
X469900Y158750D02*
X469900Y120650D01*
X444500Y120650D02*
X444500Y158750D01*
X419100Y158750D02*
X419100Y120650D01*
X393700Y120650D02*
X393700Y158750D01*
X368300Y158750D02*
X368300Y120650D01*
X342900Y120650D02*
X342900Y158750D01*
X317500Y158750D02*
X317500Y120650D01*
X292100Y120650D02*
X292100Y158750D01*
X266700Y158750D02*
X266700Y120650D01*
X260350Y114300D01*
X247650Y114300D01*
X241300Y120650D01*
X241300Y158750D02*
X247650Y165100D01*
X260350Y165100D01*
X266700Y158750D01*
X241300Y158750D02*
X241300Y120650D01*
D11*
X725476Y107315D02*
X725476Y98425D01*
X725474Y98325D01*
X725468Y98226D01*
X725458Y98126D01*
X725445Y98028D01*
X725427Y97929D01*
X725406Y97832D01*
X725381Y97736D01*
X725352Y97640D01*
X725319Y97546D01*
X725283Y97453D01*
X725243Y97362D01*
X725199Y97272D01*
X725152Y97184D01*
X725102Y97098D01*
X725048Y97014D01*
X724991Y96932D01*
X724931Y96853D01*
X724867Y96775D01*
X724801Y96701D01*
X724732Y96629D01*
X724660Y96560D01*
X724586Y96494D01*
X724508Y96430D01*
X724429Y96370D01*
X724347Y96313D01*
X724263Y96259D01*
X724177Y96209D01*
X724089Y96162D01*
X723999Y96118D01*
X723908Y96078D01*
X723815Y96042D01*
X723721Y96009D01*
X723625Y95980D01*
X723529Y95955D01*
X723432Y95934D01*
X723333Y95916D01*
X723235Y95903D01*
X723135Y95893D01*
X723036Y95887D01*
X722936Y95885D01*
X721666Y95885D01*
X731457Y95885D02*
X731457Y107315D01*
X734632Y107315D01*
X734743Y107313D01*
X734853Y107307D01*
X734964Y107298D01*
X735074Y107284D01*
X735183Y107267D01*
X735292Y107246D01*
X735400Y107221D01*
X735507Y107192D01*
X735613Y107160D01*
X735718Y107124D01*
X735821Y107084D01*
X735923Y107041D01*
X736024Y106994D01*
X736123Y106943D01*
X736220Y106890D01*
X736314Y106833D01*
X736407Y106772D01*
X736498Y106709D01*
X736587Y106642D01*
X736673Y106572D01*
X736756Y106499D01*
X736838Y106424D01*
X736916Y106346D01*
X736991Y106264D01*
X737064Y106181D01*
X737134Y106095D01*
X737201Y106006D01*
X737264Y105915D01*
X737325Y105822D01*
X737382Y105727D01*
X737435Y105631D01*
X737486Y105532D01*
X737533Y105431D01*
X737576Y105329D01*
X737616Y105226D01*
X737652Y105121D01*
X737684Y105015D01*
X737713Y104908D01*
X737738Y104800D01*
X737759Y104691D01*
X737776Y104582D01*
X737790Y104472D01*
X737799Y104361D01*
X737805Y104251D01*
X737807Y104140D01*
X737805Y104029D01*
X737799Y103919D01*
X737790Y103808D01*
X737776Y103698D01*
X737759Y103589D01*
X737738Y103480D01*
X737713Y103372D01*
X737684Y103265D01*
X737652Y103159D01*
X737616Y103054D01*
X737576Y102951D01*
X737533Y102849D01*
X737486Y102748D01*
X737435Y102649D01*
X737382Y102552D01*
X737325Y102458D01*
X737264Y102365D01*
X737201Y102274D01*
X737134Y102185D01*
X737064Y102099D01*
X736991Y102016D01*
X736916Y101934D01*
X736838Y101856D01*
X736756Y101781D01*
X736673Y101708D01*
X736587Y101638D01*
X736498Y101571D01*
X736407Y101508D01*
X736314Y101447D01*
X736220Y101390D01*
X736123Y101337D01*
X736024Y101286D01*
X735923Y101239D01*
X735821Y101196D01*
X735718Y101156D01*
X735613Y101120D01*
X735507Y101088D01*
X735400Y101059D01*
X735292Y101034D01*
X735183Y101013D01*
X735074Y100996D01*
X734964Y100982D01*
X734853Y100973D01*
X734743Y100967D01*
X734632Y100965D01*
X731457Y100965D01*
X742315Y98425D02*
X744855Y107315D01*
X742315Y98425D02*
X748665Y98425D01*
X746760Y100965D02*
X746760Y95885D01*
D10*
X229870Y226060D02*
X229770Y226058D01*
X229671Y226052D01*
X229571Y226042D01*
X229473Y226029D01*
X229374Y226011D01*
X229277Y225990D01*
X229181Y225965D01*
X229085Y225936D01*
X228991Y225903D01*
X228898Y225867D01*
X228807Y225827D01*
X228717Y225783D01*
X228629Y225736D01*
X228543Y225686D01*
X228459Y225632D01*
X228377Y225575D01*
X228298Y225515D01*
X228220Y225451D01*
X228146Y225385D01*
X228074Y225316D01*
X228005Y225244D01*
X227939Y225170D01*
X227875Y225092D01*
X227815Y225013D01*
X227758Y224931D01*
X227704Y224847D01*
X227654Y224761D01*
X227607Y224673D01*
X227563Y224583D01*
X227523Y224492D01*
X227487Y224399D01*
X227454Y224305D01*
X227425Y224209D01*
X227400Y224113D01*
X227379Y224016D01*
X227361Y223917D01*
X227348Y223819D01*
X227338Y223719D01*
X227332Y223620D01*
X227330Y223520D01*
X227330Y182880D02*
X227332Y182780D01*
X227338Y182681D01*
X227348Y182581D01*
X227361Y182483D01*
X227379Y182384D01*
X227400Y182287D01*
X227425Y182191D01*
X227454Y182095D01*
X227487Y182001D01*
X227523Y181908D01*
X227563Y181817D01*
X227607Y181727D01*
X227654Y181639D01*
X227704Y181553D01*
X227758Y181469D01*
X227815Y181387D01*
X227875Y181308D01*
X227939Y181230D01*
X228005Y181156D01*
X228074Y181084D01*
X228146Y181015D01*
X228220Y180949D01*
X228298Y180885D01*
X228377Y180825D01*
X228459Y180768D01*
X228543Y180714D01*
X228629Y180664D01*
X228717Y180617D01*
X228807Y180573D01*
X228898Y180533D01*
X228991Y180497D01*
X229085Y180464D01*
X229181Y180435D01*
X229277Y180410D01*
X229374Y180389D01*
X229473Y180371D01*
X229571Y180358D01*
X229671Y180348D01*
X229770Y180342D01*
X229870Y180340D01*
X354330Y180340D02*
X354430Y180342D01*
X354529Y180348D01*
X354629Y180358D01*
X354727Y180371D01*
X354826Y180389D01*
X354923Y180410D01*
X355019Y180435D01*
X355115Y180464D01*
X355209Y180497D01*
X355302Y180533D01*
X355393Y180573D01*
X355483Y180617D01*
X355571Y180664D01*
X355657Y180714D01*
X355741Y180768D01*
X355823Y180825D01*
X355902Y180885D01*
X355980Y180949D01*
X356054Y181015D01*
X356126Y181084D01*
X356195Y181156D01*
X356261Y181230D01*
X356325Y181308D01*
X356385Y181387D01*
X356442Y181469D01*
X356496Y181553D01*
X356546Y181639D01*
X356593Y181727D01*
X356637Y181817D01*
X356677Y181908D01*
X356713Y182001D01*
X356746Y182095D01*
X356775Y182191D01*
X356800Y182287D01*
X356821Y182384D01*
X356839Y182483D01*
X356852Y182581D01*
X356862Y182681D01*
X356868Y182780D01*
X356870Y182880D01*
X356870Y223520D02*
X356868Y223620D01*
X356862Y223719D01*
X356852Y223819D01*
X356839Y223917D01*
X356821Y224016D01*
X356800Y224113D01*
X356775Y224209D01*
X356746Y224305D01*
X356713Y224399D01*
X356677Y224492D01*
X356637Y224583D01*
X356593Y224673D01*
X356546Y224761D01*
X356496Y224847D01*
X356442Y224931D01*
X356385Y225013D01*
X356325Y225092D01*
X356261Y225170D01*
X356195Y225244D01*
X356126Y225316D01*
X356054Y225385D01*
X355980Y225451D01*
X355902Y225515D01*
X355823Y225575D01*
X355741Y225632D01*
X355657Y225686D01*
X355571Y225736D01*
X355483Y225783D01*
X355393Y225827D01*
X355302Y225867D01*
X355209Y225903D01*
X355115Y225936D01*
X355019Y225965D01*
X354923Y225990D01*
X354826Y226011D01*
X354727Y226029D01*
X354629Y226042D01*
X354529Y226052D01*
X354430Y226058D01*
X354330Y226060D01*
X238760Y226060D02*
X229870Y226060D01*
X238760Y226060D02*
X240030Y224790D01*
X238760Y180340D02*
X229870Y180340D01*
X238760Y180340D02*
X240030Y181610D01*
X344170Y224790D02*
X345440Y226060D01*
X344170Y224790D02*
X240030Y224790D01*
X344170Y181610D02*
X345440Y180340D01*
X344170Y181610D02*
X240030Y181610D01*
X345440Y226060D02*
X354330Y226060D01*
X354330Y180340D02*
X345440Y180340D01*
X356870Y182880D02*
X356870Y196850D01*
X356870Y209550D02*
X356870Y223520D01*
X227330Y196850D02*
X227330Y182880D01*
X227330Y209550D02*
X227330Y223520D01*
D11*
X227965Y230759D02*
X227965Y242189D01*
X231140Y242189D01*
X231251Y242187D01*
X231361Y242181D01*
X231472Y242172D01*
X231582Y242158D01*
X231691Y242141D01*
X231800Y242120D01*
X231908Y242095D01*
X232015Y242066D01*
X232121Y242034D01*
X232226Y241998D01*
X232329Y241958D01*
X232431Y241915D01*
X232532Y241868D01*
X232631Y241817D01*
X232728Y241764D01*
X232822Y241707D01*
X232915Y241646D01*
X233006Y241583D01*
X233095Y241516D01*
X233181Y241446D01*
X233264Y241373D01*
X233346Y241298D01*
X233424Y241220D01*
X233499Y241138D01*
X233572Y241055D01*
X233642Y240969D01*
X233709Y240880D01*
X233772Y240789D01*
X233833Y240696D01*
X233890Y240601D01*
X233943Y240505D01*
X233994Y240406D01*
X234041Y240305D01*
X234084Y240203D01*
X234124Y240100D01*
X234160Y239995D01*
X234192Y239889D01*
X234221Y239782D01*
X234246Y239674D01*
X234267Y239565D01*
X234284Y239456D01*
X234298Y239346D01*
X234307Y239235D01*
X234313Y239125D01*
X234315Y239014D01*
X234313Y238903D01*
X234307Y238793D01*
X234298Y238682D01*
X234284Y238572D01*
X234267Y238463D01*
X234246Y238354D01*
X234221Y238246D01*
X234192Y238139D01*
X234160Y238033D01*
X234124Y237928D01*
X234084Y237825D01*
X234041Y237723D01*
X233994Y237622D01*
X233943Y237523D01*
X233890Y237426D01*
X233833Y237332D01*
X233772Y237239D01*
X233709Y237148D01*
X233642Y237059D01*
X233572Y236973D01*
X233499Y236890D01*
X233424Y236808D01*
X233346Y236730D01*
X233264Y236655D01*
X233181Y236582D01*
X233095Y236512D01*
X233006Y236445D01*
X232915Y236382D01*
X232822Y236321D01*
X232727Y236264D01*
X232631Y236211D01*
X232532Y236160D01*
X232431Y236113D01*
X232329Y236070D01*
X232226Y236030D01*
X232121Y235994D01*
X232015Y235962D01*
X231908Y235933D01*
X231800Y235908D01*
X231691Y235887D01*
X231582Y235870D01*
X231472Y235856D01*
X231361Y235847D01*
X231251Y235841D01*
X231140Y235839D01*
X227965Y235839D01*
X231775Y235839D02*
X234315Y230759D01*
X239312Y239649D02*
X242487Y242189D01*
X242487Y230759D01*
X239312Y230759D02*
X245662Y230759D01*
X393700Y228600D02*
X393700Y444500D01*
X749300Y444500D01*
X749300Y228600D01*
X393700Y228600D01*
D10*
X419862Y457962D02*
X419862Y474218D01*
X428893Y457962D01*
X428893Y474218D01*
X440530Y474218D02*
X435111Y457962D01*
X445949Y457962D02*
X440530Y474218D01*
X444594Y462026D02*
X436466Y462026D01*
X452306Y457962D02*
X452306Y474218D01*
X457724Y465187D01*
X463143Y474218D01*
X463143Y457962D01*
X470954Y457962D02*
X478179Y457962D01*
X470954Y457962D02*
X470954Y474218D01*
X478179Y474218D01*
X476373Y466993D02*
X470954Y466993D01*
X419862Y207518D02*
X425281Y191262D01*
X430699Y207518D01*
X440912Y207518D02*
X435493Y191262D01*
X446331Y191262D02*
X440912Y207518D01*
X444976Y195326D02*
X436848Y195326D01*
X452578Y191262D02*
X452578Y207518D01*
X452578Y191262D02*
X459803Y191262D01*
X466096Y195778D02*
X466096Y207518D01*
X466095Y195778D02*
X466097Y195645D01*
X466103Y195513D01*
X466113Y195381D01*
X466126Y195249D01*
X466144Y195117D01*
X466165Y194987D01*
X466190Y194856D01*
X466219Y194727D01*
X466252Y194599D01*
X466288Y194471D01*
X466328Y194345D01*
X466372Y194220D01*
X466420Y194096D01*
X466471Y193974D01*
X466526Y193853D01*
X466584Y193734D01*
X466646Y193616D01*
X466711Y193501D01*
X466780Y193387D01*
X466851Y193276D01*
X466927Y193167D01*
X467005Y193060D01*
X467086Y192955D01*
X467171Y192853D01*
X467258Y192753D01*
X467348Y192656D01*
X467441Y192561D01*
X467537Y192470D01*
X467635Y192381D01*
X467736Y192295D01*
X467840Y192212D01*
X467946Y192132D01*
X468054Y192056D01*
X468164Y191982D01*
X468277Y191912D01*
X468391Y191845D01*
X468508Y191782D01*
X468626Y191722D01*
X468746Y191665D01*
X468868Y191612D01*
X468991Y191563D01*
X469115Y191517D01*
X469241Y191475D01*
X469368Y191437D01*
X469496Y191402D01*
X469625Y191371D01*
X469754Y191344D01*
X469885Y191321D01*
X470016Y191301D01*
X470148Y191286D01*
X470280Y191274D01*
X470412Y191266D01*
X470545Y191262D01*
X470677Y191262D01*
X470810Y191266D01*
X470942Y191274D01*
X471074Y191286D01*
X471206Y191301D01*
X471337Y191321D01*
X471468Y191344D01*
X471597Y191371D01*
X471726Y191402D01*
X471854Y191437D01*
X471981Y191475D01*
X472107Y191517D01*
X472231Y191563D01*
X472354Y191612D01*
X472476Y191665D01*
X472596Y191722D01*
X472714Y191782D01*
X472831Y191845D01*
X472945Y191912D01*
X473058Y191982D01*
X473168Y192056D01*
X473276Y192132D01*
X473382Y192212D01*
X473486Y192295D01*
X473587Y192381D01*
X473685Y192470D01*
X473781Y192561D01*
X473874Y192656D01*
X473964Y192753D01*
X474051Y192853D01*
X474136Y192955D01*
X474217Y193060D01*
X474295Y193167D01*
X474371Y193276D01*
X474442Y193387D01*
X474511Y193501D01*
X474576Y193616D01*
X474638Y193734D01*
X474696Y193853D01*
X474751Y193974D01*
X474802Y194096D01*
X474850Y194220D01*
X474894Y194345D01*
X474934Y194471D01*
X474970Y194599D01*
X475003Y194727D01*
X475032Y194856D01*
X475057Y194987D01*
X475078Y195117D01*
X475096Y195249D01*
X475109Y195381D01*
X475119Y195513D01*
X475125Y195645D01*
X475127Y195778D01*
X475127Y207518D01*
X482799Y191262D02*
X490024Y191262D01*
X482799Y191262D02*
X482799Y207518D01*
X490024Y207518D01*
X488218Y200293D02*
X482799Y200293D01*
D12*
X521716Y331216D02*
X521716Y354584D01*
X521716Y344198D02*
X534698Y344198D01*
X534698Y354584D02*
X534698Y331216D01*
X541993Y331216D02*
X557571Y354584D01*
X541993Y354584D02*
X557571Y331216D01*
X564170Y351988D02*
X564170Y354584D01*
X577152Y354584D01*
X570661Y331216D01*
X585048Y349391D02*
X591539Y354584D01*
X591539Y331216D01*
X585048Y331216D02*
X598031Y331216D01*
X605927Y349391D02*
X612418Y354584D01*
X612418Y331216D01*
X605927Y331216D02*
X618909Y331216D01*
D11*
X263531Y443551D02*
X244490Y442953D01*
X288918Y444349D02*
X307959Y444947D01*
X288918Y444349D02*
X288924Y444054D01*
X288922Y443760D01*
X288914Y443465D01*
X288898Y443171D01*
X288875Y442877D01*
X288845Y442583D01*
X288808Y442291D01*
X288764Y441999D01*
X288713Y441709D01*
X288655Y441420D01*
X288590Y441132D01*
X288518Y440846D01*
X288440Y440562D01*
X288354Y440280D01*
X288261Y440000D01*
X288162Y439723D01*
X288056Y439447D01*
X287944Y439175D01*
X287825Y438905D01*
X287699Y438638D01*
X287567Y438375D01*
X287429Y438114D01*
X287285Y437857D01*
X287134Y437604D01*
X286977Y437354D01*
X286814Y437109D01*
X286646Y436867D01*
X286471Y436629D01*
X286291Y436396D01*
X286105Y436167D01*
X285914Y435942D01*
X285718Y435723D01*
X285516Y435508D01*
X285309Y435298D01*
X285097Y435093D01*
X284880Y434893D01*
X284658Y434699D01*
X284432Y434510D01*
X284201Y434326D01*
X283966Y434148D01*
X283727Y433976D01*
X283484Y433810D01*
X283236Y433649D01*
X282985Y433495D01*
X282730Y433347D01*
X282472Y433205D01*
X282210Y433069D01*
X281945Y432940D01*
X281677Y432817D01*
X281406Y432700D01*
X281133Y432590D01*
X280857Y432487D01*
X280578Y432391D01*
X280297Y432301D01*
X280014Y432218D01*
X279729Y432142D01*
X279443Y432073D01*
X279155Y432011D01*
X278865Y431955D01*
X278574Y431907D01*
X278282Y431866D01*
X277989Y431832D01*
X277696Y431805D01*
X277402Y431785D01*
X277107Y431772D01*
X276108Y431740D02*
X275813Y431734D01*
X275519Y431736D01*
X275224Y431744D01*
X274930Y431760D01*
X274636Y431783D01*
X274342Y431813D01*
X274050Y431850D01*
X273758Y431894D01*
X273468Y431945D01*
X273179Y432003D01*
X272891Y432068D01*
X272605Y432140D01*
X272321Y432218D01*
X272039Y432304D01*
X271759Y432397D01*
X271482Y432496D01*
X271206Y432602D01*
X270934Y432714D01*
X270664Y432833D01*
X270397Y432959D01*
X270134Y433091D01*
X269873Y433229D01*
X269616Y433373D01*
X269363Y433524D01*
X269113Y433681D01*
X268868Y433844D01*
X268626Y434012D01*
X268388Y434187D01*
X268155Y434367D01*
X267926Y434553D01*
X267701Y434744D01*
X267482Y434940D01*
X267267Y435142D01*
X267057Y435349D01*
X266852Y435561D01*
X266652Y435778D01*
X266458Y436000D01*
X266269Y436226D01*
X266085Y436457D01*
X265907Y436692D01*
X265735Y436931D01*
X265569Y437174D01*
X265408Y437422D01*
X265254Y437673D01*
X265106Y437928D01*
X264964Y438186D01*
X264828Y438448D01*
X264699Y438713D01*
X264576Y438981D01*
X264459Y439252D01*
X264349Y439525D01*
X264246Y439801D01*
X264150Y440080D01*
X264060Y440361D01*
X263977Y440644D01*
X263901Y440929D01*
X263832Y441215D01*
X263770Y441503D01*
X263714Y441793D01*
X263666Y442084D01*
X263625Y442376D01*
X263591Y442669D01*
X263564Y442962D01*
X263544Y443256D01*
X263531Y443551D01*
X307959Y444947D02*
X308142Y439100D01*
X244587Y439854D02*
X244490Y442953D01*
D13*
X339091Y350627D02*
X344782Y350806D01*
X339091Y350627D02*
X339000Y350622D01*
X338908Y350613D01*
X338817Y350601D01*
X338727Y350585D01*
X338638Y350565D01*
X338549Y350541D01*
X338461Y350514D01*
X338375Y350483D01*
X338290Y350448D01*
X338207Y350410D01*
X338125Y350368D01*
X338045Y350323D01*
X337967Y350275D01*
X337891Y350223D01*
X337818Y350168D01*
X337746Y350111D01*
X337678Y350050D01*
X337611Y349987D01*
X337548Y349920D01*
X337487Y349852D01*
X337430Y349780D01*
X337375Y349707D01*
X337323Y349631D01*
X337275Y349553D01*
X337230Y349473D01*
X337188Y349391D01*
X337150Y349308D01*
X337115Y349223D01*
X337084Y349137D01*
X337057Y349049D01*
X337033Y348960D01*
X337013Y348871D01*
X336997Y348781D01*
X336985Y348690D01*
X336976Y348598D01*
X336971Y348507D01*
X336970Y348415D01*
X336973Y348323D01*
X336980Y348232D01*
X336990Y348141D01*
X337005Y348050D01*
X337023Y347960D01*
X337045Y347871D01*
X337070Y347783D01*
X337099Y347696D01*
X337132Y347611D01*
X337169Y347526D01*
X337209Y347444D01*
X337252Y347363D01*
X337299Y347284D01*
X337349Y347207D01*
X337402Y347132D01*
X337458Y347060D01*
X337517Y346990D01*
X337579Y346922D01*
X337644Y346857D01*
X337712Y346795D01*
X337782Y346736D01*
X337854Y346680D01*
X337929Y346627D01*
X338006Y346577D01*
X338085Y346530D01*
X338166Y346487D01*
X338248Y346447D01*
X338333Y346410D01*
X338418Y346377D01*
X338505Y346348D01*
X338593Y346323D01*
X338682Y346301D01*
X338772Y346283D01*
X338863Y346268D01*
X338954Y346258D01*
X339045Y346251D01*
X339137Y346248D01*
X339229Y346249D01*
X339229Y346250D02*
X344919Y346429D01*
X343291Y342479D02*
X345110Y340345D01*
X337231Y340098D01*
X337163Y342286D02*
X337300Y337909D01*
D10*
X503218Y281365D02*
X503160Y281283D01*
X503105Y281200D01*
X503053Y281115D01*
X503005Y281028D01*
X502960Y280938D01*
X502919Y280848D01*
X502881Y280755D01*
X502848Y280662D01*
X502817Y280567D01*
X502791Y280470D01*
X502768Y280373D01*
X502749Y280275D01*
X502734Y280177D01*
X502723Y280078D01*
X502716Y279978D01*
X502712Y279878D01*
X502713Y279779D01*
X502717Y279679D01*
X502726Y279580D01*
X502738Y279481D01*
X502754Y279382D01*
X502774Y279285D01*
X502798Y279188D01*
X502826Y279092D01*
X502857Y278997D01*
X502892Y278904D01*
X502931Y278812D01*
X502973Y278722D01*
X503019Y278633D01*
X503068Y278546D01*
X503121Y278461D01*
X503176Y278379D01*
X503236Y278299D01*
X503298Y278221D01*
X503363Y278145D01*
X503431Y278072D01*
X503502Y278002D01*
X503576Y277935D01*
X503652Y277870D01*
X503730Y277809D01*
X536272Y253464D02*
X536353Y253406D01*
X536437Y253351D01*
X536522Y253299D01*
X536609Y253251D01*
X536698Y253206D01*
X536789Y253165D01*
X536882Y253128D01*
X536975Y253094D01*
X537070Y253063D01*
X537167Y253037D01*
X537264Y253014D01*
X537362Y252995D01*
X537460Y252980D01*
X537559Y252969D01*
X537659Y252962D01*
X537759Y252958D01*
X537858Y252959D01*
X537958Y252963D01*
X538057Y252972D01*
X538156Y252984D01*
X538255Y253000D01*
X538352Y253020D01*
X538449Y253044D01*
X538545Y253072D01*
X538640Y253103D01*
X538733Y253138D01*
X538825Y253177D01*
X538915Y253219D01*
X539004Y253265D01*
X539091Y253314D01*
X539176Y253367D01*
X539258Y253422D01*
X539338Y253482D01*
X539416Y253544D01*
X539492Y253609D01*
X539565Y253677D01*
X539635Y253748D01*
X539702Y253822D01*
X539767Y253898D01*
X539828Y253976D01*
X614382Y353635D02*
X614440Y353717D01*
X614495Y353800D01*
X614547Y353885D01*
X614595Y353972D01*
X614640Y354062D01*
X614681Y354152D01*
X614719Y354245D01*
X614752Y354338D01*
X614783Y354433D01*
X614809Y354530D01*
X614832Y354627D01*
X614851Y354725D01*
X614866Y354823D01*
X614877Y354922D01*
X614884Y355022D01*
X614888Y355122D01*
X614887Y355221D01*
X614883Y355321D01*
X614874Y355420D01*
X614862Y355519D01*
X614846Y355618D01*
X614826Y355715D01*
X614802Y355812D01*
X614774Y355908D01*
X614743Y356003D01*
X614708Y356096D01*
X614669Y356188D01*
X614627Y356278D01*
X614581Y356367D01*
X614532Y356454D01*
X614479Y356539D01*
X614424Y356621D01*
X614364Y356701D01*
X614302Y356779D01*
X614237Y356855D01*
X614169Y356928D01*
X614098Y356998D01*
X614024Y357065D01*
X613948Y357130D01*
X613870Y357191D01*
X581328Y381536D02*
X581247Y381594D01*
X581163Y381649D01*
X581078Y381701D01*
X580991Y381749D01*
X580902Y381794D01*
X580811Y381835D01*
X580718Y381872D01*
X580625Y381906D01*
X580530Y381937D01*
X580433Y381963D01*
X580336Y381986D01*
X580238Y382005D01*
X580140Y382020D01*
X580041Y382031D01*
X579941Y382038D01*
X579841Y382042D01*
X579742Y382041D01*
X579642Y382037D01*
X579543Y382028D01*
X579444Y382016D01*
X579345Y382000D01*
X579248Y381980D01*
X579151Y381956D01*
X579055Y381928D01*
X578960Y381897D01*
X578867Y381862D01*
X578775Y381823D01*
X578685Y381781D01*
X578596Y381735D01*
X578509Y381686D01*
X578424Y381633D01*
X578342Y381578D01*
X578262Y381518D01*
X578184Y381456D01*
X578108Y381391D01*
X578035Y381323D01*
X577965Y381252D01*
X577898Y381178D01*
X577833Y381102D01*
X577772Y381024D01*
X508543Y288483D02*
X503218Y281364D01*
X508543Y288483D02*
X510321Y288739D01*
X545153Y261095D02*
X539827Y253977D01*
X545153Y261095D02*
X544897Y262873D01*
X572703Y372127D02*
X572447Y373905D01*
X572703Y372127D02*
X510321Y288739D01*
X607279Y346261D02*
X609057Y346517D01*
X607279Y346261D02*
X544897Y262873D01*
X572447Y373905D02*
X577773Y381023D01*
X614382Y353636D02*
X609057Y346517D01*
X613870Y357191D02*
X602683Y365560D01*
X592514Y373167D02*
X581328Y381536D01*
X525086Y261833D02*
X536272Y253464D01*
X514917Y269440D02*
X503730Y277809D01*
D11*
X498314Y282654D02*
X489162Y289500D01*
X491064Y292043D01*
X491132Y292130D01*
X491203Y292216D01*
X491276Y292298D01*
X491353Y292378D01*
X491433Y292455D01*
X491515Y292530D01*
X491599Y292601D01*
X491686Y292670D01*
X491776Y292735D01*
X491867Y292798D01*
X491961Y292857D01*
X492057Y292913D01*
X492155Y292965D01*
X492254Y293014D01*
X492355Y293059D01*
X492458Y293101D01*
X492562Y293139D01*
X492667Y293174D01*
X492774Y293205D01*
X492881Y293232D01*
X492989Y293256D01*
X493098Y293275D01*
X493208Y293291D01*
X493318Y293303D01*
X493429Y293311D01*
X493540Y293315D01*
X493650Y293316D01*
X493761Y293312D01*
X493872Y293305D01*
X493982Y293294D01*
X494092Y293279D01*
X494201Y293260D01*
X494309Y293237D01*
X494417Y293211D01*
X494524Y293180D01*
X494629Y293147D01*
X494733Y293109D01*
X494836Y293068D01*
X494938Y293023D01*
X495038Y292975D01*
X495136Y292923D01*
X495232Y292868D01*
X495326Y292810D01*
X495418Y292748D01*
X495508Y292683D01*
X495595Y292615D01*
X495681Y292544D01*
X495763Y292471D01*
X495843Y292394D01*
X495920Y292314D01*
X495995Y292232D01*
X496066Y292148D01*
X496135Y292061D01*
X496200Y291971D01*
X496263Y291880D01*
X496322Y291786D01*
X496378Y291690D01*
X496430Y291592D01*
X496479Y291493D01*
X496524Y291392D01*
X496566Y291289D01*
X496604Y291185D01*
X496639Y291080D01*
X496670Y290973D01*
X496697Y290866D01*
X496721Y290758D01*
X496740Y290649D01*
X496756Y290539D01*
X496768Y290429D01*
X496776Y290318D01*
X496780Y290207D01*
X496781Y290097D01*
X496777Y289986D01*
X496770Y289875D01*
X496759Y289765D01*
X496744Y289655D01*
X496725Y289546D01*
X496702Y289438D01*
X496676Y289330D01*
X496645Y289223D01*
X496612Y289118D01*
X496574Y289014D01*
X496533Y288911D01*
X496488Y288809D01*
X496440Y288709D01*
X496388Y288611D01*
X496333Y288515D01*
X496275Y288421D01*
X496213Y288329D01*
X496148Y288239D01*
X494247Y285697D01*
X496529Y288747D02*
X502118Y287738D01*
X502051Y301960D02*
X501964Y302022D01*
X501875Y302081D01*
X501784Y302137D01*
X501691Y302189D01*
X501596Y302238D01*
X501499Y302283D01*
X501400Y302325D01*
X501300Y302362D01*
X501199Y302397D01*
X501097Y302427D01*
X500993Y302453D01*
X500889Y302476D01*
X500783Y302494D01*
X500677Y302509D01*
X500571Y302520D01*
X500464Y302526D01*
X500358Y302529D01*
X500251Y302528D01*
X500144Y302522D01*
X500037Y302513D01*
X499931Y302500D01*
X499826Y302483D01*
X499721Y302461D01*
X499617Y302436D01*
X499514Y302407D01*
X499413Y302375D01*
X499312Y302338D01*
X499213Y302298D01*
X499116Y302254D01*
X499020Y302206D01*
X498926Y302155D01*
X498834Y302101D01*
X498744Y302043D01*
X498657Y301982D01*
X498572Y301917D01*
X498489Y301849D01*
X498409Y301779D01*
X498331Y301705D01*
X498257Y301629D01*
X498185Y301549D01*
X498116Y301467D01*
X498051Y301383D01*
X498052Y301383D02*
X497982Y301287D01*
X497916Y301189D01*
X497853Y301089D01*
X497793Y300987D01*
X497737Y300883D01*
X497684Y300777D01*
X497634Y300669D01*
X497588Y300560D01*
X497545Y300450D01*
X497506Y300338D01*
X497471Y300225D01*
X497439Y300111D01*
X497411Y299996D01*
X497387Y299880D01*
X497366Y299764D01*
X497349Y299647D01*
X497336Y299529D01*
X497327Y299411D01*
X497322Y299293D01*
X497320Y299174D01*
X497322Y299056D01*
X497328Y298938D01*
X497338Y298820D01*
X497352Y298702D01*
X497369Y298585D01*
X497390Y298469D01*
X497415Y298353D01*
X497444Y298238D01*
X497476Y298124D01*
X497512Y298011D01*
X497552Y297900D01*
X497595Y297790D01*
X497642Y297681D01*
X497692Y297574D01*
X497746Y297468D01*
X497803Y297364D01*
X497863Y297263D01*
X497927Y297163D01*
X497993Y297065D01*
X503259Y299866D02*
X503245Y299973D01*
X503226Y300079D01*
X503204Y300185D01*
X503178Y300290D01*
X503149Y300394D01*
X503115Y300496D01*
X503079Y300598D01*
X503038Y300698D01*
X502994Y300797D01*
X502947Y300894D01*
X502896Y300990D01*
X502842Y301083D01*
X502785Y301175D01*
X502725Y301264D01*
X502661Y301352D01*
X502594Y301437D01*
X502525Y301519D01*
X502452Y301599D01*
X502377Y301677D01*
X502299Y301752D01*
X502219Y301824D01*
X502136Y301893D01*
X502050Y301959D01*
X503260Y299865D02*
X505111Y291740D01*
X508915Y296824D01*
D10*
X535940Y267970D02*
X535942Y267870D01*
X535948Y267771D01*
X535958Y267671D01*
X535971Y267573D01*
X535989Y267474D01*
X536010Y267377D01*
X536035Y267281D01*
X536064Y267185D01*
X536097Y267091D01*
X536133Y266998D01*
X536173Y266907D01*
X536217Y266817D01*
X536264Y266729D01*
X536314Y266643D01*
X536368Y266559D01*
X536425Y266477D01*
X536485Y266398D01*
X536549Y266320D01*
X536615Y266246D01*
X536684Y266174D01*
X536756Y266105D01*
X536830Y266039D01*
X536908Y265975D01*
X536987Y265915D01*
X537069Y265858D01*
X537153Y265804D01*
X537239Y265754D01*
X537327Y265707D01*
X537417Y265663D01*
X537508Y265623D01*
X537601Y265587D01*
X537695Y265554D01*
X537791Y265525D01*
X537887Y265500D01*
X537984Y265479D01*
X538083Y265461D01*
X538181Y265448D01*
X538281Y265438D01*
X538380Y265432D01*
X538480Y265430D01*
X579120Y265430D02*
X579220Y265432D01*
X579319Y265438D01*
X579419Y265448D01*
X579517Y265461D01*
X579616Y265479D01*
X579713Y265500D01*
X579809Y265525D01*
X579905Y265554D01*
X579999Y265587D01*
X580092Y265623D01*
X580183Y265663D01*
X580273Y265707D01*
X580361Y265754D01*
X580447Y265804D01*
X580531Y265858D01*
X580613Y265915D01*
X580692Y265975D01*
X580770Y266039D01*
X580844Y266105D01*
X580916Y266174D01*
X580985Y266246D01*
X581051Y266320D01*
X581115Y266398D01*
X581175Y266477D01*
X581232Y266559D01*
X581286Y266643D01*
X581336Y266729D01*
X581383Y266817D01*
X581427Y266907D01*
X581467Y266998D01*
X581503Y267091D01*
X581536Y267185D01*
X581565Y267281D01*
X581590Y267377D01*
X581611Y267474D01*
X581629Y267573D01*
X581642Y267671D01*
X581652Y267771D01*
X581658Y267870D01*
X581660Y267970D01*
X581660Y392430D02*
X581658Y392530D01*
X581652Y392629D01*
X581642Y392729D01*
X581629Y392827D01*
X581611Y392926D01*
X581590Y393023D01*
X581565Y393119D01*
X581536Y393215D01*
X581503Y393309D01*
X581467Y393402D01*
X581427Y393493D01*
X581383Y393583D01*
X581336Y393671D01*
X581286Y393757D01*
X581232Y393841D01*
X581175Y393923D01*
X581115Y394002D01*
X581051Y394080D01*
X580985Y394154D01*
X580916Y394226D01*
X580844Y394295D01*
X580770Y394361D01*
X580692Y394425D01*
X580613Y394485D01*
X580531Y394542D01*
X580447Y394596D01*
X580361Y394646D01*
X580273Y394693D01*
X580183Y394737D01*
X580092Y394777D01*
X579999Y394813D01*
X579905Y394846D01*
X579809Y394875D01*
X579713Y394900D01*
X579616Y394921D01*
X579517Y394939D01*
X579419Y394952D01*
X579319Y394962D01*
X579220Y394968D01*
X579120Y394970D01*
X538480Y394970D02*
X538380Y394968D01*
X538281Y394962D01*
X538181Y394952D01*
X538083Y394939D01*
X537984Y394921D01*
X537887Y394900D01*
X537791Y394875D01*
X537695Y394846D01*
X537601Y394813D01*
X537508Y394777D01*
X537417Y394737D01*
X537327Y394693D01*
X537239Y394646D01*
X537153Y394596D01*
X537069Y394542D01*
X536987Y394485D01*
X536908Y394425D01*
X536830Y394361D01*
X536756Y394295D01*
X536684Y394226D01*
X536615Y394154D01*
X536549Y394080D01*
X536485Y394002D01*
X536425Y393923D01*
X536368Y393841D01*
X536314Y393757D01*
X536264Y393671D01*
X536217Y393583D01*
X536173Y393493D01*
X536133Y393402D01*
X536097Y393309D01*
X536064Y393215D01*
X536035Y393119D01*
X536010Y393023D01*
X535989Y392926D01*
X535971Y392827D01*
X535958Y392729D01*
X535948Y392629D01*
X535942Y392530D01*
X535940Y392430D01*
X535940Y276860D02*
X535940Y267970D01*
X535940Y276860D02*
X537210Y278130D01*
X581660Y276860D02*
X581660Y267970D01*
X581660Y276860D02*
X580390Y278130D01*
X537210Y382270D02*
X535940Y383540D01*
X537210Y382270D02*
X537210Y278130D01*
X580390Y382270D02*
X581660Y383540D01*
X580390Y382270D02*
X580390Y278130D01*
X535940Y383540D02*
X535940Y392430D01*
X581660Y392430D02*
X581660Y383540D01*
X579120Y394970D02*
X565150Y394970D01*
X552450Y394970D02*
X538480Y394970D01*
X565150Y265430D02*
X579120Y265430D01*
X552450Y265430D02*
X538480Y265430D01*
D11*
X531241Y266065D02*
X519811Y266065D01*
X519811Y269240D01*
X519813Y269351D01*
X519819Y269461D01*
X519828Y269572D01*
X519842Y269682D01*
X519859Y269791D01*
X519880Y269900D01*
X519905Y270008D01*
X519934Y270115D01*
X519966Y270221D01*
X520002Y270326D01*
X520042Y270429D01*
X520085Y270531D01*
X520132Y270632D01*
X520183Y270731D01*
X520236Y270828D01*
X520293Y270922D01*
X520354Y271015D01*
X520417Y271106D01*
X520484Y271195D01*
X520554Y271281D01*
X520627Y271364D01*
X520702Y271446D01*
X520780Y271524D01*
X520862Y271599D01*
X520945Y271672D01*
X521031Y271742D01*
X521120Y271809D01*
X521211Y271872D01*
X521304Y271933D01*
X521399Y271990D01*
X521495Y272043D01*
X521594Y272094D01*
X521695Y272141D01*
X521797Y272184D01*
X521900Y272224D01*
X522005Y272260D01*
X522111Y272292D01*
X522218Y272321D01*
X522326Y272346D01*
X522435Y272367D01*
X522544Y272384D01*
X522654Y272398D01*
X522765Y272407D01*
X522875Y272413D01*
X522986Y272415D01*
X523097Y272413D01*
X523207Y272407D01*
X523318Y272398D01*
X523428Y272384D01*
X523537Y272367D01*
X523646Y272346D01*
X523754Y272321D01*
X523861Y272292D01*
X523967Y272260D01*
X524072Y272224D01*
X524175Y272184D01*
X524277Y272141D01*
X524378Y272094D01*
X524477Y272043D01*
X524574Y271990D01*
X524668Y271933D01*
X524761Y271872D01*
X524852Y271809D01*
X524941Y271742D01*
X525027Y271672D01*
X525110Y271599D01*
X525192Y271524D01*
X525270Y271446D01*
X525345Y271364D01*
X525418Y271281D01*
X525488Y271195D01*
X525555Y271106D01*
X525618Y271015D01*
X525679Y270922D01*
X525736Y270828D01*
X525789Y270731D01*
X525840Y270632D01*
X525887Y270531D01*
X525930Y270429D01*
X525970Y270326D01*
X526006Y270221D01*
X526038Y270115D01*
X526067Y270008D01*
X526092Y269900D01*
X526113Y269791D01*
X526130Y269682D01*
X526144Y269572D01*
X526153Y269461D01*
X526159Y269351D01*
X526161Y269240D01*
X526161Y266065D01*
X526161Y269875D02*
X531241Y272415D01*
X531241Y277412D02*
X531241Y280587D01*
X531239Y280698D01*
X531233Y280808D01*
X531224Y280919D01*
X531210Y281029D01*
X531193Y281138D01*
X531172Y281247D01*
X531147Y281355D01*
X531118Y281462D01*
X531086Y281568D01*
X531050Y281673D01*
X531010Y281776D01*
X530967Y281878D01*
X530920Y281979D01*
X530869Y282078D01*
X530816Y282175D01*
X530759Y282269D01*
X530698Y282362D01*
X530635Y282453D01*
X530568Y282542D01*
X530498Y282628D01*
X530425Y282711D01*
X530350Y282793D01*
X530272Y282871D01*
X530190Y282946D01*
X530107Y283019D01*
X530021Y283089D01*
X529932Y283156D01*
X529841Y283219D01*
X529748Y283280D01*
X529654Y283337D01*
X529557Y283390D01*
X529458Y283441D01*
X529357Y283488D01*
X529255Y283531D01*
X529152Y283571D01*
X529047Y283607D01*
X528941Y283639D01*
X528834Y283668D01*
X528726Y283693D01*
X528617Y283714D01*
X528508Y283731D01*
X528398Y283745D01*
X528287Y283754D01*
X528177Y283760D01*
X528066Y283762D01*
X527955Y283760D01*
X527845Y283754D01*
X527734Y283745D01*
X527624Y283731D01*
X527515Y283714D01*
X527406Y283693D01*
X527298Y283668D01*
X527191Y283639D01*
X527085Y283607D01*
X526980Y283571D01*
X526877Y283531D01*
X526775Y283488D01*
X526674Y283441D01*
X526575Y283390D01*
X526479Y283337D01*
X526384Y283280D01*
X526291Y283219D01*
X526200Y283156D01*
X526111Y283089D01*
X526025Y283019D01*
X525942Y282946D01*
X525860Y282871D01*
X525782Y282793D01*
X525707Y282711D01*
X525634Y282628D01*
X525564Y282542D01*
X525497Y282453D01*
X525434Y282362D01*
X525373Y282269D01*
X525316Y282175D01*
X525263Y282078D01*
X525212Y281979D01*
X525165Y281878D01*
X525122Y281776D01*
X525082Y281673D01*
X525046Y281568D01*
X525014Y281462D01*
X524985Y281355D01*
X524960Y281247D01*
X524939Y281138D01*
X524922Y281029D01*
X524908Y280919D01*
X524899Y280808D01*
X524893Y280698D01*
X524891Y280587D01*
X519811Y281222D02*
X519811Y277412D01*
X519811Y281222D02*
X519813Y281322D01*
X519819Y281421D01*
X519829Y281521D01*
X519842Y281619D01*
X519860Y281718D01*
X519881Y281815D01*
X519906Y281911D01*
X519935Y282007D01*
X519968Y282101D01*
X520004Y282194D01*
X520044Y282285D01*
X520088Y282375D01*
X520135Y282463D01*
X520185Y282549D01*
X520239Y282633D01*
X520296Y282715D01*
X520356Y282794D01*
X520420Y282872D01*
X520486Y282946D01*
X520555Y283018D01*
X520627Y283087D01*
X520701Y283153D01*
X520779Y283217D01*
X520858Y283277D01*
X520940Y283334D01*
X521024Y283388D01*
X521110Y283438D01*
X521198Y283485D01*
X521288Y283529D01*
X521379Y283569D01*
X521472Y283605D01*
X521566Y283638D01*
X521662Y283667D01*
X521758Y283692D01*
X521855Y283713D01*
X521954Y283731D01*
X522052Y283744D01*
X522152Y283754D01*
X522251Y283760D01*
X522351Y283762D01*
X522451Y283760D01*
X522550Y283754D01*
X522650Y283744D01*
X522748Y283731D01*
X522847Y283713D01*
X522944Y283692D01*
X523040Y283667D01*
X523136Y283638D01*
X523230Y283605D01*
X523323Y283569D01*
X523414Y283529D01*
X523504Y283485D01*
X523592Y283438D01*
X523678Y283388D01*
X523762Y283334D01*
X523844Y283277D01*
X523923Y283217D01*
X524001Y283153D01*
X524075Y283087D01*
X524147Y283018D01*
X524216Y282946D01*
X524282Y282872D01*
X524346Y282794D01*
X524406Y282715D01*
X524463Y282633D01*
X524517Y282549D01*
X524567Y282463D01*
X524614Y282375D01*
X524658Y282285D01*
X524698Y282194D01*
X524734Y282101D01*
X524767Y282007D01*
X524796Y281911D01*
X524821Y281815D01*
X524842Y281718D01*
X524860Y281619D01*
X524873Y281521D01*
X524883Y281421D01*
X524889Y281322D01*
X524891Y281222D01*
X524891Y278682D01*
D10*
X509270Y213360D02*
X509170Y213358D01*
X509071Y213352D01*
X508971Y213342D01*
X508873Y213329D01*
X508774Y213311D01*
X508677Y213290D01*
X508581Y213265D01*
X508485Y213236D01*
X508391Y213203D01*
X508298Y213167D01*
X508207Y213127D01*
X508117Y213083D01*
X508029Y213036D01*
X507943Y212986D01*
X507859Y212932D01*
X507777Y212875D01*
X507698Y212815D01*
X507620Y212751D01*
X507546Y212685D01*
X507474Y212616D01*
X507405Y212544D01*
X507339Y212470D01*
X507275Y212392D01*
X507215Y212313D01*
X507158Y212231D01*
X507104Y212147D01*
X507054Y212061D01*
X507007Y211973D01*
X506963Y211883D01*
X506923Y211792D01*
X506887Y211699D01*
X506854Y211605D01*
X506825Y211509D01*
X506800Y211413D01*
X506779Y211316D01*
X506761Y211217D01*
X506748Y211119D01*
X506738Y211019D01*
X506732Y210920D01*
X506730Y210820D01*
X506730Y170180D02*
X506732Y170080D01*
X506738Y169981D01*
X506748Y169881D01*
X506761Y169783D01*
X506779Y169684D01*
X506800Y169587D01*
X506825Y169491D01*
X506854Y169395D01*
X506887Y169301D01*
X506923Y169208D01*
X506963Y169117D01*
X507007Y169027D01*
X507054Y168939D01*
X507104Y168853D01*
X507158Y168769D01*
X507215Y168687D01*
X507275Y168608D01*
X507339Y168530D01*
X507405Y168456D01*
X507474Y168384D01*
X507546Y168315D01*
X507620Y168249D01*
X507698Y168185D01*
X507777Y168125D01*
X507859Y168068D01*
X507943Y168014D01*
X508029Y167964D01*
X508117Y167917D01*
X508207Y167873D01*
X508298Y167833D01*
X508391Y167797D01*
X508485Y167764D01*
X508581Y167735D01*
X508677Y167710D01*
X508774Y167689D01*
X508873Y167671D01*
X508971Y167658D01*
X509071Y167648D01*
X509170Y167642D01*
X509270Y167640D01*
X633730Y167640D02*
X633830Y167642D01*
X633929Y167648D01*
X634029Y167658D01*
X634127Y167671D01*
X634226Y167689D01*
X634323Y167710D01*
X634419Y167735D01*
X634515Y167764D01*
X634609Y167797D01*
X634702Y167833D01*
X634793Y167873D01*
X634883Y167917D01*
X634971Y167964D01*
X635057Y168014D01*
X635141Y168068D01*
X635223Y168125D01*
X635302Y168185D01*
X635380Y168249D01*
X635454Y168315D01*
X635526Y168384D01*
X635595Y168456D01*
X635661Y168530D01*
X635725Y168608D01*
X635785Y168687D01*
X635842Y168769D01*
X635896Y168853D01*
X635946Y168939D01*
X635993Y169027D01*
X636037Y169117D01*
X636077Y169208D01*
X636113Y169301D01*
X636146Y169395D01*
X636175Y169491D01*
X636200Y169587D01*
X636221Y169684D01*
X636239Y169783D01*
X636252Y169881D01*
X636262Y169981D01*
X636268Y170080D01*
X636270Y170180D01*
X636270Y210820D02*
X636268Y210920D01*
X636262Y211019D01*
X636252Y211119D01*
X636239Y211217D01*
X636221Y211316D01*
X636200Y211413D01*
X636175Y211509D01*
X636146Y211605D01*
X636113Y211699D01*
X636077Y211792D01*
X636037Y211883D01*
X635993Y211973D01*
X635946Y212061D01*
X635896Y212147D01*
X635842Y212231D01*
X635785Y212313D01*
X635725Y212392D01*
X635661Y212470D01*
X635595Y212544D01*
X635526Y212616D01*
X635454Y212685D01*
X635380Y212751D01*
X635302Y212815D01*
X635223Y212875D01*
X635141Y212932D01*
X635057Y212986D01*
X634971Y213036D01*
X634883Y213083D01*
X634793Y213127D01*
X634702Y213167D01*
X634609Y213203D01*
X634515Y213236D01*
X634419Y213265D01*
X634323Y213290D01*
X634226Y213311D01*
X634127Y213329D01*
X634029Y213342D01*
X633929Y213352D01*
X633830Y213358D01*
X633730Y213360D01*
X518160Y213360D02*
X509270Y213360D01*
X518160Y213360D02*
X519430Y212090D01*
X518160Y167640D02*
X509270Y167640D01*
X518160Y167640D02*
X519430Y168910D01*
X623570Y212090D02*
X624840Y213360D01*
X623570Y212090D02*
X519430Y212090D01*
X623570Y168910D02*
X624840Y167640D01*
X623570Y168910D02*
X519430Y168910D01*
X624840Y213360D02*
X633730Y213360D01*
X633730Y167640D02*
X624840Y167640D01*
X636270Y170180D02*
X636270Y184150D01*
X636270Y196850D02*
X636270Y210820D01*
X506730Y184150D02*
X506730Y170180D01*
X506730Y196850D02*
X506730Y210820D01*
D11*
X507365Y218059D02*
X507365Y229489D01*
X510540Y229489D01*
X510651Y229487D01*
X510761Y229481D01*
X510872Y229472D01*
X510982Y229458D01*
X511091Y229441D01*
X511200Y229420D01*
X511308Y229395D01*
X511415Y229366D01*
X511521Y229334D01*
X511626Y229298D01*
X511729Y229258D01*
X511831Y229215D01*
X511932Y229168D01*
X512031Y229117D01*
X512128Y229064D01*
X512222Y229007D01*
X512315Y228946D01*
X512406Y228883D01*
X512495Y228816D01*
X512581Y228746D01*
X512664Y228673D01*
X512746Y228598D01*
X512824Y228520D01*
X512899Y228438D01*
X512972Y228355D01*
X513042Y228269D01*
X513109Y228180D01*
X513172Y228089D01*
X513233Y227996D01*
X513290Y227901D01*
X513343Y227805D01*
X513394Y227706D01*
X513441Y227605D01*
X513484Y227503D01*
X513524Y227400D01*
X513560Y227295D01*
X513592Y227189D01*
X513621Y227082D01*
X513646Y226974D01*
X513667Y226865D01*
X513684Y226756D01*
X513698Y226646D01*
X513707Y226535D01*
X513713Y226425D01*
X513715Y226314D01*
X513713Y226203D01*
X513707Y226093D01*
X513698Y225982D01*
X513684Y225872D01*
X513667Y225763D01*
X513646Y225654D01*
X513621Y225546D01*
X513592Y225439D01*
X513560Y225333D01*
X513524Y225228D01*
X513484Y225125D01*
X513441Y225023D01*
X513394Y224922D01*
X513343Y224823D01*
X513290Y224726D01*
X513233Y224632D01*
X513172Y224539D01*
X513109Y224448D01*
X513042Y224359D01*
X512972Y224273D01*
X512899Y224190D01*
X512824Y224108D01*
X512746Y224030D01*
X512664Y223955D01*
X512581Y223882D01*
X512495Y223812D01*
X512406Y223745D01*
X512315Y223682D01*
X512222Y223621D01*
X512128Y223564D01*
X512031Y223511D01*
X511932Y223460D01*
X511831Y223413D01*
X511729Y223370D01*
X511626Y223330D01*
X511521Y223294D01*
X511415Y223262D01*
X511308Y223233D01*
X511200Y223208D01*
X511091Y223187D01*
X510982Y223170D01*
X510872Y223156D01*
X510761Y223147D01*
X510651Y223141D01*
X510540Y223139D01*
X507365Y223139D01*
X511175Y223139D02*
X513715Y218059D01*
X518712Y220599D02*
X521252Y229489D01*
X518712Y220599D02*
X525062Y220599D01*
X523157Y223139D02*
X523157Y218059D01*
D10*
X509270Y208280D02*
X509268Y208180D01*
X509262Y208081D01*
X509252Y207981D01*
X509239Y207883D01*
X509221Y207784D01*
X509200Y207687D01*
X509175Y207591D01*
X509146Y207495D01*
X509113Y207401D01*
X509077Y207308D01*
X509037Y207217D01*
X508993Y207127D01*
X508946Y207039D01*
X508896Y206953D01*
X508842Y206869D01*
X508785Y206787D01*
X508725Y206708D01*
X508661Y206630D01*
X508595Y206556D01*
X508526Y206484D01*
X508454Y206415D01*
X508380Y206349D01*
X508302Y206285D01*
X508223Y206225D01*
X508141Y206168D01*
X508057Y206114D01*
X507971Y206064D01*
X507883Y206017D01*
X507793Y205973D01*
X507702Y205933D01*
X507609Y205897D01*
X507515Y205864D01*
X507419Y205835D01*
X507323Y205810D01*
X507226Y205789D01*
X507127Y205771D01*
X507029Y205758D01*
X506929Y205748D01*
X506830Y205742D01*
X506730Y205740D01*
X509270Y248920D02*
X509268Y249020D01*
X509262Y249119D01*
X509252Y249219D01*
X509239Y249317D01*
X509221Y249416D01*
X509200Y249513D01*
X509175Y249609D01*
X509146Y249705D01*
X509113Y249799D01*
X509077Y249892D01*
X509037Y249983D01*
X508993Y250073D01*
X508946Y250161D01*
X508896Y250247D01*
X508842Y250331D01*
X508785Y250413D01*
X508725Y250492D01*
X508661Y250570D01*
X508595Y250644D01*
X508526Y250716D01*
X508454Y250785D01*
X508380Y250851D01*
X508302Y250915D01*
X508223Y250975D01*
X508141Y251032D01*
X508057Y251086D01*
X507971Y251136D01*
X507883Y251183D01*
X507793Y251227D01*
X507702Y251267D01*
X507609Y251303D01*
X507515Y251336D01*
X507419Y251365D01*
X507323Y251390D01*
X507226Y251411D01*
X507127Y251429D01*
X507029Y251442D01*
X506929Y251452D01*
X506830Y251458D01*
X506730Y251460D01*
X382270Y251460D02*
X382170Y251458D01*
X382071Y251452D01*
X381971Y251442D01*
X381873Y251429D01*
X381774Y251411D01*
X381677Y251390D01*
X381581Y251365D01*
X381485Y251336D01*
X381391Y251303D01*
X381298Y251267D01*
X381207Y251227D01*
X381117Y251183D01*
X381029Y251136D01*
X380943Y251086D01*
X380859Y251032D01*
X380777Y250975D01*
X380698Y250915D01*
X380620Y250851D01*
X380546Y250785D01*
X380474Y250716D01*
X380405Y250644D01*
X380339Y250570D01*
X380275Y250492D01*
X380215Y250413D01*
X380158Y250331D01*
X380104Y250247D01*
X380054Y250161D01*
X380007Y250073D01*
X379963Y249983D01*
X379923Y249892D01*
X379887Y249799D01*
X379854Y249705D01*
X379825Y249609D01*
X379800Y249513D01*
X379779Y249416D01*
X379761Y249317D01*
X379748Y249219D01*
X379738Y249119D01*
X379732Y249020D01*
X379730Y248920D01*
X379730Y208280D02*
X379732Y208180D01*
X379738Y208081D01*
X379748Y207981D01*
X379761Y207883D01*
X379779Y207784D01*
X379800Y207687D01*
X379825Y207591D01*
X379854Y207495D01*
X379887Y207401D01*
X379923Y207308D01*
X379963Y207217D01*
X380007Y207127D01*
X380054Y207039D01*
X380104Y206953D01*
X380158Y206869D01*
X380215Y206787D01*
X380275Y206708D01*
X380339Y206630D01*
X380405Y206556D01*
X380474Y206484D01*
X380546Y206415D01*
X380620Y206349D01*
X380698Y206285D01*
X380777Y206225D01*
X380859Y206168D01*
X380943Y206114D01*
X381029Y206064D01*
X381117Y206017D01*
X381207Y205973D01*
X381298Y205933D01*
X381391Y205897D01*
X381485Y205864D01*
X381581Y205835D01*
X381677Y205810D01*
X381774Y205789D01*
X381873Y205771D01*
X381971Y205758D01*
X382071Y205748D01*
X382170Y205742D01*
X382270Y205740D01*
X497840Y205740D02*
X506730Y205740D01*
X497840Y205740D02*
X496570Y207010D01*
X497840Y251460D02*
X506730Y251460D01*
X497840Y251460D02*
X496570Y250190D01*
X392430Y207010D02*
X391160Y205740D01*
X392430Y207010D02*
X496570Y207010D01*
X392430Y250190D02*
X391160Y251460D01*
X392430Y250190D02*
X496570Y250190D01*
X391160Y205740D02*
X382270Y205740D01*
X382270Y251460D02*
X391160Y251460D01*
X379730Y248920D02*
X379730Y234950D01*
X379730Y222250D02*
X379730Y208280D01*
X509270Y234950D02*
X509270Y248920D01*
X509270Y222250D02*
X509270Y208280D01*
D11*
X490938Y201041D02*
X490938Y189611D01*
X490938Y201041D02*
X494113Y201041D01*
X494224Y201039D01*
X494334Y201033D01*
X494445Y201024D01*
X494555Y201010D01*
X494664Y200993D01*
X494773Y200972D01*
X494881Y200947D01*
X494988Y200918D01*
X495094Y200886D01*
X495199Y200850D01*
X495302Y200810D01*
X495404Y200767D01*
X495505Y200720D01*
X495604Y200669D01*
X495701Y200616D01*
X495795Y200559D01*
X495888Y200498D01*
X495979Y200435D01*
X496068Y200368D01*
X496154Y200298D01*
X496237Y200225D01*
X496319Y200150D01*
X496397Y200072D01*
X496472Y199990D01*
X496545Y199907D01*
X496615Y199821D01*
X496682Y199732D01*
X496745Y199641D01*
X496806Y199548D01*
X496863Y199453D01*
X496916Y199357D01*
X496967Y199258D01*
X497014Y199157D01*
X497057Y199055D01*
X497097Y198952D01*
X497133Y198847D01*
X497165Y198741D01*
X497194Y198634D01*
X497219Y198526D01*
X497240Y198417D01*
X497257Y198308D01*
X497271Y198198D01*
X497280Y198087D01*
X497286Y197977D01*
X497288Y197866D01*
X497286Y197755D01*
X497280Y197645D01*
X497271Y197534D01*
X497257Y197424D01*
X497240Y197315D01*
X497219Y197206D01*
X497194Y197098D01*
X497165Y196991D01*
X497133Y196885D01*
X497097Y196780D01*
X497057Y196677D01*
X497014Y196575D01*
X496967Y196474D01*
X496916Y196375D01*
X496863Y196278D01*
X496806Y196184D01*
X496745Y196091D01*
X496682Y196000D01*
X496615Y195911D01*
X496545Y195825D01*
X496472Y195742D01*
X496397Y195660D01*
X496319Y195582D01*
X496237Y195507D01*
X496154Y195434D01*
X496068Y195364D01*
X495979Y195297D01*
X495888Y195234D01*
X495795Y195173D01*
X495701Y195116D01*
X495604Y195063D01*
X495505Y195012D01*
X495404Y194965D01*
X495302Y194922D01*
X495199Y194882D01*
X495094Y194846D01*
X494988Y194814D01*
X494881Y194785D01*
X494773Y194760D01*
X494664Y194739D01*
X494555Y194722D01*
X494445Y194708D01*
X494334Y194699D01*
X494224Y194693D01*
X494113Y194691D01*
X490938Y194691D01*
X494748Y194691D02*
X497288Y189611D01*
X502285Y189611D02*
X506095Y189611D01*
X506195Y189613D01*
X506294Y189619D01*
X506394Y189629D01*
X506492Y189642D01*
X506591Y189660D01*
X506688Y189681D01*
X506784Y189706D01*
X506880Y189735D01*
X506974Y189768D01*
X507067Y189804D01*
X507158Y189844D01*
X507248Y189888D01*
X507336Y189935D01*
X507422Y189985D01*
X507506Y190039D01*
X507588Y190096D01*
X507667Y190156D01*
X507745Y190220D01*
X507819Y190286D01*
X507891Y190355D01*
X507960Y190427D01*
X508026Y190501D01*
X508090Y190579D01*
X508150Y190658D01*
X508207Y190740D01*
X508261Y190824D01*
X508311Y190910D01*
X508358Y190998D01*
X508402Y191088D01*
X508442Y191179D01*
X508478Y191272D01*
X508511Y191366D01*
X508540Y191462D01*
X508565Y191558D01*
X508586Y191655D01*
X508604Y191754D01*
X508617Y191852D01*
X508627Y191952D01*
X508633Y192051D01*
X508635Y192151D01*
X508635Y193421D01*
X508633Y193521D01*
X508627Y193620D01*
X508617Y193720D01*
X508604Y193818D01*
X508586Y193917D01*
X508565Y194014D01*
X508540Y194110D01*
X508511Y194206D01*
X508478Y194300D01*
X508442Y194393D01*
X508402Y194484D01*
X508358Y194574D01*
X508311Y194662D01*
X508261Y194748D01*
X508207Y194832D01*
X508150Y194914D01*
X508090Y194993D01*
X508026Y195071D01*
X507960Y195145D01*
X507891Y195217D01*
X507819Y195286D01*
X507745Y195352D01*
X507667Y195416D01*
X507588Y195476D01*
X507506Y195533D01*
X507422Y195587D01*
X507336Y195637D01*
X507248Y195684D01*
X507158Y195728D01*
X507067Y195768D01*
X506974Y195804D01*
X506880Y195837D01*
X506784Y195866D01*
X506688Y195891D01*
X506591Y195912D01*
X506492Y195930D01*
X506394Y195943D01*
X506294Y195953D01*
X506195Y195959D01*
X506095Y195961D01*
X502285Y195961D01*
X502285Y201041D01*
X508635Y201041D01*
M02*
