M48
;GenerationSoftware,Autodesk,EAGLE,9.6.0*%
;CreationDate,2025-02-26T10:08:13Z*%
FMAT,2
ICI,OFF
METRIC,TZ,000.000
T4C0.760
T3C0.800
T2C1.000
T1C1.350
%
G90
M71
T1
X20320Y12700
X23820Y12700
X27320Y12700
T2
X24130Y24130
X26670Y24130
X29210Y24130
X31750Y24130
X34290Y24130
X36830Y24130
X39370Y24130
X41910Y24130
X44450Y24130
X46990Y24130
X49530Y24130
X52070Y24130
X16510Y49530
X19050Y49530
X21590Y49530
X24130Y49530
X26670Y49530
X29210Y49530
X31750Y49530
X34290Y49530
X36830Y49530
X39370Y49530
X41910Y49530
X44450Y49530
X46990Y49530
X49530Y49530
X52070Y49530
X7620Y10620
X16510Y24130
X19050Y24130
X21590Y24130
T3
X12420Y7620
X7620Y4620
T4
X38735Y10160
X40005Y10160
X41275Y10160
X42545Y10160
X52705Y13970
X53975Y13970
X55245Y13970
X56515Y13970
M30