M48
;GenerationSoftware,Autodesk,EAGLE,9.6.2*%
;CreationDate,2022-10-18T06:55:35Z*%
FMAT,2
ICI,OFF
METRIC,TZ,000.000
T3C0.900
T2C0.914
T1C1.016
%
G90
M71
T1
X7620Y30480
X7620Y33020
X7620Y35560
X7620Y38100
X16510Y40640
X16510Y38100
X16510Y35560
X16510Y33020
X16510Y30480
X16510Y27940
X16510Y25400
X25400Y15240
X73660Y12700
X25400Y12700
X21590Y20320
X36830Y20320
X36830Y22860
X51315Y25648
X60445Y37852
X55880Y25400
X55880Y40640
X49530Y19050
X64770Y19050
X73660Y15240
X52070Y22860
X71120Y15240
X71120Y12700
X68580Y15240
X68580Y12700
X66040Y15240
X66040Y12700
X63500Y15240
X63500Y12700
X60960Y15240
X60960Y12700
X58420Y15240
X58420Y12700
X55880Y15240
X55880Y12700
X53340Y15240
X53340Y12700
X50800Y15240
X50800Y12700
X48260Y15240
X48260Y12700
X45720Y15240
X45720Y12700
X43180Y15240
X43180Y12700
X40640Y15240
X40640Y12700
X38100Y15240
X38100Y12700
X35560Y15240
X35560Y12700
X33020Y15240
X33020Y12700
X30480Y15240
X30480Y12700
X27940Y15240
X27940Y12700
T2
X26670Y5080
X29210Y5080
X29210Y7620
X31750Y5080
X31750Y7620
X34290Y5080
X34290Y7620
X36830Y5080
X36830Y7620
X39370Y5080
X39370Y7620
X26670Y7620
T3
X69850Y34290
X44450Y39370
X23853Y43056
X23932Y40517
X24012Y37978
X24092Y35440
X24172Y32901
X24252Y30362
X24331Y27823
X24411Y25285
X31948Y28063
X31868Y30602
X31788Y33140
X69850Y36830
X31628Y38218
X31549Y40757
X31469Y43295
X32027Y25524
X44450Y36830
X44450Y34290
X44450Y31750
X44450Y29210
X44450Y26670
X69850Y29210
X69850Y31750
X31708Y35679
M30